M48
; DRILL file {KiCad 9.0.6} date 2025-12-24T15:42:29+1000
; FORMAT={-:-/ absolute / metric / decimal}
; #@! TF.CreationDate,2025-12-24T15:42:29+10:00
; #@! TF.GenerationSoftware,Kicad,Pcbnew,9.0.6
; #@! TF.FileFunction,Plated,1,2,PTH
FMAT,2
METRIC
; #@! TA.AperFunction,Plated,PTH,ViaDrill
T1C0.400
; #@! TA.AperFunction,Plated,PTH,ComponentDrill
T2C0.800
; #@! TA.AperFunction,Plated,PTH,ComponentDrill
T3C0.900
; #@! TA.AperFunction,Plated,PTH,ComponentDrill
T4C1.000
%
G90
G05
T1
X68.75Y-79.5
X68.87Y-74.85
X69.75Y-70.5
X70.0Y-79.5
X71.25Y-79.5
X72.5Y-79.5
X73.3Y-82.3
X73.75Y-79.5
X74.65Y-70.78
X75.0Y-64.25
X75.7Y-68.6
X75.88Y-70.82
X76.02Y-79.6
X78.15Y-70.94
X80.57Y-73.658
X82.0Y-59.75
X82.0Y-77.25
X82.9Y-64.2
X83.11Y-74.036
X84.0Y-67.75
X85.65Y-74.414
X88.185Y-74.792
X89.5Y-73.75
X90.73Y-75.17
X92.25Y-74.25
X93.27Y-75.548
X94.0Y-63.0
X95.75Y-74.0
X95.81Y-76.2
T2
X73.74Y-55.83
X76.28Y-55.83
X78.82Y-55.83
X80.57Y-71.185
X80.57Y-78.805
X81.36Y-55.83
X83.11Y-71.185
X83.11Y-78.805
X83.9Y-55.83
X85.65Y-71.185
X85.65Y-78.805
X86.44Y-55.83
X88.19Y-71.185
X88.19Y-78.805
X88.98Y-55.83
X90.73Y-71.185
X90.73Y-78.805
X91.52Y-55.83
X93.27Y-71.185
X93.27Y-78.805
X94.06Y-55.83
X95.81Y-71.185
X95.81Y-78.805
X98.35Y-71.185
X98.35Y-78.805
T3
X70.3Y-65.57
X70.3Y-68.11
X70.31Y-48.425
X70.31Y-50.965
X79.3Y-65.57
X79.3Y-68.11
X79.31Y-48.425
X79.31Y-50.965
X88.3Y-65.57
X88.3Y-68.11
X88.31Y-48.425
X88.31Y-50.965
X97.3Y-65.57
X97.3Y-68.11
X97.31Y-48.425
X97.31Y-50.965
T4
X76.18Y-81.739
X78.72Y-81.739
X81.26Y-81.739
X83.8Y-81.739
X86.34Y-81.739
X88.88Y-81.739
X91.42Y-81.739
M30
