%TF.GenerationSoftware,KiCad,Pcbnew,9.0.6*%
%TF.CreationDate,2025-12-24T15:42:27+10:00*%
%TF.ProjectId,PicoX68Key.LED,5069636f-5836-4384-9b65-792e4c45442e,rev?*%
%TF.SameCoordinates,Original*%
%TF.FileFunction,Copper,L2,Bot*%
%TF.FilePolarity,Positive*%
%FSLAX46Y46*%
G04 Gerber Fmt 4.6, Leading zero omitted, Abs format (unit mm)*
G04 Created by KiCad (PCBNEW 9.0.6) date 2025-12-24 15:42:27*
%MOMM*%
%LPD*%
G01*
G04 APERTURE LIST*
G04 Aperture macros list*
%AMRoundRect*
0 Rectangle with rounded corners*
0 $1 Rounding radius*
0 $2 $3 $4 $5 $6 $7 $8 $9 X,Y pos of 4 corners*
0 Add a 4 corners polygon primitive as box body*
4,1,4,$2,$3,$4,$5,$6,$7,$8,$9,$2,$3,0*
0 Add four circle primitives for the rounded corners*
1,1,$1+$1,$2,$3*
1,1,$1+$1,$4,$5*
1,1,$1+$1,$6,$7*
1,1,$1+$1,$8,$9*
0 Add four rect primitives between the rounded corners*
20,1,$1+$1,$2,$3,$4,$5,0*
20,1,$1+$1,$4,$5,$6,$7,0*
20,1,$1+$1,$6,$7,$8,$9,0*
20,1,$1+$1,$8,$9,$2,$3,0*%
G04 Aperture macros list end*
%TA.AperFunction,ComponentPad*%
%ADD10R,1.800000X1.800000*%
%TD*%
%TA.AperFunction,ComponentPad*%
%ADD11C,1.800000*%
%TD*%
%TA.AperFunction,ComponentPad*%
%ADD12RoundRect,0.250000X0.550000X-0.550000X0.550000X0.550000X-0.550000X0.550000X-0.550000X-0.550000X0*%
%TD*%
%TA.AperFunction,ComponentPad*%
%ADD13C,1.600000*%
%TD*%
%TA.AperFunction,ComponentPad*%
%ADD14R,1.600000X1.600000*%
%TD*%
%TA.AperFunction,ComponentPad*%
%ADD15R,1.700000X1.700000*%
%TD*%
%TA.AperFunction,ComponentPad*%
%ADD16C,1.700000*%
%TD*%
%TA.AperFunction,ViaPad*%
%ADD17C,0.800000*%
%TD*%
%TA.AperFunction,Conductor*%
%ADD18C,0.250000*%
%TD*%
%TA.AperFunction,Conductor*%
%ADD19C,0.500000*%
%TD*%
G04 APERTURE END LIST*
D10*
%TO.P,D3,1,K*%
%TO.N,Net-(D13-K)*%
X79310000Y-50965000D03*
D11*
%TO.P,D3,2,A*%
%TO.N,/QC*%
X79310000Y-48425000D03*
%TD*%
D12*
%TO.P,U1,1,QB*%
%TO.N,/QB*%
X80570000Y-78805000D03*
D13*
%TO.P,U1,2,QC*%
%TO.N,/QC*%
X83110000Y-78805000D03*
%TO.P,U1,3,QD*%
%TO.N,/QD*%
X85650000Y-78805000D03*
%TO.P,U1,4,QE*%
%TO.N,/QE*%
X88190000Y-78805000D03*
%TO.P,U1,5,QF*%
%TO.N,/QF*%
X90730000Y-78805000D03*
%TO.P,U1,6,QG*%
%TO.N,/QG*%
X93270000Y-78805000D03*
%TO.P,U1,7,QH*%
%TO.N,/QH*%
X95810000Y-78805000D03*
%TO.P,U1,8,GND*%
%TO.N,GND*%
X98350000Y-78805000D03*
%TO.P,U1,9,QH'*%
%TO.N,unconnected-(U1-QH'-Pad9)*%
X98350000Y-71185000D03*
%TO.P,U1,10,~{SRCLR}*%
%TO.N,+5V*%
X95810000Y-71185000D03*
%TO.P,U1,11,SRCLK*%
%TO.N,/SCL*%
X93270000Y-71185000D03*
%TO.P,U1,12,RCLK*%
%TO.N,/CS*%
X90730000Y-71185000D03*
%TO.P,U1,13,~{OE}*%
%TO.N,GND*%
X88190000Y-71185000D03*
%TO.P,U1,14,SER*%
%TO.N,/MOSI*%
X85650000Y-71185000D03*
%TO.P,U1,15,QA*%
%TO.N,/QA*%
X83110000Y-71185000D03*
%TO.P,U1,16,VCC*%
%TO.N,+5V*%
X80570000Y-71185000D03*
%TD*%
D10*
%TO.P,D1,1,K*%
%TO.N,Net-(D1-K)*%
X70310000Y-50965000D03*
D11*
%TO.P,D1,2,A*%
%TO.N,/QA*%
X70310000Y-48425000D03*
%TD*%
D10*
%TO.P,D4,1,K*%
%TO.N,Net-(D15-K)*%
X79300000Y-68110000D03*
D11*
%TO.P,D4,2,A*%
%TO.N,/QD*%
X79300000Y-65570000D03*
%TD*%
D10*
%TO.P,D5,1,K*%
%TO.N,Net-(D10-K)*%
X88310000Y-50965000D03*
D11*
%TO.P,D5,2,A*%
%TO.N,/QE*%
X88310000Y-48425000D03*
%TD*%
D10*
%TO.P,D7,1,K*%
%TO.N,Net-(D14-K)*%
X97310000Y-50965000D03*
D11*
%TO.P,D7,2,A*%
%TO.N,/QG*%
X97310000Y-48425000D03*
%TD*%
D10*
%TO.P,D2,1,K*%
%TO.N,Net-(D11-K)*%
X70300000Y-68110000D03*
D11*
%TO.P,D2,2,A*%
%TO.N,/QB*%
X70300000Y-65570000D03*
%TD*%
D14*
%TO.P,RN1,1,common*%
%TO.N,GND*%
X73740000Y-55830000D03*
D13*
%TO.P,RN1,2,R1*%
%TO.N,Net-(D1-K)*%
X76280000Y-55830000D03*
%TO.P,RN1,3,R2*%
%TO.N,Net-(D11-K)*%
X78820000Y-55830000D03*
%TO.P,RN1,4,R3*%
%TO.N,Net-(D13-K)*%
X81360000Y-55830000D03*
%TO.P,RN1,5,R4*%
%TO.N,Net-(D15-K)*%
X83900000Y-55830000D03*
%TO.P,RN1,6,R5*%
%TO.N,Net-(D10-K)*%
X86440000Y-55830000D03*
%TO.P,RN1,7,R6*%
%TO.N,Net-(D12-K)*%
X88980000Y-55830000D03*
%TO.P,RN1,8,R7*%
%TO.N,Net-(D14-K)*%
X91520000Y-55830000D03*
%TO.P,RN1,9,R8*%
%TO.N,Net-(D16-K)*%
X94060000Y-55830000D03*
%TD*%
D10*
%TO.P,D8,1,K*%
%TO.N,Net-(D16-K)*%
X97300000Y-68110000D03*
D11*
%TO.P,D8,2,A*%
%TO.N,/QH*%
X97300000Y-65570000D03*
%TD*%
D10*
%TO.P,D6,1,K*%
%TO.N,Net-(D12-K)*%
X88300000Y-68110000D03*
D11*
%TO.P,D6,2,A*%
%TO.N,/QF*%
X88300000Y-65570000D03*
%TD*%
D15*
%TO.P,J1,1,Pin_1*%
%TO.N,+5V*%
X76180000Y-81739000D03*
D16*
%TO.P,J1,2,Pin_2*%
%TO.N,/MOSI*%
X78720000Y-81739000D03*
%TO.P,J1,3,Pin_3*%
%TO.N,/SCL*%
X81260000Y-81739000D03*
%TO.P,J1,4,Pin_4*%
%TO.N,/CS*%
X83800000Y-81739000D03*
%TO.P,J1,5,Pin_5*%
%TO.N,unconnected-(J1-Pin_5-Pad5)*%
X86340000Y-81739000D03*
%TO.P,J1,6,Pin_6*%
%TO.N,unconnected-(J1-Pin_6-Pad6)*%
X88880000Y-81739000D03*
%TO.P,J1,7,Pin_7*%
%TO.N,GND*%
X91420000Y-81739000D03*
%TD*%
D17*
%TO.N,/QA*%
X69750000Y-70500000D03*
%TO.N,/QB*%
X80570000Y-73658000D03*
X68750000Y-79500000D03*
%TO.N,/QC*%
X70000000Y-79500000D03*
X83110000Y-74036000D03*
%TO.N,/QD*%
X71250000Y-79500000D03*
X85650000Y-74414000D03*
%TO.N,/QE*%
X72500000Y-79500000D03*
X88185000Y-74792000D03*
%TO.N,/QF*%
X73750000Y-79500000D03*
X90730000Y-75170000D03*
%TO.N,/QG*%
X93270000Y-75548000D03*
%TO.N,/QH*%
X95810000Y-76200000D03*
%TO.N,/SCL*%
X75880000Y-70820000D03*
%TO.N,/CS*%
X74650000Y-70780000D03*
X73300000Y-82300000D03*
%TO.N,GND*%
X89500000Y-73750000D03*
X95750000Y-74000000D03*
X94000000Y-63000000D03*
X92250000Y-74250000D03*
X82900000Y-64200000D03*
X82000000Y-59750000D03*
X68870000Y-74850000D03*
X84000000Y-67750000D03*
X78150000Y-70940000D03*
X75700000Y-68600000D03*
X82000000Y-77250000D03*
X75000000Y-64250000D03*
X76020000Y-79600000D03*
%TD*%
D18*
%TO.N,/QA*%
X69750000Y-70500000D02*
X68000000Y-68750000D01*
X68000000Y-68750000D02*
X68000000Y-50735000D01*
X68000000Y-50735000D02*
X70310000Y-48425000D01*
%TO.N,Net-(D11-K)*%
X68900000Y-64600000D02*
X75800000Y-57700000D01*
X70300000Y-68110000D02*
X68900000Y-66710000D01*
X68900000Y-66710000D02*
X68900000Y-64600000D01*
X78370000Y-55830000D02*
X78820000Y-55830000D01*
X75800000Y-57700000D02*
X76500000Y-57700000D01*
X76500000Y-57700000D02*
X78370000Y-55830000D01*
%TO.N,/QB*%
X71800000Y-70000000D02*
X71210000Y-70590000D01*
X71210000Y-70590000D02*
X71210000Y-77040000D01*
X71210000Y-77040000D02*
X68750000Y-79500000D01*
X71800000Y-67070000D02*
X71800000Y-70000000D01*
X70300000Y-65570000D02*
X71800000Y-67070000D01*
X80570000Y-76840000D02*
X80570000Y-73658000D01*
X70310000Y-65560000D02*
X70760000Y-65560000D01*
X80570000Y-78805000D02*
X80570000Y-76840000D01*
%TO.N,/QC*%
X79310000Y-48425000D02*
X78084000Y-49651000D01*
X80000000Y-62418000D02*
X71588000Y-70830000D01*
X78084000Y-49651000D02*
X78084000Y-53501595D01*
X78084000Y-53501595D02*
X80000000Y-55417595D01*
X83110000Y-78805000D02*
X83110000Y-77140000D01*
X71588000Y-70830000D02*
X71588000Y-77912000D01*
X71588000Y-77912000D02*
X70000000Y-79500000D01*
X80000000Y-55417595D02*
X80000000Y-62418000D01*
X83110000Y-77140000D02*
X83110000Y-74036000D01*
%TO.N,Net-(D15-K)*%
X81100000Y-66310000D02*
X81100000Y-58630000D01*
X81100000Y-58630000D02*
X83900000Y-55830000D01*
X79300000Y-68110000D02*
X81100000Y-66310000D01*
%TO.N,/QD*%
X85650000Y-78805000D02*
X85650000Y-77140000D01*
X71966000Y-70986572D02*
X71966000Y-78784000D01*
X77382572Y-65570000D02*
X71966000Y-70986572D01*
X85650000Y-77140000D02*
X85650000Y-74414000D01*
X71966000Y-78784000D02*
X71250000Y-79500000D01*
X79300000Y-65570000D02*
X77382572Y-65570000D01*
%TO.N,/QE*%
X80278000Y-69522000D02*
X85026000Y-64774000D01*
X85026000Y-51709000D02*
X88310000Y-48425000D01*
X73965143Y-69522000D02*
X80278000Y-69522000D01*
X72500000Y-79500000D02*
X72500000Y-70987144D01*
X88185000Y-76450000D02*
X88185000Y-74792000D01*
X88190000Y-76455000D02*
X88185000Y-76450000D01*
X85026000Y-64774000D02*
X85026000Y-51709000D01*
X88190000Y-78805000D02*
X88190000Y-76455000D01*
X72500000Y-70987144D02*
X73965143Y-69522000D01*
%TO.N,Net-(D12-K)*%
X90100000Y-56950000D02*
X88980000Y-55830000D01*
X90100000Y-66310000D02*
X90100000Y-56950000D01*
X88300000Y-68110000D02*
X90100000Y-66310000D01*
%TO.N,/QF*%
X73750000Y-70271716D02*
X73750000Y-79500000D01*
X90730000Y-76640000D02*
X90730000Y-75170000D01*
X90730000Y-78805000D02*
X90730000Y-76640000D01*
X83970000Y-69900000D02*
X74121716Y-69900000D01*
X74121716Y-69900000D02*
X73750000Y-70271716D01*
X88300000Y-65570000D02*
X83970000Y-69900000D01*
%TO.N,/QG*%
X94396000Y-77679000D02*
X94396000Y-69396001D01*
X94396000Y-69396001D02*
X92934000Y-67934001D01*
X93270000Y-78805000D02*
X93270000Y-75550000D01*
X93270000Y-78805000D02*
X94396000Y-77679000D01*
X92934000Y-67934001D02*
X92934000Y-52801000D01*
X92934000Y-52801000D02*
X97310000Y-48425000D01*
%TO.N,/QH*%
X96936000Y-75074000D02*
X95810000Y-76200000D01*
X97300000Y-65570000D02*
X95500000Y-67370000D01*
X96936000Y-70718595D02*
X96936000Y-75074000D01*
X95500000Y-69282595D02*
X96936000Y-70718595D01*
X95500000Y-67370000D02*
X95500000Y-69282595D01*
X95810000Y-76200000D02*
X95810000Y-78805000D01*
%TO.N,Net-(D16-K)*%
X99000000Y-66410000D02*
X99000000Y-60770000D01*
X97300000Y-68110000D02*
X99000000Y-66410000D01*
X99000000Y-60770000D02*
X94060000Y-55830000D01*
D19*
%TO.N,+5V*%
X78800000Y-78570000D02*
X76180000Y-81190000D01*
X76180000Y-81190000D02*
X76729000Y-81190000D01*
X80570000Y-71185000D02*
X78800000Y-72955000D01*
X78800000Y-72955000D02*
X78800000Y-78570000D01*
D18*
%TO.N,/SCL*%
X89450000Y-79490000D02*
X88660000Y-80280000D01*
X88660000Y-80280000D02*
X88160000Y-80280000D01*
X93270000Y-71185000D02*
X89450000Y-75005000D01*
X87630000Y-82112116D02*
X86702116Y-83040000D01*
X79959000Y-83040000D02*
X81260000Y-81739000D01*
X74840000Y-71860000D02*
X74840000Y-82610000D01*
X89450000Y-75005000D02*
X89450000Y-79490000D01*
X75270000Y-83040000D02*
X79959000Y-83040000D01*
X82561000Y-83040000D02*
X81260000Y-81739000D01*
X75880000Y-70820000D02*
X74840000Y-71860000D01*
X87630000Y-80810000D02*
X87630000Y-82112116D01*
X74840000Y-82610000D02*
X75270000Y-83040000D01*
X88160000Y-80280000D02*
X87630000Y-80810000D01*
X86702116Y-83040000D02*
X82561000Y-83040000D01*
%TO.N,/CS*%
X74462000Y-70968000D02*
X74650000Y-70780000D01*
X74462000Y-81138000D02*
X74462000Y-70968000D01*
X90730000Y-71185000D02*
X86930000Y-74985000D01*
X86930000Y-79510000D02*
X86200000Y-80240000D01*
X86200000Y-80240000D02*
X85299000Y-80240000D01*
X85299000Y-80240000D02*
X83800000Y-81739000D01*
X86930000Y-74985000D02*
X86930000Y-79510000D01*
X73300000Y-82300000D02*
X74462000Y-81138000D01*
%TO.N,/MOSI*%
X84400000Y-72435000D02*
X84400000Y-79550000D01*
X80219000Y-80240000D02*
X78720000Y-81739000D01*
X85650000Y-71185000D02*
X84400000Y-72435000D01*
X84400000Y-79550000D02*
X83710000Y-80240000D01*
X83710000Y-80240000D02*
X80219000Y-80240000D01*
%TD*%
%TA.AperFunction,Conductor*%
%TO.N,GND*%
G36*
X79536323Y-70172185D02*
G01*
X79582078Y-70224989D01*
X79592022Y-70294147D01*
X79569603Y-70349385D01*
X79457712Y-70503390D01*
X79364781Y-70685776D01*
X79301522Y-70880465D01*
X79269500Y-71082648D01*
X79269500Y-71287351D01*
X79301523Y-71489535D01*
X79301523Y-71489538D01*
X79364778Y-71684215D01*
X79364779Y-71684218D01*
X79364780Y-71684219D01*
X79381982Y-71717980D01*
X79394878Y-71786648D01*
X79368602Y-71851389D01*
X79359178Y-71861955D01*
X78497927Y-72723207D01*
X78497925Y-72723210D01*
X78448225Y-72809291D01*
X78448225Y-72809294D01*
X78422500Y-72905301D01*
X78422500Y-78362272D01*
X78402815Y-78429311D01*
X78386181Y-78449953D01*
X76483952Y-80352181D01*
X76422629Y-80385666D01*
X76396271Y-80388500D01*
X75282129Y-80388500D01*
X75282123Y-80388501D01*
X75229753Y-80394131D01*
X75160994Y-80381724D01*
X75109857Y-80334113D01*
X75092500Y-80270841D01*
X75092500Y-72015950D01*
X75112185Y-71948911D01*
X75128815Y-71928273D01*
X75384701Y-71672386D01*
X75446022Y-71638903D01*
X75515713Y-71643887D01*
X75519832Y-71645508D01*
X75574031Y-71667957D01*
X75617334Y-71685894D01*
X75617336Y-71685894D01*
X75617341Y-71685896D01*
X75791304Y-71720499D01*
X75791307Y-71720500D01*
X75791309Y-71720500D01*
X75968693Y-71720500D01*
X75968694Y-71720499D01*
X76042703Y-71705778D01*
X76142658Y-71685896D01*
X76142661Y-71685894D01*
X76142666Y-71685894D01*
X76306547Y-71618013D01*
X76454035Y-71519464D01*
X76579464Y-71394035D01*
X76678013Y-71246547D01*
X76745894Y-71082666D01*
X76747611Y-71074038D01*
X76776948Y-70926547D01*
X76780500Y-70908691D01*
X76780500Y-70731309D01*
X76780500Y-70731306D01*
X76780499Y-70731304D01*
X76745896Y-70557341D01*
X76745893Y-70557332D01*
X76678016Y-70393459D01*
X76678012Y-70393452D01*
X76645898Y-70345390D01*
X76625021Y-70278714D01*
X76643505Y-70211334D01*
X76695483Y-70164643D01*
X76749001Y-70152500D01*
X79469284Y-70152500D01*
X79536323Y-70172185D01*
G37*
%TD.AperFunction*%
%TA.AperFunction,Conductor*%
G36*
X94088751Y-72298253D02*
G01*
X94133368Y-72352022D01*
X94143500Y-72401114D01*
X94143500Y-74848638D01*
X94123815Y-74915677D01*
X94071011Y-74961432D01*
X94001853Y-74971376D01*
X93938297Y-74942351D01*
X93931819Y-74936319D01*
X93844038Y-74848538D01*
X93844034Y-74848535D01*
X93696553Y-74749990D01*
X93696540Y-74749983D01*
X93532667Y-74682106D01*
X93532658Y-74682103D01*
X93358694Y-74647500D01*
X93358691Y-74647500D01*
X93181309Y-74647500D01*
X93181306Y-74647500D01*
X93007341Y-74682103D01*
X93007332Y-74682106D01*
X92843459Y-74749983D01*
X92843446Y-74749990D01*
X92695965Y-74848535D01*
X92695961Y-74848538D01*
X92570538Y-74973961D01*
X92570535Y-74973965D01*
X92471990Y-75121446D01*
X92471983Y-75121459D01*
X92404106Y-75285332D01*
X92404103Y-75285341D01*
X92369500Y-75459304D01*
X92369500Y-75636695D01*
X92404103Y-75810658D01*
X92404106Y-75810667D01*
X92471983Y-75974540D01*
X92471990Y-75974553D01*
X92570535Y-76122034D01*
X92570538Y-76122038D01*
X92695961Y-76247461D01*
X92695965Y-76247464D01*
X92843446Y-76346009D01*
X92843458Y-76346016D01*
X92940952Y-76386398D01*
X92995356Y-76430238D01*
X93017421Y-76496532D01*
X93017500Y-76500959D01*
X93017500Y-77429525D01*
X92997815Y-77496564D01*
X92945011Y-77542319D01*
X92931819Y-77547455D01*
X92808609Y-77587489D01*
X92770778Y-77599781D01*
X92588386Y-77692715D01*
X92422786Y-77813028D01*
X92278028Y-77957786D01*
X92157715Y-78123386D01*
X92110485Y-78216080D01*
X92062510Y-78266876D01*
X91994689Y-78283671D01*
X91928554Y-78261134D01*
X91889515Y-78216080D01*
X91858348Y-78154912D01*
X91842287Y-78123390D01*
X91821019Y-78094117D01*
X91721971Y-77957786D01*
X91577213Y-77813028D01*
X91411613Y-77692715D01*
X91411612Y-77692714D01*
X91411610Y-77692713D01*
X91229219Y-77599780D01*
X91068181Y-77547455D01*
X91010506Y-77508018D01*
X90983308Y-77443660D01*
X90982500Y-77429525D01*
X90982500Y-76122959D01*
X91002185Y-76055920D01*
X91054989Y-76010165D01*
X91059048Y-76008398D01*
X91156541Y-75968016D01*
X91156544Y-75968014D01*
X91156547Y-75968013D01*
X91304035Y-75869464D01*
X91429464Y-75744035D01*
X91528013Y-75596547D01*
X91530720Y-75590013D01*
X91551795Y-75539131D01*
X91595894Y-75432666D01*
X91601997Y-75401987D01*
X91622299Y-75299920D01*
X91630500Y-75258691D01*
X91630500Y-75081309D01*
X91630500Y-75081306D01*
X91630499Y-75081304D01*
X91595896Y-74907341D01*
X91595893Y-74907332D01*
X91582983Y-74876165D01*
X91567164Y-74837973D01*
X91528016Y-74743459D01*
X91528009Y-74743446D01*
X91429464Y-74595965D01*
X91429461Y-74595961D01*
X91304038Y-74470538D01*
X91304034Y-74470535D01*
X91156553Y-74371990D01*
X91156540Y-74371983D01*
X90992667Y-74304106D01*
X90992659Y-74304104D01*
X90815925Y-74268949D01*
X90754014Y-74236564D01*
X90719440Y-74175848D01*
X90723180Y-74106079D01*
X90752434Y-74059653D01*
X92475937Y-72336150D01*
X92537258Y-72302667D01*
X92606950Y-72307651D01*
X92619911Y-72313348D01*
X92770776Y-72390218D01*
X92770778Y-72390218D01*
X92770781Y-72390220D01*
X92875137Y-72424127D01*
X92965465Y-72453477D01*
X93066557Y-72469488D01*
X93167648Y-72485500D01*
X93167649Y-72485500D01*
X93372351Y-72485500D01*
X93372352Y-72485500D01*
X93574534Y-72453477D01*
X93769219Y-72390220D01*
X93951610Y-72297287D01*
X93951626Y-72297274D01*
X93954702Y-72295391D01*
X94022147Y-72277142D01*
X94088751Y-72298253D01*
G37*
%TD.AperFunction*%
%TA.AperFunction,Conductor*%
G36*
X94853703Y-72068334D02*
G01*
X94860181Y-72074366D01*
X94962786Y-72176971D01*
X95117749Y-72289556D01*
X95128390Y-72297287D01*
X95196748Y-72332117D01*
X95310776Y-72390218D01*
X95310778Y-72390218D01*
X95310781Y-72390220D01*
X95415137Y-72424127D01*
X95505465Y-72453477D01*
X95606557Y-72469488D01*
X95707648Y-72485500D01*
X95707649Y-72485500D01*
X95912351Y-72485500D01*
X95912352Y-72485500D01*
X96114534Y-72453477D01*
X96309219Y-72390220D01*
X96491610Y-72297287D01*
X96491626Y-72297274D01*
X96494702Y-72295391D01*
X96562147Y-72277142D01*
X96628751Y-72298253D01*
X96673368Y-72352022D01*
X96683500Y-72401114D01*
X96683500Y-74918048D01*
X96663815Y-74985087D01*
X96647181Y-75005729D01*
X96305298Y-75347611D01*
X96243975Y-75381096D01*
X96174283Y-75376112D01*
X96170165Y-75374491D01*
X96072667Y-75334106D01*
X96072658Y-75334103D01*
X95898694Y-75299500D01*
X95898691Y-75299500D01*
X95721309Y-75299500D01*
X95721306Y-75299500D01*
X95547341Y-75334103D01*
X95547332Y-75334106D01*
X95383459Y-75401983D01*
X95383446Y-75401990D01*
X95235965Y-75500535D01*
X95235961Y-75500538D01*
X95110538Y-75625961D01*
X95110535Y-75625965D01*
X95011990Y-75773446D01*
X95011983Y-75773459D01*
X94944106Y-75937332D01*
X94944103Y-75937341D01*
X94909500Y-76111304D01*
X94909500Y-76288695D01*
X94944103Y-76462658D01*
X94944106Y-76462667D01*
X95011983Y-76626540D01*
X95011990Y-76626553D01*
X95110535Y-76774034D01*
X95110538Y-76774038D01*
X95235961Y-76899461D01*
X95235965Y-76899464D01*
X95383446Y-76998009D01*
X95383458Y-76998016D01*
X95480952Y-77038398D01*
X95535356Y-77082238D01*
X95557421Y-77148532D01*
X95557500Y-77152959D01*
X95557500Y-77429525D01*
X95537815Y-77496564D01*
X95485011Y-77542319D01*
X95471819Y-77547455D01*
X95348609Y-77587489D01*
X95310778Y-77599781D01*
X95128386Y-77692715D01*
X94962786Y-77813028D01*
X94818030Y-77957784D01*
X94811452Y-77966838D01*
X94809867Y-77968059D01*
X94805172Y-77975482D01*
X94700351Y-78119758D01*
X94700349Y-78119761D01*
X94697713Y-78123390D01*
X94650294Y-78216454D01*
X94650120Y-78216791D01*
X94626194Y-78241799D01*
X94602510Y-78266876D01*
X94602107Y-78266975D01*
X94601819Y-78267277D01*
X94568200Y-78275372D01*
X94534689Y-78283671D01*
X94534294Y-78283536D01*
X94533891Y-78283634D01*
X94501328Y-78272302D01*
X94468554Y-78261134D01*
X94468260Y-78260795D01*
X94467903Y-78260671D01*
X94465538Y-78257654D01*
X94429515Y-78216080D01*
X94398348Y-78154912D01*
X94385452Y-78086243D01*
X94411728Y-78021503D01*
X94421152Y-78010936D01*
X94474307Y-77957781D01*
X94610059Y-77822030D01*
X94648500Y-77729225D01*
X94648500Y-77628775D01*
X94648500Y-72162047D01*
X94668185Y-72095008D01*
X94720989Y-72049253D01*
X94790147Y-72039309D01*
X94853703Y-72068334D01*
G37*
%TD.AperFunction*%
%TA.AperFunction,Conductor*%
G36*
X84451445Y-71728865D02*
G01*
X84490483Y-71773917D01*
X84502883Y-71798252D01*
X84521651Y-71835086D01*
X84534547Y-71903756D01*
X84508270Y-71968496D01*
X84498847Y-71979062D01*
X84303912Y-72173997D01*
X84303875Y-72174035D01*
X84256970Y-72220941D01*
X84185941Y-72291970D01*
X84181596Y-72302458D01*
X84181594Y-72302461D01*
X84147501Y-72384771D01*
X84147500Y-72384776D01*
X84147500Y-73564235D01*
X84127815Y-73631274D01*
X84075011Y-73677029D01*
X84005853Y-73686973D01*
X83942297Y-73657948D01*
X83911111Y-73614700D01*
X83910883Y-73614823D01*
X83909976Y-73613126D01*
X83908939Y-73611688D01*
X83908014Y-73609456D01*
X83908013Y-73609453D01*
X83908011Y-73609450D01*
X83908009Y-73609446D01*
X83809464Y-73461965D01*
X83809461Y-73461961D01*
X83684038Y-73336538D01*
X83684034Y-73336535D01*
X83536553Y-73237990D01*
X83536540Y-73237983D01*
X83372667Y-73170106D01*
X83372658Y-73170103D01*
X83198694Y-73135500D01*
X83198691Y-73135500D01*
X83021309Y-73135500D01*
X83021306Y-73135500D01*
X82847341Y-73170103D01*
X82847332Y-73170106D01*
X82683459Y-73237983D01*
X82683446Y-73237990D01*
X82535965Y-73336535D01*
X82535961Y-73336538D01*
X82410538Y-73461961D01*
X82410535Y-73461965D01*
X82311990Y-73609446D01*
X82311983Y-73609459D01*
X82244106Y-73773332D01*
X82244103Y-73773341D01*
X82209500Y-73947304D01*
X82209500Y-74124695D01*
X82244103Y-74298658D01*
X82244106Y-74298667D01*
X82311983Y-74462540D01*
X82311990Y-74462553D01*
X82410535Y-74610034D01*
X82410538Y-74610038D01*
X82535961Y-74735461D01*
X82535965Y-74735464D01*
X82683446Y-74834009D01*
X82683458Y-74834016D01*
X82780952Y-74874398D01*
X82835356Y-74918238D01*
X82857421Y-74984532D01*
X82857500Y-74988959D01*
X82857500Y-77429525D01*
X82837815Y-77496564D01*
X82785011Y-77542319D01*
X82771819Y-77547455D01*
X82648609Y-77587489D01*
X82610778Y-77599781D01*
X82428386Y-77692715D01*
X82262786Y-77813028D01*
X82118032Y-77957782D01*
X82118028Y-77957787D01*
X82049978Y-78051451D01*
X81994648Y-78094117D01*
X81925035Y-78100096D01*
X81863240Y-78067490D01*
X81831954Y-78017570D01*
X81829756Y-78010936D01*
X81804814Y-77935666D01*
X81712712Y-77786344D01*
X81588656Y-77662288D01*
X81446184Y-77574411D01*
X81439336Y-77570187D01*
X81439331Y-77570185D01*
X81402360Y-77557934D01*
X81272797Y-77515001D01*
X81272795Y-77515000D01*
X81170016Y-77504500D01*
X81170009Y-77504500D01*
X80946500Y-77504500D01*
X80879461Y-77484815D01*
X80833706Y-77432011D01*
X80822500Y-77380500D01*
X80822500Y-74610959D01*
X80842185Y-74543920D01*
X80894989Y-74498165D01*
X80899048Y-74496398D01*
X80996541Y-74456016D01*
X80996544Y-74456014D01*
X80996547Y-74456013D01*
X81144035Y-74357464D01*
X81269464Y-74232035D01*
X81368013Y-74084547D01*
X81435894Y-73920666D01*
X81438009Y-73910037D01*
X81465201Y-73773332D01*
X81470500Y-73746691D01*
X81470500Y-73569309D01*
X81470500Y-73569306D01*
X81470499Y-73569304D01*
X81435896Y-73395341D01*
X81435893Y-73395332D01*
X81368016Y-73231459D01*
X81368009Y-73231446D01*
X81269464Y-73083965D01*
X81269461Y-73083961D01*
X81144038Y-72958538D01*
X81144034Y-72958535D01*
X80996553Y-72859990D01*
X80996540Y-72859983D01*
X80832667Y-72792106D01*
X80832658Y-72792103D01*
X80658694Y-72757500D01*
X80658691Y-72757500D01*
X80481309Y-72757500D01*
X80481306Y-72757500D01*
X80307341Y-72792103D01*
X80307332Y-72792106D01*
X80143459Y-72859983D01*
X80143446Y-72859990D01*
X79995965Y-72958535D01*
X79995961Y-72958538D01*
X79870538Y-73083961D01*
X79870535Y-73083965D01*
X79771990Y-73231446D01*
X79771983Y-73231459D01*
X79704106Y-73395332D01*
X79704103Y-73395341D01*
X79669500Y-73569304D01*
X79669500Y-73746695D01*
X79704103Y-73920658D01*
X79704106Y-73920667D01*
X79771983Y-74084540D01*
X79771990Y-74084553D01*
X79870535Y-74232034D01*
X79870538Y-74232038D01*
X79995961Y-74357461D01*
X79995965Y-74357464D01*
X80143446Y-74456009D01*
X80143458Y-74456016D01*
X80240952Y-74496398D01*
X80295356Y-74540238D01*
X80317421Y-74606532D01*
X80317500Y-74610959D01*
X80317500Y-77380500D01*
X80297815Y-77447539D01*
X80245011Y-77493294D01*
X80193501Y-77504500D01*
X79969999Y-77504500D01*
X79969980Y-77504501D01*
X79867203Y-77515000D01*
X79867200Y-77515001D01*
X79700668Y-77570185D01*
X79700663Y-77570187D01*
X79551342Y-77662289D01*
X79427287Y-77786344D01*
X79407038Y-77819174D01*
X79355090Y-77865898D01*
X79286127Y-77877119D01*
X79222045Y-77849276D01*
X79183190Y-77791207D01*
X79177500Y-77754076D01*
X79177500Y-73162726D01*
X79197185Y-73095687D01*
X79213815Y-73075049D01*
X79893044Y-72395819D01*
X79954365Y-72362336D01*
X80024056Y-72367320D01*
X80037018Y-72373017D01*
X80070776Y-72390218D01*
X80070778Y-72390218D01*
X80070781Y-72390220D01*
X80175137Y-72424127D01*
X80265465Y-72453477D01*
X80366557Y-72469488D01*
X80467648Y-72485500D01*
X80467649Y-72485500D01*
X80672351Y-72485500D01*
X80672352Y-72485500D01*
X80874534Y-72453477D01*
X81069219Y-72390220D01*
X81251610Y-72297287D01*
X81356692Y-72220941D01*
X81417213Y-72176971D01*
X81417215Y-72176968D01*
X81417219Y-72176966D01*
X81561966Y-72032219D01*
X81561968Y-72032215D01*
X81561971Y-72032213D01*
X81682284Y-71866614D01*
X81682286Y-71866611D01*
X81682287Y-71866610D01*
X81729516Y-71773917D01*
X81777489Y-71723123D01*
X81845310Y-71706328D01*
X81911445Y-71728865D01*
X81950483Y-71773917D01*
X81962883Y-71798252D01*
X81997715Y-71866614D01*
X82118028Y-72032213D01*
X82262786Y-72176971D01*
X82417749Y-72289556D01*
X82428390Y-72297287D01*
X82496748Y-72332117D01*
X82610776Y-72390218D01*
X82610778Y-72390218D01*
X82610781Y-72390220D01*
X82715137Y-72424127D01*
X82805465Y-72453477D01*
X82906557Y-72469488D01*
X83007648Y-72485500D01*
X83007649Y-72485500D01*
X83212351Y-72485500D01*
X83212352Y-72485500D01*
X83414534Y-72453477D01*
X83609219Y-72390220D01*
X83791610Y-72297287D01*
X83957219Y-72176966D01*
X84101966Y-72032219D01*
X84222287Y-71866610D01*
X84269516Y-71773917D01*
X84317489Y-71723123D01*
X84385310Y-71706328D01*
X84451445Y-71728865D01*
G37*
%TD.AperFunction*%
%TA.AperFunction,Conductor*%
G36*
X87790000Y-71237661D02*
G01*
X87817259Y-71339394D01*
X87869920Y-71430606D01*
X87944394Y-71505080D01*
X88035606Y-71557741D01*
X88137339Y-71585000D01*
X88143553Y-71585000D01*
X87464076Y-72264474D01*
X87508650Y-72296859D01*
X87690968Y-72389755D01*
X87885582Y-72452990D01*
X88087683Y-72485000D01*
X88292317Y-72485000D01*
X88494417Y-72452990D01*
X88689031Y-72389755D01*
X88871349Y-72296859D01*
X89021778Y-72187565D01*
X89087584Y-72164085D01*
X89155638Y-72179910D01*
X89204333Y-72230015D01*
X89218209Y-72298493D01*
X89192860Y-72363603D01*
X89182345Y-72375564D01*
X86786970Y-74770941D01*
X86715942Y-74841968D01*
X86715941Y-74841969D01*
X86677500Y-74934773D01*
X86677500Y-77700651D01*
X86657815Y-77767690D01*
X86605011Y-77813445D01*
X86535853Y-77823389D01*
X86480615Y-77800970D01*
X86331609Y-77692712D01*
X86149221Y-77599781D01*
X86149220Y-77599780D01*
X86149219Y-77599780D01*
X85988181Y-77547455D01*
X85930506Y-77508018D01*
X85903308Y-77443660D01*
X85902500Y-77429525D01*
X85902500Y-75366959D01*
X85922185Y-75299920D01*
X85974989Y-75254165D01*
X85979048Y-75252398D01*
X86076541Y-75212016D01*
X86076544Y-75212014D01*
X86076547Y-75212013D01*
X86224035Y-75113464D01*
X86349464Y-74988035D01*
X86448013Y-74840547D01*
X86450720Y-74834013D01*
X86457958Y-74816535D01*
X86515894Y-74676666D01*
X86550500Y-74502691D01*
X86550500Y-74325309D01*
X86550500Y-74325306D01*
X86550499Y-74325304D01*
X86515896Y-74151341D01*
X86515893Y-74151332D01*
X86448016Y-73987459D01*
X86448009Y-73987446D01*
X86349464Y-73839965D01*
X86349461Y-73839961D01*
X86224038Y-73714538D01*
X86224034Y-73714535D01*
X86076553Y-73615990D01*
X86076540Y-73615983D01*
X85912667Y-73548106D01*
X85912658Y-73548103D01*
X85738694Y-73513500D01*
X85738691Y-73513500D01*
X85561309Y-73513500D01*
X85561306Y-73513500D01*
X85387341Y-73548103D01*
X85387332Y-73548106D01*
X85223459Y-73615983D01*
X85223446Y-73615990D01*
X85075965Y-73714535D01*
X85075961Y-73714538D01*
X84950538Y-73839961D01*
X84950535Y-73839965D01*
X84879602Y-73946123D01*
X84825989Y-73990928D01*
X84756664Y-73999635D01*
X84693637Y-73969480D01*
X84656918Y-73910037D01*
X84652500Y-73877232D01*
X84652500Y-72590950D01*
X84661144Y-72561509D01*
X84667668Y-72531523D01*
X84671422Y-72526507D01*
X84672185Y-72523911D01*
X84688815Y-72503273D01*
X84855936Y-72336151D01*
X84917259Y-72302667D01*
X84986951Y-72307651D01*
X84999907Y-72313346D01*
X85036748Y-72332117D01*
X85150776Y-72390218D01*
X85150778Y-72390218D01*
X85150781Y-72390220D01*
X85255137Y-72424127D01*
X85345465Y-72453477D01*
X85446557Y-72469488D01*
X85547648Y-72485500D01*
X85547649Y-72485500D01*
X85752351Y-72485500D01*
X85752352Y-72485500D01*
X85954534Y-72453477D01*
X86149219Y-72390220D01*
X86331610Y-72297287D01*
X86436692Y-72220941D01*
X86497213Y-72176971D01*
X86497215Y-72176968D01*
X86497219Y-72176966D01*
X86641966Y-72032219D01*
X86641968Y-72032215D01*
X86641971Y-72032213D01*
X86735299Y-71903756D01*
X86762287Y-71866610D01*
X86809795Y-71773369D01*
X86857769Y-71722573D01*
X86925590Y-71705778D01*
X86991725Y-71728315D01*
X87030765Y-71773369D01*
X87078141Y-71866350D01*
X87078147Y-71866359D01*
X87110523Y-71910921D01*
X87110524Y-71910922D01*
X87790000Y-71231446D01*
X87790000Y-71237661D01*
G37*
%TD.AperFunction*%
%TA.AperFunction,Conductor*%
G36*
X91693377Y-72182174D02*
G01*
X91742072Y-72232280D01*
X91755947Y-72300758D01*
X91730598Y-72365867D01*
X91720083Y-72377827D01*
X89306970Y-74790941D01*
X89297181Y-74800730D01*
X89235858Y-74834215D01*
X89166166Y-74829231D01*
X89110233Y-74787359D01*
X89085816Y-74721895D01*
X89085500Y-74713049D01*
X89085500Y-74703306D01*
X89085499Y-74703304D01*
X89050896Y-74529341D01*
X89050893Y-74529332D01*
X89041959Y-74507764D01*
X89022306Y-74460316D01*
X88983016Y-74365459D01*
X88983009Y-74365446D01*
X88884464Y-74217965D01*
X88884461Y-74217961D01*
X88759038Y-74092538D01*
X88759034Y-74092535D01*
X88611553Y-73993990D01*
X88611543Y-73993985D01*
X88547217Y-73967340D01*
X88492813Y-73923498D01*
X88470749Y-73857204D01*
X88488029Y-73789505D01*
X88506985Y-73765102D01*
X89935937Y-72336150D01*
X89997258Y-72302667D01*
X90066950Y-72307651D01*
X90079911Y-72313348D01*
X90230776Y-72390218D01*
X90230778Y-72390218D01*
X90230781Y-72390220D01*
X90335137Y-72424127D01*
X90425465Y-72453477D01*
X90526557Y-72469488D01*
X90627648Y-72485500D01*
X90627649Y-72485500D01*
X90832351Y-72485500D01*
X90832352Y-72485500D01*
X91034534Y-72453477D01*
X91229219Y-72390220D01*
X91411610Y-72297287D01*
X91504203Y-72230015D01*
X91559517Y-72189828D01*
X91625324Y-72166348D01*
X91693377Y-72182174D01*
G37*
%TD.AperFunction*%
%TA.AperFunction,Conductor*%
G36*
X90267228Y-56355389D02*
G01*
X90279808Y-56354850D01*
X90299674Y-56366446D01*
X90321446Y-56373866D01*
X90330719Y-56384568D01*
X90340150Y-56390073D01*
X90360485Y-56418919D01*
X90407715Y-56511614D01*
X90528028Y-56677213D01*
X90672786Y-56821971D01*
X90824535Y-56932221D01*
X90838390Y-56942287D01*
X90926517Y-56987190D01*
X91020776Y-57035218D01*
X91020778Y-57035218D01*
X91020781Y-57035220D01*
X91080393Y-57054589D01*
X91215465Y-57098477D01*
X91262654Y-57105951D01*
X91417648Y-57130500D01*
X91417649Y-57130500D01*
X91622351Y-57130500D01*
X91622352Y-57130500D01*
X91824534Y-57098477D01*
X92019219Y-57035220D01*
X92201610Y-56942287D01*
X92313428Y-56861047D01*
X92367213Y-56821971D01*
X92367215Y-56821968D01*
X92367219Y-56821966D01*
X92469819Y-56719366D01*
X92531142Y-56685881D01*
X92600834Y-56690865D01*
X92656767Y-56732737D01*
X92681184Y-56798201D01*
X92681500Y-56807047D01*
X92681500Y-67984227D01*
X92719941Y-68077031D01*
X94107181Y-69464271D01*
X94140666Y-69525594D01*
X94143500Y-69551952D01*
X94143500Y-69968885D01*
X94123815Y-70035924D01*
X94071011Y-70081679D01*
X94001853Y-70091623D01*
X93954713Y-70074614D01*
X93951615Y-70072715D01*
X93769223Y-69979781D01*
X93574534Y-69916522D01*
X93399995Y-69888878D01*
X93372352Y-69884500D01*
X93167648Y-69884500D01*
X93143329Y-69888351D01*
X92965465Y-69916522D01*
X92770776Y-69979781D01*
X92588386Y-70072715D01*
X92422786Y-70193028D01*
X92278028Y-70337786D01*
X92157715Y-70503386D01*
X92110485Y-70596080D01*
X92062510Y-70646876D01*
X91994689Y-70663671D01*
X91928554Y-70641134D01*
X91889515Y-70596080D01*
X91879062Y-70575565D01*
X91842287Y-70503390D01*
X91834556Y-70492749D01*
X91721971Y-70337786D01*
X91577213Y-70193028D01*
X91411613Y-70072715D01*
X91411612Y-70072714D01*
X91411610Y-70072713D01*
X91339408Y-70035924D01*
X91229223Y-69979781D01*
X91034534Y-69916522D01*
X90859995Y-69888878D01*
X90832352Y-69884500D01*
X90627648Y-69884500D01*
X90603329Y-69888351D01*
X90425465Y-69916522D01*
X90230776Y-69979781D01*
X90048386Y-70072715D01*
X89882786Y-70193028D01*
X89738028Y-70337786D01*
X89617713Y-70503388D01*
X89570203Y-70596630D01*
X89522228Y-70647426D01*
X89454407Y-70664220D01*
X89388272Y-70641682D01*
X89349234Y-70596628D01*
X89301861Y-70503652D01*
X89269474Y-70459077D01*
X89269474Y-70459076D01*
X88590000Y-71138553D01*
X88590000Y-71132339D01*
X88562741Y-71030606D01*
X88510080Y-70939394D01*
X88435606Y-70864920D01*
X88344394Y-70812259D01*
X88242661Y-70785000D01*
X88236446Y-70785000D01*
X88915922Y-70105524D01*
X88915921Y-70105523D01*
X88871359Y-70073147D01*
X88871350Y-70073141D01*
X88689031Y-69980244D01*
X88494417Y-69917009D01*
X88292317Y-69885000D01*
X88087683Y-69885000D01*
X87885582Y-69917009D01*
X87690968Y-69980244D01*
X87508644Y-70073143D01*
X87464077Y-70105523D01*
X87464077Y-70105524D01*
X88143554Y-70785000D01*
X88137339Y-70785000D01*
X88035606Y-70812259D01*
X87944394Y-70864920D01*
X87869920Y-70939394D01*
X87817259Y-71030606D01*
X87790000Y-71132339D01*
X87790000Y-71138553D01*
X87110524Y-70459077D01*
X87110523Y-70459077D01*
X87078143Y-70503644D01*
X87030765Y-70596630D01*
X86982790Y-70647426D01*
X86914969Y-70664221D01*
X86848834Y-70641683D01*
X86809795Y-70596630D01*
X86799062Y-70575565D01*
X86762287Y-70503390D01*
X86762285Y-70503387D01*
X86762284Y-70503385D01*
X86641971Y-70337786D01*
X86497213Y-70193028D01*
X86331613Y-70072715D01*
X86331612Y-70072714D01*
X86331610Y-70072713D01*
X86259408Y-70035924D01*
X86149223Y-69979781D01*
X85954534Y-69916522D01*
X85779995Y-69888878D01*
X85752352Y-69884500D01*
X85547648Y-69884500D01*
X85523329Y-69888351D01*
X85345465Y-69916522D01*
X85150776Y-69979781D01*
X84968386Y-70072715D01*
X84802786Y-70193028D01*
X84658028Y-70337786D01*
X84537715Y-70503386D01*
X84490485Y-70596080D01*
X84442510Y-70646876D01*
X84374689Y-70663671D01*
X84308554Y-70641134D01*
X84269515Y-70596080D01*
X84259062Y-70575565D01*
X84222287Y-70503390D01*
X84214556Y-70492749D01*
X84101971Y-70337786D01*
X84078235Y-70314050D01*
X84044750Y-70252727D01*
X84049734Y-70183035D01*
X84091606Y-70127102D01*
X84104484Y-70119768D01*
X84113026Y-70114060D01*
X84113030Y-70114059D01*
X86687821Y-67539266D01*
X86749142Y-67505783D01*
X86818834Y-67510767D01*
X86874767Y-67552639D01*
X86899184Y-67618103D01*
X86899500Y-67626949D01*
X86899500Y-69057870D01*
X86899501Y-69057876D01*
X86905908Y-69117483D01*
X86956202Y-69252328D01*
X86956206Y-69252335D01*
X87042452Y-69367544D01*
X87042455Y-69367547D01*
X87157664Y-69453793D01*
X87157671Y-69453797D01*
X87292517Y-69504091D01*
X87292516Y-69504091D01*
X87299444Y-69504835D01*
X87352127Y-69510500D01*
X89247872Y-69510499D01*
X89307483Y-69504091D01*
X89442331Y-69453796D01*
X89557546Y-69367546D01*
X89643796Y-69252331D01*
X89694091Y-69117483D01*
X89700500Y-69057873D01*
X89700499Y-67162128D01*
X89697566Y-67134846D01*
X89709972Y-67066088D01*
X89733172Y-67033915D01*
X90314059Y-66453030D01*
X90352500Y-66360225D01*
X90352500Y-66259775D01*
X90352500Y-56899775D01*
X90314059Y-56806970D01*
X90243030Y-56735941D01*
X90131151Y-56624062D01*
X90097667Y-56562740D01*
X90102651Y-56493048D01*
X90108343Y-56480098D01*
X90139516Y-56418917D01*
X90148161Y-56409764D01*
X90152896Y-56398099D01*
X90171695Y-56384846D01*
X90187490Y-56368123D01*
X90199711Y-56365096D01*
X90210002Y-56357842D01*
X90232984Y-56356856D01*
X90255311Y-56351328D01*
X90267228Y-56355389D01*
G37*
%TD.AperFunction*%
%TA.AperFunction,Conductor*%
G36*
X93336929Y-56926545D02*
G01*
X93342887Y-56926418D01*
X93375298Y-56940391D01*
X93378378Y-56942278D01*
X93378390Y-56942287D01*
X93454667Y-56981152D01*
X93560776Y-57035218D01*
X93560778Y-57035218D01*
X93560781Y-57035220D01*
X93620393Y-57054589D01*
X93755465Y-57098477D01*
X93802654Y-57105951D01*
X93957648Y-57130500D01*
X93957649Y-57130500D01*
X94162351Y-57130500D01*
X94162352Y-57130500D01*
X94364534Y-57098477D01*
X94559219Y-57035220D01*
X94710089Y-56958347D01*
X94778756Y-56945452D01*
X94843496Y-56971728D01*
X94854063Y-56981152D01*
X98711181Y-60838270D01*
X98744666Y-60899593D01*
X98747500Y-60925951D01*
X98747500Y-64809514D01*
X98727815Y-64876553D01*
X98675011Y-64922308D01*
X98605853Y-64932252D01*
X98542297Y-64903227D01*
X98513016Y-64865810D01*
X98497814Y-64835976D01*
X98368247Y-64657641D01*
X98368243Y-64657636D01*
X98212363Y-64501756D01*
X98212358Y-64501752D01*
X98034025Y-64372187D01*
X98034024Y-64372186D01*
X98034022Y-64372185D01*
X97971096Y-64340122D01*
X97837606Y-64272104D01*
X97837603Y-64272103D01*
X97627952Y-64203985D01*
X97519086Y-64186742D01*
X97410222Y-64169500D01*
X97189778Y-64169500D01*
X97117201Y-64180995D01*
X96972047Y-64203985D01*
X96762396Y-64272103D01*
X96762393Y-64272104D01*
X96565974Y-64372187D01*
X96387641Y-64501752D01*
X96387636Y-64501756D01*
X96231756Y-64657636D01*
X96231752Y-64657641D01*
X96102187Y-64835974D01*
X96002104Y-65032393D01*
X96002103Y-65032396D01*
X95933985Y-65242047D01*
X95899500Y-65459778D01*
X95899500Y-65680221D01*
X95933985Y-65897952D01*
X96002103Y-66107603D01*
X96002106Y-66107611D01*
X96097300Y-66294435D01*
X96110197Y-66363105D01*
X96083921Y-66427845D01*
X96074497Y-66438412D01*
X95356970Y-67155941D01*
X95285942Y-67226968D01*
X95285941Y-67226969D01*
X95247500Y-67319773D01*
X95247500Y-69332821D01*
X95285941Y-69425625D01*
X95567735Y-69707419D01*
X95601220Y-69768742D01*
X95596236Y-69838434D01*
X95554364Y-69894367D01*
X95508999Y-69915674D01*
X95505472Y-69916520D01*
X95310776Y-69979781D01*
X95128386Y-70072715D01*
X94962786Y-70193028D01*
X94962782Y-70193032D01*
X94860181Y-70295634D01*
X94798858Y-70329119D01*
X94729166Y-70324135D01*
X94673233Y-70282263D01*
X94648816Y-70216799D01*
X94648500Y-70207953D01*
X94648500Y-69345777D01*
X94648499Y-69345774D01*
X94643133Y-69332820D01*
X94610059Y-69252971D01*
X94539030Y-69181942D01*
X93222819Y-67865731D01*
X93189334Y-67804408D01*
X93186500Y-67778050D01*
X93186500Y-57046114D01*
X93188674Y-57038707D01*
X93187413Y-57031091D01*
X93198381Y-57005648D01*
X93206185Y-56979075D01*
X93212017Y-56974020D01*
X93215075Y-56966930D01*
X93238056Y-56951457D01*
X93258989Y-56933320D01*
X93266630Y-56932221D01*
X93273034Y-56927910D01*
X93300728Y-56927318D01*
X93328147Y-56923376D01*
X93336929Y-56926545D01*
G37*
%TD.AperFunction*%
%TA.AperFunction,Conductor*%
G36*
X77897286Y-56762317D02*
G01*
X77941633Y-56790818D01*
X77972786Y-56821971D01*
X78124535Y-56932221D01*
X78138390Y-56942287D01*
X78226517Y-56987190D01*
X78320776Y-57035218D01*
X78320778Y-57035218D01*
X78320781Y-57035220D01*
X78380393Y-57054589D01*
X78515465Y-57098477D01*
X78562654Y-57105951D01*
X78717648Y-57130500D01*
X78717649Y-57130500D01*
X78922351Y-57130500D01*
X78922352Y-57130500D01*
X79124534Y-57098477D01*
X79319219Y-57035220D01*
X79501610Y-56942287D01*
X79550616Y-56906682D01*
X79616420Y-56883203D01*
X79684474Y-56899028D01*
X79733169Y-56949134D01*
X79747500Y-57007001D01*
X79747500Y-62262049D01*
X79727815Y-62329088D01*
X79711181Y-62349730D01*
X72264181Y-69796730D01*
X72202858Y-69830215D01*
X72133166Y-69825231D01*
X72077233Y-69783359D01*
X72052816Y-69717895D01*
X72052500Y-69709049D01*
X72052500Y-67019776D01*
X72052499Y-67019773D01*
X72014059Y-66926970D01*
X71943030Y-66855941D01*
X71525501Y-66438412D01*
X71492017Y-66377090D01*
X71497001Y-66307398D01*
X71502699Y-66294436D01*
X71597893Y-66107610D01*
X71597896Y-66107603D01*
X71600352Y-66100042D01*
X71666015Y-65897951D01*
X71700500Y-65680222D01*
X71700500Y-65459778D01*
X71666015Y-65242049D01*
X71623567Y-65111406D01*
X71597896Y-65032396D01*
X71597895Y-65032393D01*
X71563237Y-64964375D01*
X71497815Y-64835978D01*
X71478588Y-64809514D01*
X71368247Y-64657641D01*
X71368243Y-64657636D01*
X71212363Y-64501756D01*
X71212358Y-64501752D01*
X71034025Y-64372187D01*
X71034024Y-64372186D01*
X71034022Y-64372185D01*
X70971096Y-64340122D01*
X70837606Y-64272104D01*
X70837603Y-64272103D01*
X70627952Y-64203985D01*
X70519086Y-64186742D01*
X70410222Y-64169500D01*
X70189778Y-64169500D01*
X70116001Y-64181185D01*
X69970014Y-64204307D01*
X69900720Y-64195352D01*
X69847268Y-64150356D01*
X69826629Y-64083604D01*
X69845354Y-64016291D01*
X69862931Y-63994157D01*
X75868270Y-57988819D01*
X75929593Y-57955334D01*
X75955951Y-57952500D01*
X76550223Y-57952500D01*
X76550225Y-57952500D01*
X76643030Y-57914059D01*
X77766271Y-56790818D01*
X77827594Y-56757333D01*
X77897286Y-56762317D01*
G37*
%TD.AperFunction*%
%TA.AperFunction,Conductor*%
G36*
X87781445Y-56373865D02*
G01*
X87820485Y-56418919D01*
X87867715Y-56511614D01*
X87988028Y-56677213D01*
X88132786Y-56821971D01*
X88284535Y-56932221D01*
X88298390Y-56942287D01*
X88386517Y-56987190D01*
X88480776Y-57035218D01*
X88480778Y-57035218D01*
X88480781Y-57035220D01*
X88540393Y-57054589D01*
X88675465Y-57098477D01*
X88722654Y-57105951D01*
X88877648Y-57130500D01*
X88877649Y-57130500D01*
X89082351Y-57130500D01*
X89082352Y-57130500D01*
X89284534Y-57098477D01*
X89479219Y-57035220D01*
X89630089Y-56958347D01*
X89654380Y-56953785D01*
X89677536Y-56945149D01*
X89688115Y-56947450D01*
X89698756Y-56945452D01*
X89721658Y-56954747D01*
X89745809Y-56960001D01*
X89759079Y-56969935D01*
X89763496Y-56971728D01*
X89774063Y-56981152D01*
X89811181Y-57018270D01*
X89844666Y-57079593D01*
X89847500Y-57105951D01*
X89847500Y-65017693D01*
X89827815Y-65084732D01*
X89775011Y-65130487D01*
X89705853Y-65140431D01*
X89642297Y-65111406D01*
X89605569Y-65056011D01*
X89597896Y-65032396D01*
X89597895Y-65032393D01*
X89563237Y-64964375D01*
X89497815Y-64835978D01*
X89478588Y-64809514D01*
X89368247Y-64657641D01*
X89368243Y-64657636D01*
X89212363Y-64501756D01*
X89212358Y-64501752D01*
X89034025Y-64372187D01*
X89034024Y-64372186D01*
X89034022Y-64372185D01*
X88971096Y-64340122D01*
X88837606Y-64272104D01*
X88837603Y-64272103D01*
X88627952Y-64203985D01*
X88519086Y-64186742D01*
X88410222Y-64169500D01*
X88189778Y-64169500D01*
X88117201Y-64180995D01*
X87972047Y-64203985D01*
X87762396Y-64272103D01*
X87762393Y-64272104D01*
X87565974Y-64372187D01*
X87387641Y-64501752D01*
X87387636Y-64501756D01*
X87231756Y-64657636D01*
X87231752Y-64657641D01*
X87102187Y-64835974D01*
X87002104Y-65032393D01*
X87002103Y-65032396D01*
X86933985Y-65242047D01*
X86899500Y-65459778D01*
X86899500Y-65680221D01*
X86933985Y-65897952D01*
X87002103Y-66107603D01*
X87002106Y-66107611D01*
X87097300Y-66294435D01*
X87110197Y-66363105D01*
X87083921Y-66427845D01*
X87074497Y-66438412D01*
X83901730Y-69611181D01*
X83840407Y-69644666D01*
X83814049Y-69647500D01*
X80808951Y-69647500D01*
X80741912Y-69627815D01*
X80696157Y-69575011D01*
X80686213Y-69505853D01*
X80715238Y-69442297D01*
X80721270Y-69435819D01*
X82930121Y-67226968D01*
X85240059Y-64917030D01*
X85278500Y-64824225D01*
X85278500Y-64723775D01*
X85278500Y-56807047D01*
X85298185Y-56740008D01*
X85350989Y-56694253D01*
X85420147Y-56684309D01*
X85483703Y-56713334D01*
X85490181Y-56719366D01*
X85592786Y-56821971D01*
X85744535Y-56932221D01*
X85758390Y-56942287D01*
X85846517Y-56987190D01*
X85940776Y-57035218D01*
X85940778Y-57035218D01*
X85940781Y-57035220D01*
X86000393Y-57054589D01*
X86135465Y-57098477D01*
X86182654Y-57105951D01*
X86337648Y-57130500D01*
X86337649Y-57130500D01*
X86542351Y-57130500D01*
X86542352Y-57130500D01*
X86744534Y-57098477D01*
X86939219Y-57035220D01*
X87121610Y-56942287D01*
X87233428Y-56861047D01*
X87287213Y-56821971D01*
X87287215Y-56821968D01*
X87287219Y-56821966D01*
X87431966Y-56677219D01*
X87431968Y-56677215D01*
X87431971Y-56677213D01*
X87552284Y-56511614D01*
X87552283Y-56511614D01*
X87552287Y-56511610D01*
X87599516Y-56418917D01*
X87647489Y-56368123D01*
X87715310Y-56351328D01*
X87781445Y-56373865D01*
G37*
%TD.AperFunction*%
%TA.AperFunction,Conductor*%
G36*
X77886417Y-65842185D02*
G01*
X77932172Y-65894989D01*
X77937309Y-65908182D01*
X78002103Y-66107603D01*
X78002104Y-66107606D01*
X78070122Y-66241096D01*
X78097300Y-66294435D01*
X78102187Y-66304025D01*
X78231752Y-66482358D01*
X78231756Y-66482363D01*
X78281928Y-66532535D01*
X78315413Y-66593858D01*
X78310429Y-66663550D01*
X78268557Y-66719483D01*
X78237581Y-66736398D01*
X78157669Y-66766203D01*
X78157664Y-66766206D01*
X78042455Y-66852452D01*
X78042452Y-66852455D01*
X77956206Y-66967664D01*
X77956202Y-66967671D01*
X77905908Y-67102517D01*
X77899501Y-67162116D01*
X77899500Y-67162135D01*
X77899500Y-69057870D01*
X77899501Y-69057876D01*
X77906738Y-69125196D01*
X77905342Y-69125345D01*
X77902050Y-69186756D01*
X77861182Y-69243427D01*
X77796163Y-69269007D01*
X77785114Y-69269500D01*
X74339523Y-69269500D01*
X74272484Y-69249815D01*
X74226729Y-69197011D01*
X74216785Y-69127853D01*
X74245810Y-69064297D01*
X74251842Y-69057819D01*
X77450842Y-65858819D01*
X77512165Y-65825334D01*
X77538523Y-65822500D01*
X77819378Y-65822500D01*
X77886417Y-65842185D01*
G37*
%TD.AperFunction*%
%TA.AperFunction,Conductor*%
G36*
X84718751Y-56943253D02*
G01*
X84763368Y-56997022D01*
X84773500Y-57046114D01*
X84773500Y-64618048D01*
X84753815Y-64685087D01*
X84737181Y-64705729D01*
X80912180Y-68530730D01*
X80850857Y-68564215D01*
X80781165Y-68559231D01*
X80725232Y-68517359D01*
X80700815Y-68451895D01*
X80700499Y-68443049D01*
X80700499Y-67162129D01*
X80700499Y-67162128D01*
X80697566Y-67134846D01*
X80709972Y-67066088D01*
X80733172Y-67033915D01*
X81314059Y-66453030D01*
X81352500Y-66360225D01*
X81352500Y-66259775D01*
X81352500Y-58785950D01*
X81372185Y-58718911D01*
X81388814Y-58698274D01*
X83105937Y-56981150D01*
X83167258Y-56947667D01*
X83236950Y-56952651D01*
X83249911Y-56958348D01*
X83400776Y-57035218D01*
X83400778Y-57035218D01*
X83400781Y-57035220D01*
X83460393Y-57054589D01*
X83595465Y-57098477D01*
X83642654Y-57105951D01*
X83797648Y-57130500D01*
X83797649Y-57130500D01*
X84002351Y-57130500D01*
X84002352Y-57130500D01*
X84204534Y-57098477D01*
X84399219Y-57035220D01*
X84581610Y-56942287D01*
X84581626Y-56942274D01*
X84584702Y-56940391D01*
X84652147Y-56922142D01*
X84718751Y-56943253D01*
G37*
%TD.AperFunction*%
%TA.AperFunction,Conductor*%
G36*
X97803243Y-41121989D02*
G01*
X98081993Y-41136599D01*
X98089339Y-41137205D01*
X98147538Y-41143762D01*
X98152971Y-41144498D01*
X98398706Y-41183418D01*
X98406873Y-41184995D01*
X98458000Y-41196664D01*
X98462446Y-41197766D01*
X98709533Y-41263974D01*
X98718353Y-41266694D01*
X98756336Y-41279985D01*
X98759725Y-41281228D01*
X98850955Y-41316249D01*
X99010583Y-41377525D01*
X99019944Y-41381568D01*
X99035012Y-41388824D01*
X99037491Y-41390051D01*
X99293973Y-41520735D01*
X99305179Y-41527205D01*
X99557613Y-41691139D01*
X99568104Y-41698761D01*
X99801998Y-41888166D01*
X99811643Y-41896851D01*
X100024465Y-42109674D01*
X100033133Y-42119300D01*
X100222552Y-42353216D01*
X100230174Y-42363707D01*
X100394093Y-42616121D01*
X100400583Y-42627362D01*
X100531226Y-42883768D01*
X100532461Y-42886260D01*
X100539742Y-42901379D01*
X100543786Y-42910744D01*
X100640052Y-43161531D01*
X100641330Y-43165013D01*
X100654604Y-43202948D01*
X100657337Y-43211810D01*
X100723527Y-43458836D01*
X100724643Y-43463337D01*
X100736302Y-43514419D01*
X100737885Y-43522614D01*
X100776799Y-43768323D01*
X100777545Y-43773838D01*
X100784093Y-43831959D01*
X100784703Y-43839351D01*
X100799330Y-44118454D01*
X100799500Y-44124944D01*
X100799500Y-80696753D01*
X100799330Y-80703244D01*
X100784814Y-80980182D01*
X100784204Y-80987574D01*
X100777187Y-81049856D01*
X100776440Y-81055371D01*
X100738150Y-81297126D01*
X100736569Y-81305319D01*
X100723923Y-81360729D01*
X100722806Y-81365232D01*
X100657719Y-81608138D01*
X100654985Y-81616999D01*
X100640068Y-81659629D01*
X100638791Y-81663111D01*
X100544268Y-81909355D01*
X100540223Y-81918721D01*
X100530309Y-81939307D01*
X100529075Y-81941799D01*
X100400591Y-82193964D01*
X100394105Y-82205197D01*
X100360197Y-82257412D01*
X100230187Y-82457609D01*
X100222558Y-82468109D01*
X100033149Y-82702010D01*
X100024464Y-82711655D01*
X99811655Y-82924464D01*
X99802010Y-82933149D01*
X99568109Y-83122558D01*
X99557609Y-83130187D01*
X99305197Y-83294105D01*
X99293964Y-83300591D01*
X99041799Y-83429075D01*
X99039307Y-83430309D01*
X99018721Y-83440223D01*
X99009355Y-83444268D01*
X98763111Y-83538791D01*
X98759629Y-83540068D01*
X98716999Y-83554985D01*
X98708138Y-83557719D01*
X98465232Y-83622806D01*
X98460729Y-83623923D01*
X98405319Y-83636569D01*
X98397126Y-83638150D01*
X98155371Y-83676440D01*
X98149856Y-83677187D01*
X98087574Y-83684204D01*
X98080182Y-83684814D01*
X97803244Y-83699330D01*
X97796753Y-83699500D01*
X69894246Y-83699500D01*
X69887757Y-83699330D01*
X69877676Y-83698801D01*
X69610816Y-83684814D01*
X69603424Y-83684204D01*
X69541142Y-83677187D01*
X69535627Y-83676440D01*
X69293872Y-83638150D01*
X69285679Y-83636569D01*
X69257044Y-83630033D01*
X69230245Y-83623917D01*
X69225766Y-83622806D01*
X68982860Y-83557719D01*
X68973999Y-83554985D01*
X68931369Y-83540068D01*
X68927887Y-83538791D01*
X68681643Y-83444268D01*
X68672277Y-83440223D01*
X68651691Y-83430309D01*
X68649199Y-83429075D01*
X68397036Y-83300591D01*
X68385796Y-83294101D01*
X68133391Y-83130187D01*
X68122890Y-83122558D01*
X67888989Y-82933149D01*
X67879344Y-82924464D01*
X67666535Y-82711655D01*
X67657850Y-82702010D01*
X67590461Y-82618792D01*
X67468441Y-82468109D01*
X67460812Y-82457608D01*
X67453804Y-82446816D01*
X67296896Y-82205199D01*
X67290408Y-82193963D01*
X67161900Y-81941754D01*
X67160689Y-81939307D01*
X67150775Y-81918721D01*
X67146739Y-81909378D01*
X67052195Y-81663079D01*
X67050930Y-81659629D01*
X67036013Y-81616999D01*
X67033284Y-81608157D01*
X66968179Y-81365181D01*
X66967100Y-81360830D01*
X66954423Y-81305289D01*
X66952848Y-81297126D01*
X66943642Y-81239000D01*
X66914555Y-81055353D01*
X66913811Y-81049856D01*
X66913724Y-81049087D01*
X66906794Y-80987574D01*
X66906184Y-80980181D01*
X66891670Y-80703243D01*
X66891500Y-80696753D01*
X66891500Y-50684773D01*
X67747500Y-50684773D01*
X67747500Y-68800226D01*
X67785941Y-68893030D01*
X68897611Y-70004700D01*
X68931096Y-70066023D01*
X68926112Y-70135715D01*
X68924492Y-70139832D01*
X68889220Y-70224989D01*
X68884105Y-70237337D01*
X68884103Y-70237341D01*
X68849500Y-70411304D01*
X68849500Y-70588695D01*
X68884103Y-70762658D01*
X68884106Y-70762667D01*
X68951983Y-70926540D01*
X68951990Y-70926553D01*
X69050535Y-71074034D01*
X69050538Y-71074038D01*
X69175961Y-71199461D01*
X69175965Y-71199464D01*
X69323446Y-71298009D01*
X69323459Y-71298016D01*
X69446363Y-71348923D01*
X69487334Y-71365894D01*
X69487336Y-71365894D01*
X69487341Y-71365896D01*
X69661304Y-71400499D01*
X69661307Y-71400500D01*
X69661309Y-71400500D01*
X69838693Y-71400500D01*
X69838694Y-71400499D01*
X69896682Y-71388964D01*
X70012658Y-71365896D01*
X70012661Y-71365894D01*
X70012666Y-71365894D01*
X70176547Y-71298013D01*
X70324035Y-71199464D01*
X70449464Y-71074035D01*
X70548013Y-70926547D01*
X70615894Y-70762666D01*
X70622132Y-70731309D01*
X70650499Y-70588695D01*
X70650500Y-70588693D01*
X70650500Y-70411306D01*
X70650499Y-70411304D01*
X70615896Y-70237341D01*
X70615893Y-70237332D01*
X70610780Y-70224989D01*
X70575508Y-70139832D01*
X70548016Y-70073459D01*
X70548009Y-70073446D01*
X70449464Y-69925965D01*
X70449461Y-69925961D01*
X70324038Y-69800538D01*
X70324034Y-69800535D01*
X70229848Y-69737601D01*
X70185043Y-69683988D01*
X70176336Y-69614663D01*
X70206491Y-69551636D01*
X70265934Y-69514917D01*
X70298735Y-69510499D01*
X71247872Y-69510499D01*
X71307483Y-69504091D01*
X71380169Y-69476980D01*
X71449858Y-69471997D01*
X71511181Y-69505481D01*
X71544666Y-69566804D01*
X71547500Y-69593163D01*
X71547500Y-69844049D01*
X71527815Y-69911088D01*
X71511181Y-69931730D01*
X70995942Y-70446968D01*
X70995941Y-70446969D01*
X70957500Y-70539773D01*
X70957500Y-76884048D01*
X70937815Y-76951087D01*
X70921181Y-76971729D01*
X69245298Y-78647611D01*
X69183975Y-78681096D01*
X69114283Y-78676112D01*
X69110165Y-78674491D01*
X69012667Y-78634106D01*
X69012658Y-78634103D01*
X68838694Y-78599500D01*
X68838691Y-78599500D01*
X68661309Y-78599500D01*
X68661306Y-78599500D01*
X68487341Y-78634103D01*
X68487332Y-78634106D01*
X68323459Y-78701983D01*
X68323446Y-78701990D01*
X68175965Y-78800535D01*
X68175961Y-78800538D01*
X68050538Y-78925961D01*
X68050535Y-78925965D01*
X67951990Y-79073446D01*
X67951983Y-79073459D01*
X67884106Y-79237332D01*
X67884103Y-79237341D01*
X67849500Y-79411304D01*
X67849500Y-79588695D01*
X67884103Y-79762658D01*
X67884106Y-79762667D01*
X67951983Y-79926540D01*
X67951990Y-79926553D01*
X68050535Y-80074034D01*
X68050538Y-80074038D01*
X68175961Y-80199461D01*
X68175965Y-80199464D01*
X68323446Y-80298009D01*
X68323459Y-80298016D01*
X68405935Y-80332178D01*
X68487334Y-80365894D01*
X68487336Y-80365894D01*
X68487341Y-80365896D01*
X68661304Y-80400499D01*
X68661307Y-80400500D01*
X68661309Y-80400500D01*
X68838693Y-80400500D01*
X68838694Y-80400499D01*
X68933084Y-80381724D01*
X69012658Y-80365896D01*
X69012661Y-80365894D01*
X69012666Y-80365894D01*
X69176547Y-80298013D01*
X69290242Y-80222044D01*
X69306109Y-80211442D01*
X69372786Y-80190564D01*
X69440166Y-80209048D01*
X69443891Y-80211442D01*
X69534407Y-80271923D01*
X69573453Y-80298013D01*
X69573455Y-80298014D01*
X69573459Y-80298016D01*
X69655935Y-80332178D01*
X69737334Y-80365894D01*
X69737336Y-80365894D01*
X69737341Y-80365896D01*
X69911304Y-80400499D01*
X69911307Y-80400500D01*
X69911309Y-80400500D01*
X70088693Y-80400500D01*
X70088694Y-80400499D01*
X70183084Y-80381724D01*
X70262658Y-80365896D01*
X70262661Y-80365894D01*
X70262666Y-80365894D01*
X70426547Y-80298013D01*
X70540242Y-80222044D01*
X70556109Y-80211442D01*
X70622786Y-80190564D01*
X70690166Y-80209048D01*
X70693891Y-80211442D01*
X70784407Y-80271923D01*
X70823453Y-80298013D01*
X70823455Y-80298014D01*
X70823459Y-80298016D01*
X70905935Y-80332178D01*
X70987334Y-80365894D01*
X70987336Y-80365894D01*
X70987341Y-80365896D01*
X71161304Y-80400499D01*
X71161307Y-80400500D01*
X71161309Y-80400500D01*
X71338693Y-80400500D01*
X71338694Y-80400499D01*
X71433084Y-80381724D01*
X71512658Y-80365896D01*
X71512661Y-80365894D01*
X71512666Y-80365894D01*
X71676547Y-80298013D01*
X71790242Y-80222044D01*
X71806109Y-80211442D01*
X71872786Y-80190564D01*
X71940166Y-80209048D01*
X71943891Y-80211442D01*
X72034407Y-80271923D01*
X72073453Y-80298013D01*
X72073455Y-80298014D01*
X72073459Y-80298016D01*
X72155935Y-80332178D01*
X72237334Y-80365894D01*
X72237336Y-80365894D01*
X72237341Y-80365896D01*
X72411304Y-80400499D01*
X72411307Y-80400500D01*
X72411309Y-80400500D01*
X72588693Y-80400500D01*
X72588694Y-80400499D01*
X72683084Y-80381724D01*
X72762658Y-80365896D01*
X72762661Y-80365894D01*
X72762666Y-80365894D01*
X72926547Y-80298013D01*
X73040242Y-80222044D01*
X73056109Y-80211442D01*
X73122786Y-80190564D01*
X73190166Y-80209048D01*
X73193891Y-80211442D01*
X73284407Y-80271923D01*
X73323453Y-80298013D01*
X73323455Y-80298014D01*
X73323459Y-80298016D01*
X73405935Y-80332178D01*
X73487334Y-80365894D01*
X73487336Y-80365894D01*
X73487341Y-80365896D01*
X73661304Y-80400499D01*
X73661307Y-80400500D01*
X73661309Y-80400500D01*
X73838693Y-80400500D01*
X73838694Y-80400499D01*
X73933084Y-80381724D01*
X74012658Y-80365896D01*
X74012660Y-80365895D01*
X74012666Y-80365894D01*
X74038050Y-80355379D01*
X74107516Y-80347911D01*
X74169995Y-80379186D01*
X74205648Y-80439274D01*
X74209500Y-80469941D01*
X74209500Y-80982048D01*
X74189815Y-81049087D01*
X74173181Y-81069729D01*
X73795298Y-81447611D01*
X73733975Y-81481096D01*
X73664283Y-81476112D01*
X73660165Y-81474491D01*
X73562667Y-81434106D01*
X73562658Y-81434103D01*
X73388694Y-81399500D01*
X73388691Y-81399500D01*
X73211309Y-81399500D01*
X73211306Y-81399500D01*
X73037341Y-81434103D01*
X73037332Y-81434106D01*
X72873459Y-81501983D01*
X72873446Y-81501990D01*
X72725965Y-81600535D01*
X72725961Y-81600538D01*
X72600538Y-81725961D01*
X72600535Y-81725965D01*
X72501990Y-81873446D01*
X72501983Y-81873459D01*
X72434106Y-82037332D01*
X72434103Y-82037341D01*
X72399500Y-82211304D01*
X72399500Y-82388695D01*
X72434103Y-82562658D01*
X72434106Y-82562667D01*
X72501983Y-82726540D01*
X72501990Y-82726553D01*
X72600535Y-82874034D01*
X72600538Y-82874038D01*
X72725961Y-82999461D01*
X72725965Y-82999464D01*
X72873446Y-83098009D01*
X72873459Y-83098016D01*
X72996363Y-83148923D01*
X73037334Y-83165894D01*
X73037336Y-83165894D01*
X73037341Y-83165896D01*
X73211304Y-83200499D01*
X73211307Y-83200500D01*
X73211309Y-83200500D01*
X73388693Y-83200500D01*
X73388694Y-83200499D01*
X73446682Y-83188964D01*
X73562658Y-83165896D01*
X73562661Y-83165894D01*
X73562666Y-83165894D01*
X73726547Y-83098013D01*
X73874035Y-82999464D01*
X73999464Y-82874035D01*
X74098013Y-82726547D01*
X74165894Y-82562666D01*
X74174218Y-82520822D01*
X74200499Y-82388695D01*
X74200500Y-82388693D01*
X74200500Y-82211306D01*
X74200499Y-82211304D01*
X74165896Y-82037341D01*
X74165893Y-82037332D01*
X74125508Y-81939832D01*
X74118039Y-81870363D01*
X74149315Y-81807884D01*
X74152357Y-81804730D01*
X74375820Y-81581268D01*
X74437142Y-81547784D01*
X74506834Y-81552768D01*
X74562767Y-81594640D01*
X74587184Y-81660104D01*
X74587500Y-81668950D01*
X74587500Y-82660226D01*
X74614971Y-82726547D01*
X74625941Y-82753030D01*
X75126970Y-83254059D01*
X75219775Y-83292500D01*
X75219777Y-83292500D01*
X80009223Y-83292500D01*
X80009225Y-83292500D01*
X80102030Y-83254059D01*
X80428764Y-82927323D01*
X80490084Y-82893841D01*
X80559775Y-82898825D01*
X80572733Y-82904521D01*
X80611873Y-82924464D01*
X80741579Y-82990553D01*
X80741580Y-82990554D01*
X80741585Y-82990555D01*
X80741588Y-82990557D01*
X80943757Y-83056246D01*
X81153713Y-83089500D01*
X81153714Y-83089500D01*
X81366286Y-83089500D01*
X81366287Y-83089500D01*
X81576243Y-83056246D01*
X81778412Y-82990557D01*
X81947264Y-82904522D01*
X82015931Y-82891627D01*
X82080671Y-82917903D01*
X82091237Y-82927326D01*
X82346941Y-83183030D01*
X82417970Y-83254059D01*
X82510775Y-83292500D01*
X82510777Y-83292500D01*
X86752339Y-83292500D01*
X86752341Y-83292500D01*
X86845146Y-83254059D01*
X87591753Y-82507450D01*
X87653076Y-82473966D01*
X87722767Y-82478950D01*
X87778701Y-82520822D01*
X87779717Y-82522199D01*
X87849892Y-82618786D01*
X87849896Y-82618792D01*
X88000213Y-82769109D01*
X88172179Y-82894048D01*
X88172181Y-82894049D01*
X88172184Y-82894051D01*
X88361588Y-82990557D01*
X88563757Y-83056246D01*
X88773713Y-83089500D01*
X88773714Y-83089500D01*
X88986286Y-83089500D01*
X88986287Y-83089500D01*
X89196243Y-83056246D01*
X89398412Y-82990557D01*
X89587816Y-82894051D01*
X89683427Y-82824586D01*
X89759786Y-82769109D01*
X89759788Y-82769106D01*
X89759792Y-82769104D01*
X89910104Y-82618792D01*
X89910106Y-82618788D01*
X89910109Y-82618786D01*
X89995890Y-82500717D01*
X90035051Y-82446816D01*
X90039793Y-82437508D01*
X90087763Y-82386711D01*
X90155583Y-82369911D01*
X90221719Y-82392445D01*
X90260763Y-82437500D01*
X90265373Y-82446547D01*
X90304728Y-82500716D01*
X90937037Y-81868408D01*
X90954075Y-81931993D01*
X91019901Y-82046007D01*
X91112993Y-82139099D01*
X91227007Y-82204925D01*
X91290590Y-82221962D01*
X90658282Y-82854269D01*
X90658282Y-82854270D01*
X90712449Y-82893624D01*
X90901782Y-82990095D01*
X91103870Y-83055757D01*
X91313754Y-83089000D01*
X91526246Y-83089000D01*
X91736127Y-83055757D01*
X91736130Y-83055757D01*
X91938217Y-82990095D01*
X92127554Y-82893622D01*
X92181716Y-82854270D01*
X92181717Y-82854270D01*
X91549408Y-82221962D01*
X91612993Y-82204925D01*
X91727007Y-82139099D01*
X91820099Y-82046007D01*
X91885925Y-81931993D01*
X91902962Y-81868408D01*
X92535270Y-82500717D01*
X92535270Y-82500716D01*
X92574622Y-82446554D01*
X92671095Y-82257217D01*
X92736757Y-82055130D01*
X92736757Y-82055127D01*
X92770000Y-81845246D01*
X92770000Y-81632753D01*
X92736757Y-81422872D01*
X92736757Y-81422869D01*
X92671095Y-81220782D01*
X92574624Y-81031449D01*
X92535270Y-80977282D01*
X92535269Y-80977282D01*
X91902962Y-81609590D01*
X91885925Y-81546007D01*
X91820099Y-81431993D01*
X91727007Y-81338901D01*
X91612993Y-81273075D01*
X91549409Y-81256037D01*
X92181716Y-80623728D01*
X92127550Y-80584375D01*
X91938217Y-80487904D01*
X91736129Y-80422242D01*
X91526246Y-80389000D01*
X91313754Y-80389000D01*
X91103872Y-80422242D01*
X91103869Y-80422242D01*
X90901782Y-80487904D01*
X90712439Y-80584380D01*
X90658282Y-80623727D01*
X90658282Y-80623728D01*
X91290591Y-81256037D01*
X91227007Y-81273075D01*
X91112993Y-81338901D01*
X91019901Y-81431993D01*
X90954075Y-81546007D01*
X90937037Y-81609591D01*
X90304728Y-80977282D01*
X90304727Y-80977282D01*
X90265380Y-81031440D01*
X90265376Y-81031446D01*
X90260760Y-81040505D01*
X90212781Y-81091297D01*
X90144959Y-81108087D01*
X90078826Y-81085543D01*
X90039794Y-81040493D01*
X90035051Y-81031184D01*
X90035049Y-81031181D01*
X90035048Y-81031179D01*
X89910109Y-80859213D01*
X89759786Y-80708890D01*
X89587820Y-80583951D01*
X89398414Y-80487444D01*
X89398413Y-80487443D01*
X89398412Y-80487443D01*
X89296689Y-80454391D01*
X89196241Y-80421753D01*
X89159577Y-80415946D01*
X89096443Y-80386015D01*
X89059512Y-80326703D01*
X89060512Y-80256840D01*
X89091294Y-80205794D01*
X89603771Y-79693318D01*
X89665094Y-79659833D01*
X89734786Y-79664817D01*
X89779133Y-79693318D01*
X89882786Y-79796971D01*
X90003226Y-79884474D01*
X90048390Y-79917287D01*
X90147557Y-79967815D01*
X90230776Y-80010218D01*
X90230778Y-80010218D01*
X90230781Y-80010220D01*
X90321856Y-80039812D01*
X90425465Y-80073477D01*
X90526557Y-80089488D01*
X90627648Y-80105500D01*
X90627649Y-80105500D01*
X90832351Y-80105500D01*
X90832352Y-80105500D01*
X91034534Y-80073477D01*
X91229219Y-80010220D01*
X91411610Y-79917287D01*
X91540482Y-79823657D01*
X91577213Y-79796971D01*
X91577215Y-79796968D01*
X91577219Y-79796966D01*
X91721966Y-79652219D01*
X91721968Y-79652215D01*
X91721971Y-79652213D01*
X91842284Y-79486614D01*
X91842286Y-79486611D01*
X91842287Y-79486610D01*
X91889516Y-79393917D01*
X91937489Y-79343123D01*
X92005310Y-79326328D01*
X92071445Y-79348865D01*
X92110483Y-79393917D01*
X92154348Y-79480006D01*
X92157715Y-79486614D01*
X92278028Y-79652213D01*
X92422786Y-79796971D01*
X92543226Y-79884474D01*
X92588390Y-79917287D01*
X92687557Y-79967815D01*
X92770776Y-80010218D01*
X92770778Y-80010218D01*
X92770781Y-80010220D01*
X92861856Y-80039812D01*
X92965465Y-80073477D01*
X93066557Y-80089488D01*
X93167648Y-80105500D01*
X93167649Y-80105500D01*
X93372351Y-80105500D01*
X93372352Y-80105500D01*
X93574534Y-80073477D01*
X93769219Y-80010220D01*
X93951610Y-79917287D01*
X94080482Y-79823657D01*
X94117213Y-79796971D01*
X94117215Y-79796968D01*
X94117219Y-79796966D01*
X94261966Y-79652219D01*
X94261968Y-79652215D01*
X94261971Y-79652213D01*
X94382284Y-79486614D01*
X94382286Y-79486611D01*
X94382287Y-79486610D01*
X94429516Y-79393917D01*
X94477489Y-79343123D01*
X94545310Y-79326328D01*
X94611445Y-79348865D01*
X94650483Y-79393917D01*
X94694348Y-79480006D01*
X94697715Y-79486614D01*
X94818028Y-79652213D01*
X94962786Y-79796971D01*
X95083226Y-79884474D01*
X95128390Y-79917287D01*
X95227557Y-79967815D01*
X95310776Y-80010218D01*
X95310778Y-80010218D01*
X95310781Y-80010220D01*
X95401856Y-80039812D01*
X95505465Y-80073477D01*
X95606557Y-80089488D01*
X95707648Y-80105500D01*
X95707649Y-80105500D01*
X95912351Y-80105500D01*
X95912352Y-80105500D01*
X96114534Y-80073477D01*
X96309219Y-80010220D01*
X96491610Y-79917287D01*
X96620482Y-79823657D01*
X96657213Y-79796971D01*
X96657215Y-79796968D01*
X96657219Y-79796966D01*
X96801966Y-79652219D01*
X96801968Y-79652215D01*
X96801971Y-79652213D01*
X96906894Y-79507797D01*
X96922287Y-79486610D01*
X96969795Y-79393369D01*
X97017769Y-79342573D01*
X97085590Y-79325778D01*
X97151725Y-79348315D01*
X97190765Y-79393369D01*
X97238141Y-79486350D01*
X97238147Y-79486359D01*
X97270523Y-79530921D01*
X97270524Y-79530922D01*
X97950000Y-78851446D01*
X97950000Y-78857661D01*
X97977259Y-78959394D01*
X98029920Y-79050606D01*
X98104394Y-79125080D01*
X98195606Y-79177741D01*
X98297339Y-79205000D01*
X98303553Y-79205000D01*
X97624076Y-79884474D01*
X97668650Y-79916859D01*
X97850968Y-80009755D01*
X98045582Y-80072990D01*
X98247683Y-80105000D01*
X98452317Y-80105000D01*
X98654417Y-80072990D01*
X98849031Y-80009755D01*
X99031349Y-79916859D01*
X99075921Y-79884474D01*
X98396447Y-79205000D01*
X98402661Y-79205000D01*
X98504394Y-79177741D01*
X98595606Y-79125080D01*
X98670080Y-79050606D01*
X98722741Y-78959394D01*
X98750000Y-78857661D01*
X98750000Y-78851447D01*
X99429474Y-79530921D01*
X99461859Y-79486349D01*
X99554755Y-79304031D01*
X99617990Y-79109417D01*
X99650000Y-78907317D01*
X99650000Y-78702682D01*
X99617990Y-78500582D01*
X99554755Y-78305968D01*
X99461859Y-78123650D01*
X99429474Y-78079077D01*
X99429474Y-78079076D01*
X98750000Y-78758551D01*
X98750000Y-78752339D01*
X98722741Y-78650606D01*
X98670080Y-78559394D01*
X98595606Y-78484920D01*
X98504394Y-78432259D01*
X98402661Y-78405000D01*
X98396446Y-78405000D01*
X99075922Y-77725524D01*
X99075921Y-77725523D01*
X99031359Y-77693147D01*
X99031350Y-77693141D01*
X98849031Y-77600244D01*
X98654417Y-77537009D01*
X98452317Y-77505000D01*
X98247683Y-77505000D01*
X98045582Y-77537009D01*
X97850968Y-77600244D01*
X97668644Y-77693143D01*
X97624077Y-77725523D01*
X97624077Y-77725524D01*
X98303554Y-78405000D01*
X98297339Y-78405000D01*
X98195606Y-78432259D01*
X98104394Y-78484920D01*
X98029920Y-78559394D01*
X97977259Y-78650606D01*
X97950000Y-78752339D01*
X97950000Y-78758553D01*
X97270524Y-78079077D01*
X97270523Y-78079077D01*
X97238143Y-78123644D01*
X97190765Y-78216630D01*
X97142790Y-78267426D01*
X97074969Y-78284221D01*
X97008834Y-78261683D01*
X96969795Y-78216630D01*
X96922284Y-78123385D01*
X96801971Y-77957786D01*
X96657213Y-77813028D01*
X96491613Y-77692715D01*
X96491612Y-77692714D01*
X96491610Y-77692713D01*
X96309219Y-77599780D01*
X96148181Y-77547455D01*
X96090506Y-77508018D01*
X96063308Y-77443660D01*
X96062500Y-77429525D01*
X96062500Y-77152959D01*
X96082185Y-77085920D01*
X96134989Y-77040165D01*
X96139048Y-77038398D01*
X96236541Y-76998016D01*
X96236544Y-76998014D01*
X96236547Y-76998013D01*
X96384035Y-76899464D01*
X96509464Y-76774035D01*
X96608013Y-76626547D01*
X96675894Y-76462666D01*
X96682345Y-76430238D01*
X96710499Y-76288695D01*
X96710500Y-76288693D01*
X96710500Y-76111306D01*
X96710499Y-76111304D01*
X96675896Y-75937341D01*
X96675893Y-75937332D01*
X96635508Y-75839832D01*
X96628039Y-75770363D01*
X96659315Y-75707884D01*
X96662357Y-75704730D01*
X97150059Y-75217030D01*
X97188500Y-75124225D01*
X97188500Y-75023775D01*
X97188500Y-72162047D01*
X97208185Y-72095008D01*
X97260989Y-72049253D01*
X97330147Y-72039309D01*
X97393703Y-72068334D01*
X97400181Y-72074366D01*
X97502786Y-72176971D01*
X97657749Y-72289556D01*
X97668390Y-72297287D01*
X97736748Y-72332117D01*
X97850776Y-72390218D01*
X97850778Y-72390218D01*
X97850781Y-72390220D01*
X97955137Y-72424127D01*
X98045465Y-72453477D01*
X98146557Y-72469488D01*
X98247648Y-72485500D01*
X98247649Y-72485500D01*
X98452351Y-72485500D01*
X98452352Y-72485500D01*
X98654534Y-72453477D01*
X98849219Y-72390220D01*
X99031610Y-72297287D01*
X99136692Y-72220941D01*
X99197213Y-72176971D01*
X99197215Y-72176968D01*
X99197219Y-72176966D01*
X99341966Y-72032219D01*
X99341968Y-72032215D01*
X99341971Y-72032213D01*
X99417489Y-71928269D01*
X99462287Y-71866610D01*
X99555220Y-71684219D01*
X99618477Y-71489534D01*
X99650500Y-71287352D01*
X99650500Y-71082648D01*
X99642257Y-71030606D01*
X99618477Y-70880465D01*
X99555218Y-70685776D01*
X99521503Y-70619607D01*
X99462287Y-70503390D01*
X99454556Y-70492749D01*
X99341971Y-70337786D01*
X99197213Y-70193028D01*
X99031613Y-70072715D01*
X99031612Y-70072714D01*
X99031610Y-70072713D01*
X98959408Y-70035924D01*
X98849223Y-69979781D01*
X98654534Y-69916522D01*
X98479995Y-69888878D01*
X98452352Y-69884500D01*
X98247648Y-69884500D01*
X98223329Y-69888351D01*
X98045465Y-69916522D01*
X97850776Y-69979781D01*
X97668386Y-70072715D01*
X97502786Y-70193028D01*
X97358032Y-70337782D01*
X97255792Y-70478504D01*
X97200462Y-70521169D01*
X97130849Y-70527148D01*
X97069054Y-70494542D01*
X97067793Y-70493299D01*
X96296674Y-69722180D01*
X96263189Y-69660857D01*
X96268173Y-69591165D01*
X96310045Y-69535232D01*
X96375509Y-69510815D01*
X96384327Y-69510499D01*
X98247872Y-69510499D01*
X98307483Y-69504091D01*
X98442331Y-69453796D01*
X98557546Y-69367546D01*
X98643796Y-69252331D01*
X98694091Y-69117483D01*
X98700500Y-69057873D01*
X98700499Y-67162128D01*
X98697566Y-67134846D01*
X98709972Y-67066088D01*
X98733172Y-67033915D01*
X99214059Y-66553030D01*
X99252500Y-66460225D01*
X99252500Y-66359775D01*
X99252500Y-60719775D01*
X99214059Y-60626970D01*
X99143030Y-60555941D01*
X95211151Y-56624062D01*
X95177667Y-56562740D01*
X95182651Y-56493048D01*
X95188343Y-56480098D01*
X95265220Y-56329219D01*
X95328477Y-56134534D01*
X95360500Y-55932352D01*
X95360500Y-55727648D01*
X95352257Y-55675606D01*
X95328477Y-55525465D01*
X95265218Y-55330776D01*
X95226236Y-55254270D01*
X95172287Y-55148390D01*
X95164556Y-55137749D01*
X95051971Y-54982786D01*
X94907213Y-54838028D01*
X94741613Y-54717715D01*
X94741612Y-54717714D01*
X94741610Y-54717713D01*
X94653487Y-54672812D01*
X94559223Y-54624781D01*
X94364534Y-54561522D01*
X94189995Y-54533878D01*
X94162352Y-54529500D01*
X93957648Y-54529500D01*
X93933329Y-54533351D01*
X93755465Y-54561522D01*
X93560776Y-54624781D01*
X93378384Y-54717715D01*
X93375287Y-54719614D01*
X93307841Y-54737856D01*
X93241239Y-54716739D01*
X93196627Y-54662966D01*
X93186500Y-54613885D01*
X93186500Y-52956950D01*
X93206185Y-52889911D01*
X93222814Y-52869274D01*
X95697821Y-50394266D01*
X95759142Y-50360783D01*
X95828834Y-50365767D01*
X95884767Y-50407639D01*
X95909184Y-50473103D01*
X95909500Y-50481949D01*
X95909500Y-51912870D01*
X95909501Y-51912876D01*
X95915908Y-51972483D01*
X95966202Y-52107328D01*
X95966206Y-52107335D01*
X96052452Y-52222544D01*
X96052455Y-52222547D01*
X96167664Y-52308793D01*
X96167671Y-52308797D01*
X96302517Y-52359091D01*
X96302516Y-52359091D01*
X96309444Y-52359835D01*
X96362127Y-52365500D01*
X98257872Y-52365499D01*
X98317483Y-52359091D01*
X98452331Y-52308796D01*
X98567546Y-52222546D01*
X98653796Y-52107331D01*
X98704091Y-51972483D01*
X98710500Y-51912873D01*
X98710499Y-50017128D01*
X98704091Y-49957517D01*
X98653796Y-49822669D01*
X98653795Y-49822668D01*
X98653793Y-49822664D01*
X98567547Y-49707455D01*
X98567544Y-49707452D01*
X98452335Y-49621206D01*
X98452328Y-49621202D01*
X98372419Y-49591398D01*
X98316485Y-49549527D01*
X98292068Y-49484062D01*
X98306920Y-49415789D01*
X98328069Y-49387537D01*
X98378242Y-49337365D01*
X98507815Y-49159022D01*
X98607895Y-48962606D01*
X98676015Y-48752951D01*
X98710500Y-48535222D01*
X98710500Y-48314778D01*
X98676015Y-48097049D01*
X98607895Y-47887394D01*
X98607895Y-47887393D01*
X98573237Y-47819375D01*
X98507815Y-47690978D01*
X98491260Y-47668192D01*
X98378247Y-47512641D01*
X98378243Y-47512636D01*
X98222363Y-47356756D01*
X98222358Y-47356752D01*
X98044025Y-47227187D01*
X98044024Y-47227186D01*
X98044022Y-47227185D01*
X97981096Y-47195122D01*
X97847606Y-47127104D01*
X97847603Y-47127103D01*
X97637952Y-47058985D01*
X97529086Y-47041742D01*
X97420222Y-47024500D01*
X97199778Y-47024500D01*
X97127201Y-47035995D01*
X96982047Y-47058985D01*
X96772396Y-47127103D01*
X96772393Y-47127104D01*
X96575974Y-47227187D01*
X96397641Y-47356752D01*
X96397636Y-47356756D01*
X96241756Y-47512636D01*
X96241752Y-47512641D01*
X96112187Y-47690974D01*
X96012104Y-47887393D01*
X96012103Y-47887396D01*
X95943985Y-48097047D01*
X95909500Y-48314778D01*
X95909500Y-48535221D01*
X95943985Y-48752952D01*
X96012103Y-48962603D01*
X96012106Y-48962611D01*
X96107300Y-49149435D01*
X96120197Y-49218105D01*
X96093921Y-49282845D01*
X96084497Y-49293412D01*
X92790970Y-52586941D01*
X92719942Y-52657968D01*
X92719941Y-52657969D01*
X92681500Y-52750773D01*
X92681500Y-54852953D01*
X92661815Y-54919992D01*
X92609011Y-54965747D01*
X92539853Y-54975691D01*
X92476297Y-54946666D01*
X92469819Y-54940634D01*
X92367213Y-54838028D01*
X92201613Y-54717715D01*
X92201612Y-54717714D01*
X92201610Y-54717713D01*
X92113487Y-54672812D01*
X92019223Y-54624781D01*
X91824534Y-54561522D01*
X91649995Y-54533878D01*
X91622352Y-54529500D01*
X91417648Y-54529500D01*
X91393329Y-54533351D01*
X91215465Y-54561522D01*
X91020776Y-54624781D01*
X90838386Y-54717715D01*
X90672786Y-54838028D01*
X90528028Y-54982786D01*
X90407715Y-55148386D01*
X90360485Y-55241080D01*
X90312510Y-55291876D01*
X90244689Y-55308671D01*
X90178554Y-55286134D01*
X90139515Y-55241080D01*
X90104392Y-55172148D01*
X90092287Y-55148390D01*
X90084556Y-55137749D01*
X89971971Y-54982786D01*
X89827213Y-54838028D01*
X89661613Y-54717715D01*
X89661612Y-54717714D01*
X89661610Y-54717713D01*
X89573487Y-54672812D01*
X89479223Y-54624781D01*
X89284534Y-54561522D01*
X89109995Y-54533878D01*
X89082352Y-54529500D01*
X88877648Y-54529500D01*
X88853329Y-54533351D01*
X88675465Y-54561522D01*
X88480776Y-54624781D01*
X88298386Y-54717715D01*
X88132786Y-54838028D01*
X87988028Y-54982786D01*
X87867715Y-55148386D01*
X87820485Y-55241080D01*
X87772510Y-55291876D01*
X87704689Y-55308671D01*
X87638554Y-55286134D01*
X87599515Y-55241080D01*
X87564392Y-55172148D01*
X87552287Y-55148390D01*
X87544556Y-55137749D01*
X87431971Y-54982786D01*
X87287213Y-54838028D01*
X87121613Y-54717715D01*
X87121612Y-54717714D01*
X87121610Y-54717713D01*
X87033487Y-54672812D01*
X86939223Y-54624781D01*
X86744534Y-54561522D01*
X86569995Y-54533878D01*
X86542352Y-54529500D01*
X86337648Y-54529500D01*
X86313329Y-54533351D01*
X86135465Y-54561522D01*
X85940776Y-54624781D01*
X85758386Y-54717715D01*
X85592786Y-54838028D01*
X85592782Y-54838032D01*
X85490181Y-54940634D01*
X85428858Y-54974119D01*
X85359166Y-54969135D01*
X85303233Y-54927263D01*
X85278816Y-54861799D01*
X85278500Y-54852953D01*
X85278500Y-51864950D01*
X85298185Y-51797911D01*
X85314814Y-51777274D01*
X86697821Y-50394266D01*
X86759142Y-50360783D01*
X86828834Y-50365767D01*
X86884767Y-50407639D01*
X86909184Y-50473103D01*
X86909500Y-50481949D01*
X86909500Y-51912870D01*
X86909501Y-51912876D01*
X86915908Y-51972483D01*
X86966202Y-52107328D01*
X86966206Y-52107335D01*
X87052452Y-52222544D01*
X87052455Y-52222547D01*
X87167664Y-52308793D01*
X87167671Y-52308797D01*
X87302517Y-52359091D01*
X87302516Y-52359091D01*
X87309444Y-52359835D01*
X87362127Y-52365500D01*
X89257872Y-52365499D01*
X89317483Y-52359091D01*
X89452331Y-52308796D01*
X89567546Y-52222546D01*
X89653796Y-52107331D01*
X89704091Y-51972483D01*
X89710500Y-51912873D01*
X89710499Y-50017128D01*
X89704091Y-49957517D01*
X89653796Y-49822669D01*
X89653795Y-49822668D01*
X89653793Y-49822664D01*
X89567547Y-49707455D01*
X89567544Y-49707452D01*
X89452335Y-49621206D01*
X89452328Y-49621202D01*
X89372419Y-49591398D01*
X89316485Y-49549527D01*
X89292068Y-49484062D01*
X89306920Y-49415789D01*
X89328069Y-49387537D01*
X89378242Y-49337365D01*
X89507815Y-49159022D01*
X89607895Y-48962606D01*
X89676015Y-48752951D01*
X89710500Y-48535222D01*
X89710500Y-48314778D01*
X89676015Y-48097049D01*
X89607895Y-47887394D01*
X89607895Y-47887393D01*
X89573237Y-47819375D01*
X89507815Y-47690978D01*
X89491260Y-47668192D01*
X89378247Y-47512641D01*
X89378243Y-47512636D01*
X89222363Y-47356756D01*
X89222358Y-47356752D01*
X89044025Y-47227187D01*
X89044024Y-47227186D01*
X89044022Y-47227185D01*
X88981096Y-47195122D01*
X88847606Y-47127104D01*
X88847603Y-47127103D01*
X88637952Y-47058985D01*
X88529086Y-47041742D01*
X88420222Y-47024500D01*
X88199778Y-47024500D01*
X88127201Y-47035995D01*
X87982047Y-47058985D01*
X87772396Y-47127103D01*
X87772393Y-47127104D01*
X87575974Y-47227187D01*
X87397641Y-47356752D01*
X87397636Y-47356756D01*
X87241756Y-47512636D01*
X87241752Y-47512641D01*
X87112187Y-47690974D01*
X87012104Y-47887393D01*
X87012103Y-47887396D01*
X86943985Y-48097047D01*
X86909500Y-48314778D01*
X86909500Y-48535221D01*
X86943985Y-48752952D01*
X87012103Y-48962603D01*
X87012106Y-48962611D01*
X87107300Y-49149435D01*
X87120197Y-49218105D01*
X87093921Y-49282845D01*
X87084497Y-49293412D01*
X84882970Y-51494941D01*
X84811942Y-51565968D01*
X84811941Y-51565969D01*
X84773500Y-51658773D01*
X84773500Y-54613885D01*
X84753815Y-54680924D01*
X84701011Y-54726679D01*
X84631853Y-54736623D01*
X84584713Y-54719614D01*
X84581615Y-54717715D01*
X84399223Y-54624781D01*
X84204534Y-54561522D01*
X84029995Y-54533878D01*
X84002352Y-54529500D01*
X83797648Y-54529500D01*
X83773329Y-54533351D01*
X83595465Y-54561522D01*
X83400776Y-54624781D01*
X83218386Y-54717715D01*
X83052786Y-54838028D01*
X82908028Y-54982786D01*
X82787715Y-55148386D01*
X82740485Y-55241080D01*
X82692510Y-55291876D01*
X82624689Y-55308671D01*
X82558554Y-55286134D01*
X82519515Y-55241080D01*
X82484392Y-55172148D01*
X82472287Y-55148390D01*
X82464556Y-55137749D01*
X82351971Y-54982786D01*
X82207213Y-54838028D01*
X82041613Y-54717715D01*
X82041612Y-54717714D01*
X82041610Y-54717713D01*
X81953487Y-54672812D01*
X81859223Y-54624781D01*
X81664534Y-54561522D01*
X81489995Y-54533878D01*
X81462352Y-54529500D01*
X81257648Y-54529500D01*
X81233329Y-54533351D01*
X81055465Y-54561522D01*
X80860776Y-54624781D01*
X80678386Y-54717715D01*
X80512786Y-54838028D01*
X80368032Y-54982782D01*
X80265792Y-55123504D01*
X80210462Y-55166169D01*
X80140849Y-55172148D01*
X80079054Y-55139542D01*
X80077793Y-55138299D01*
X78372819Y-53433325D01*
X78339334Y-53372002D01*
X78336500Y-53345644D01*
X78336500Y-52489499D01*
X78356185Y-52422460D01*
X78408989Y-52376705D01*
X78460495Y-52365499D01*
X80257872Y-52365499D01*
X80317483Y-52359091D01*
X80452331Y-52308796D01*
X80567546Y-52222546D01*
X80653796Y-52107331D01*
X80704091Y-51972483D01*
X80710500Y-51912873D01*
X80710499Y-50017128D01*
X80704091Y-49957517D01*
X80653796Y-49822669D01*
X80653795Y-49822668D01*
X80653793Y-49822664D01*
X80567547Y-49707455D01*
X80567544Y-49707452D01*
X80452335Y-49621206D01*
X80452328Y-49621202D01*
X80372419Y-49591398D01*
X80316485Y-49549527D01*
X80292068Y-49484062D01*
X80306920Y-49415789D01*
X80328069Y-49387537D01*
X80378242Y-49337365D01*
X80507815Y-49159022D01*
X80607895Y-48962606D01*
X80676015Y-48752951D01*
X80710500Y-48535222D01*
X80710500Y-48314778D01*
X80676015Y-48097049D01*
X80607895Y-47887394D01*
X80607895Y-47887393D01*
X80573237Y-47819375D01*
X80507815Y-47690978D01*
X80491260Y-47668192D01*
X80378247Y-47512641D01*
X80378243Y-47512636D01*
X80222363Y-47356756D01*
X80222358Y-47356752D01*
X80044025Y-47227187D01*
X80044024Y-47227186D01*
X80044022Y-47227185D01*
X79981096Y-47195122D01*
X79847606Y-47127104D01*
X79847603Y-47127103D01*
X79637952Y-47058985D01*
X79529086Y-47041742D01*
X79420222Y-47024500D01*
X79199778Y-47024500D01*
X79127201Y-47035995D01*
X78982047Y-47058985D01*
X78772396Y-47127103D01*
X78772393Y-47127104D01*
X78575974Y-47227187D01*
X78397641Y-47356752D01*
X78397636Y-47356756D01*
X78241756Y-47512636D01*
X78241752Y-47512641D01*
X78112187Y-47690974D01*
X78012104Y-47887393D01*
X78012103Y-47887396D01*
X77943985Y-48097047D01*
X77909500Y-48314778D01*
X77909500Y-48535221D01*
X77943985Y-48752952D01*
X78012103Y-48962603D01*
X78012104Y-48962606D01*
X78107301Y-49149437D01*
X78111863Y-49173729D01*
X78120500Y-49196886D01*
X78118198Y-49207465D01*
X78120197Y-49218106D01*
X78110901Y-49241008D01*
X78105648Y-49265158D01*
X78095713Y-49278430D01*
X78093921Y-49282846D01*
X78084503Y-49293406D01*
X77940970Y-49436941D01*
X77940969Y-49436941D01*
X77940968Y-49436942D01*
X77869941Y-49507969D01*
X77831500Y-49600773D01*
X77831500Y-53551821D01*
X77869941Y-53644625D01*
X78577735Y-54352419D01*
X78611220Y-54413742D01*
X78606236Y-54483434D01*
X78564364Y-54539367D01*
X78518999Y-54560674D01*
X78515472Y-54561520D01*
X78320776Y-54624781D01*
X78138386Y-54717715D01*
X77972786Y-54838028D01*
X77828028Y-54982786D01*
X77707715Y-55148386D01*
X77660485Y-55241080D01*
X77612510Y-55291876D01*
X77544689Y-55308671D01*
X77478554Y-55286134D01*
X77439515Y-55241080D01*
X77404392Y-55172148D01*
X77392287Y-55148390D01*
X77384556Y-55137749D01*
X77271971Y-54982786D01*
X77127213Y-54838028D01*
X76961613Y-54717715D01*
X76961612Y-54717714D01*
X76961610Y-54717713D01*
X76873487Y-54672812D01*
X76779223Y-54624781D01*
X76584534Y-54561522D01*
X76409995Y-54533878D01*
X76382352Y-54529500D01*
X76177648Y-54529500D01*
X76153329Y-54533351D01*
X75975465Y-54561522D01*
X75780776Y-54624781D01*
X75598386Y-54717715D01*
X75432786Y-54838028D01*
X75288032Y-54982782D01*
X75288026Y-54982789D01*
X75261227Y-55019675D01*
X75205897Y-55062341D01*
X75136284Y-55068319D01*
X75074489Y-55035712D01*
X75040132Y-54974873D01*
X75037620Y-54960043D01*
X75033596Y-54922620D01*
X74983354Y-54787913D01*
X74983350Y-54787906D01*
X74897190Y-54672812D01*
X74897187Y-54672809D01*
X74782093Y-54586649D01*
X74782086Y-54586645D01*
X74647379Y-54536403D01*
X74647372Y-54536401D01*
X74587844Y-54530000D01*
X73990000Y-54530000D01*
X73990000Y-55514314D01*
X73985606Y-55509920D01*
X73894394Y-55457259D01*
X73792661Y-55430000D01*
X73687339Y-55430000D01*
X73585606Y-55457259D01*
X73494394Y-55509920D01*
X73490000Y-55514314D01*
X73490000Y-54530000D01*
X72892155Y-54530000D01*
X72832627Y-54536401D01*
X72832620Y-54536403D01*
X72697913Y-54586645D01*
X72697906Y-54586649D01*
X72582812Y-54672809D01*
X72582809Y-54672812D01*
X72496649Y-54787906D01*
X72496645Y-54787913D01*
X72446403Y-54922620D01*
X72446401Y-54922627D01*
X72440000Y-54982155D01*
X72440000Y-55580000D01*
X73424314Y-55580000D01*
X73419920Y-55584394D01*
X73367259Y-55675606D01*
X73340000Y-55777339D01*
X73340000Y-55882661D01*
X73367259Y-55984394D01*
X73419920Y-56075606D01*
X73424314Y-56080000D01*
X72440000Y-56080000D01*
X72440000Y-56677844D01*
X72446401Y-56737372D01*
X72446403Y-56737379D01*
X72496645Y-56872086D01*
X72496649Y-56872093D01*
X72582809Y-56987187D01*
X72582812Y-56987190D01*
X72697906Y-57073350D01*
X72697913Y-57073354D01*
X72832620Y-57123596D01*
X72832627Y-57123598D01*
X72892155Y-57129999D01*
X72892172Y-57130000D01*
X73490000Y-57130000D01*
X73490000Y-56145686D01*
X73494394Y-56150080D01*
X73585606Y-56202741D01*
X73687339Y-56230000D01*
X73792661Y-56230000D01*
X73894394Y-56202741D01*
X73985606Y-56150080D01*
X73990000Y-56145686D01*
X73990000Y-57130000D01*
X74587828Y-57130000D01*
X74587844Y-57129999D01*
X74647372Y-57123598D01*
X74647379Y-57123596D01*
X74782086Y-57073354D01*
X74782093Y-57073350D01*
X74897187Y-56987190D01*
X74897190Y-56987187D01*
X74983350Y-56872093D01*
X74983354Y-56872086D01*
X75033596Y-56737379D01*
X75037620Y-56699956D01*
X75064358Y-56635404D01*
X75121750Y-56595556D01*
X75191575Y-56593062D01*
X75251664Y-56628714D01*
X75261228Y-56640325D01*
X75288028Y-56677212D01*
X75288032Y-56677217D01*
X75432786Y-56821971D01*
X75584535Y-56932221D01*
X75598390Y-56942287D01*
X75686517Y-56987190D01*
X75780776Y-57035218D01*
X75780778Y-57035218D01*
X75780781Y-57035220D01*
X75840393Y-57054589D01*
X75975465Y-57098477D01*
X76022654Y-57105951D01*
X76177648Y-57130500D01*
X76177649Y-57130500D01*
X76382350Y-57130500D01*
X76382352Y-57130500D01*
X76397591Y-57128086D01*
X76466883Y-57137040D01*
X76520336Y-57182036D01*
X76540976Y-57248787D01*
X76522252Y-57316101D01*
X76504671Y-57338238D01*
X76431728Y-57411182D01*
X76370408Y-57444666D01*
X76344049Y-57447500D01*
X75749773Y-57447500D01*
X75656969Y-57485941D01*
X68685941Y-64456969D01*
X68647500Y-64549773D01*
X68647500Y-66760226D01*
X68685941Y-66853030D01*
X68866824Y-67033913D01*
X68900309Y-67095236D01*
X68902433Y-67134847D01*
X68899500Y-67162129D01*
X68899500Y-68993049D01*
X68879815Y-69060088D01*
X68827011Y-69105843D01*
X68757853Y-69115787D01*
X68694297Y-69086762D01*
X68687819Y-69080730D01*
X68288819Y-68681730D01*
X68255334Y-68620407D01*
X68252500Y-68594049D01*
X68252500Y-50890950D01*
X68272185Y-50823911D01*
X68288815Y-50803273D01*
X68697819Y-50394268D01*
X68759142Y-50360784D01*
X68828834Y-50365768D01*
X68884767Y-50407640D01*
X68909184Y-50473104D01*
X68909500Y-50481950D01*
X68909500Y-51912870D01*
X68909501Y-51912876D01*
X68915908Y-51972483D01*
X68966202Y-52107328D01*
X68966206Y-52107335D01*
X69052452Y-52222544D01*
X69052455Y-52222547D01*
X69167664Y-52308793D01*
X69167671Y-52308797D01*
X69302517Y-52359091D01*
X69302516Y-52359091D01*
X69309444Y-52359835D01*
X69362127Y-52365500D01*
X71257872Y-52365499D01*
X71317483Y-52359091D01*
X71452331Y-52308796D01*
X71567546Y-52222546D01*
X71653796Y-52107331D01*
X71704091Y-51972483D01*
X71710500Y-51912873D01*
X71710499Y-50017128D01*
X71704091Y-49957517D01*
X71653796Y-49822669D01*
X71653795Y-49822668D01*
X71653793Y-49822664D01*
X71567547Y-49707455D01*
X71567544Y-49707452D01*
X71452335Y-49621206D01*
X71452328Y-49621202D01*
X71372419Y-49591398D01*
X71316485Y-49549527D01*
X71292068Y-49484062D01*
X71306920Y-49415789D01*
X71328069Y-49387537D01*
X71378242Y-49337365D01*
X71507815Y-49159022D01*
X71607895Y-48962606D01*
X71676015Y-48752951D01*
X71710500Y-48535222D01*
X71710500Y-48314778D01*
X71676015Y-48097049D01*
X71607895Y-47887394D01*
X71607895Y-47887393D01*
X71573237Y-47819375D01*
X71507815Y-47690978D01*
X71491260Y-47668192D01*
X71378247Y-47512641D01*
X71378243Y-47512636D01*
X71222363Y-47356756D01*
X71222358Y-47356752D01*
X71044025Y-47227187D01*
X71044024Y-47227186D01*
X71044022Y-47227185D01*
X70981096Y-47195122D01*
X70847606Y-47127104D01*
X70847603Y-47127103D01*
X70637952Y-47058985D01*
X70529086Y-47041742D01*
X70420222Y-47024500D01*
X70199778Y-47024500D01*
X70127201Y-47035995D01*
X69982047Y-47058985D01*
X69772396Y-47127103D01*
X69772393Y-47127104D01*
X69575974Y-47227187D01*
X69397641Y-47356752D01*
X69397636Y-47356756D01*
X69241756Y-47512636D01*
X69241752Y-47512641D01*
X69112187Y-47690974D01*
X69012104Y-47887393D01*
X69012103Y-47887396D01*
X68943985Y-48097047D01*
X68909500Y-48314778D01*
X68909500Y-48535221D01*
X68943985Y-48752952D01*
X69012103Y-48962603D01*
X69012106Y-48962611D01*
X69107300Y-49149435D01*
X69120197Y-49218105D01*
X69093921Y-49282845D01*
X69084497Y-49293412D01*
X67856970Y-50520941D01*
X67785942Y-50591968D01*
X67785941Y-50591969D01*
X67747500Y-50684773D01*
X66891500Y-50684773D01*
X66891500Y-44124564D01*
X66891670Y-44118075D01*
X66899740Y-43964070D01*
X66906241Y-43839998D01*
X66906848Y-43832650D01*
X66913582Y-43772880D01*
X66914315Y-43767465D01*
X66953006Y-43523170D01*
X66954572Y-43515060D01*
X66966621Y-43462267D01*
X66967728Y-43457807D01*
X67033516Y-43212277D01*
X67036227Y-43203485D01*
X67050139Y-43163727D01*
X67051374Y-43160359D01*
X67147036Y-42911146D01*
X67151042Y-42901871D01*
X67159397Y-42884521D01*
X67160479Y-42882338D01*
X67290405Y-42627341D01*
X67296888Y-42616114D01*
X67460810Y-42363694D01*
X67468439Y-42353194D01*
X67657839Y-42119303D01*
X67666514Y-42109666D01*
X67879352Y-41896826D01*
X67888977Y-41888160D01*
X68122892Y-41698738D01*
X68133367Y-41691128D01*
X68385806Y-41527191D01*
X68397021Y-41520716D01*
X68651989Y-41390803D01*
X68654303Y-41389657D01*
X68671514Y-41381369D01*
X68680845Y-41377339D01*
X68930015Y-41281690D01*
X68933452Y-41280431D01*
X68934807Y-41279957D01*
X68973146Y-41266541D01*
X68981975Y-41263817D01*
X69227540Y-41198018D01*
X69231919Y-41196932D01*
X69284740Y-41184875D01*
X69292849Y-41183310D01*
X69537146Y-41144617D01*
X69542572Y-41143883D01*
X69602331Y-41137149D01*
X69609673Y-41136543D01*
X69887369Y-41121989D01*
X69893858Y-41121820D01*
X91861793Y-41121820D01*
X97796754Y-41121820D01*
X97803243Y-41121989D01*
G37*
%TD.AperFunction*%
%TD*%
M02*
