%TF.GenerationSoftware,KiCad,Pcbnew,9.0.6*%
%TF.CreationDate,2025-12-24T15:42:27+10:00*%
%TF.ProjectId,PicoX68Key.LED,5069636f-5836-4384-9b65-792e4c45442e,rev?*%
%TF.SameCoordinates,Original*%
%TF.FileFunction,Legend,Top*%
%TF.FilePolarity,Positive*%
%FSLAX46Y46*%
G04 Gerber Fmt 4.6, Leading zero omitted, Abs format (unit mm)*
G04 Created by KiCad (PCBNEW 9.0.6) date 2025-12-24 15:42:27*
%MOMM*%
%LPD*%
G01*
G04 APERTURE LIST*
%ADD10C,0.150000*%
%ADD11C,0.120000*%
G04 APERTURE END LIST*
D10*
X82450000Y-62300000D02*
X83300000Y-62300000D01*
X84350000Y-62300000D02*
X85250000Y-62300000D01*
X84350000Y-61600000D02*
X84350000Y-63000000D01*
X84350000Y-62300000D02*
X83350000Y-63050000D01*
X83350000Y-61550000D01*
X84350000Y-62300000D01*
G36*
X84350000Y-62300000D02*
G01*
X83350000Y-63050000D01*
X83350000Y-61550000D01*
X84350000Y-62300000D01*
G37*
G36*
X69942137Y-41827445D02*
G01*
X69788813Y-41896687D01*
X69871290Y-42009716D01*
X69970277Y-42183660D01*
X70074791Y-42411138D01*
X70121305Y-42531728D01*
X70157056Y-42640295D01*
X70162596Y-42659549D01*
X70326453Y-42581422D01*
X70230588Y-42350816D01*
X70156005Y-42193754D01*
X70075423Y-42039491D01*
X70009031Y-41925656D01*
X69946217Y-41832813D01*
X69942137Y-41827445D01*
G37*
G36*
X68463765Y-42066772D02*
G01*
X68480526Y-42249496D01*
X68627639Y-42229696D01*
X68669570Y-42224309D01*
X68936284Y-42195732D01*
X68893339Y-42352143D01*
X68836766Y-42530828D01*
X68779967Y-42688438D01*
X68714802Y-42847590D01*
X68656873Y-42971983D01*
X68594124Y-43090099D01*
X68493166Y-43246190D01*
X68665357Y-43313418D01*
X68773118Y-43118774D01*
X68879904Y-42880623D01*
X68983064Y-42599038D01*
X69078025Y-42283249D01*
X69106368Y-42175857D01*
X69333148Y-42161019D01*
X69394957Y-42164500D01*
X69448615Y-42177143D01*
X69477456Y-42191179D01*
X69502280Y-42210900D01*
X69520457Y-42233458D01*
X69535098Y-42261531D01*
X69552992Y-42337039D01*
X69555714Y-42391279D01*
X69543994Y-42633820D01*
X69529642Y-42752085D01*
X69509631Y-42862967D01*
X69488228Y-42947482D01*
X69462759Y-43020025D01*
X69454964Y-43037637D01*
X69436145Y-43071523D01*
X69414975Y-43097686D01*
X69368150Y-43129675D01*
X69308789Y-43143780D01*
X69272240Y-43145348D01*
X69150012Y-43133900D01*
X69013953Y-43103125D01*
X69041247Y-43277698D01*
X69192783Y-43303603D01*
X69289001Y-43309205D01*
X69353980Y-43305960D01*
X69413377Y-43294972D01*
X69453584Y-43280803D01*
X69490704Y-43260639D01*
X69521233Y-43236945D01*
X69549266Y-43207326D01*
X69595648Y-43132709D01*
X69638045Y-43024025D01*
X69676195Y-42863356D01*
X69704917Y-42646973D01*
X69717371Y-42393254D01*
X69717464Y-42370213D01*
X69714594Y-42306027D01*
X69706227Y-42249563D01*
X69693538Y-42202733D01*
X69676542Y-42162096D01*
X69656169Y-42128154D01*
X69632303Y-42099383D01*
X69574156Y-42055397D01*
X69499494Y-42027103D01*
X69402982Y-42014491D01*
X69377203Y-42014016D01*
X69139982Y-42028762D01*
X69194570Y-41728984D01*
X69204862Y-41677808D01*
X69219758Y-41605245D01*
X69024486Y-41584362D01*
X69013443Y-41779240D01*
X68978093Y-42005691D01*
X68969806Y-42044607D01*
X68894390Y-42050452D01*
X68650611Y-42066772D01*
X68639361Y-42067127D01*
X68463765Y-42066772D01*
G37*
G36*
X71840545Y-42453836D02*
G01*
X71855199Y-42798035D01*
X71937608Y-42831297D01*
X72025687Y-42874862D01*
X72107012Y-42922686D01*
X72205993Y-42991128D01*
X72291997Y-43060077D01*
X72201688Y-43203967D01*
X72126065Y-43138514D01*
X71990801Y-43036185D01*
X71861519Y-42960518D01*
X71863626Y-43049453D01*
X71853039Y-43136713D01*
X71823302Y-43208996D01*
X71775132Y-43268008D01*
X71743633Y-43292626D01*
X71706958Y-43313632D01*
X71664030Y-43331017D01*
X71615406Y-43343962D01*
X71558993Y-43352315D01*
X71496162Y-43355184D01*
X71456283Y-43354220D01*
X71337304Y-43338162D01*
X71242298Y-43305672D01*
X71170331Y-43260249D01*
X71119155Y-43203485D01*
X71100886Y-43170791D01*
X71087412Y-43134734D01*
X71079002Y-43094903D01*
X71076126Y-43051559D01*
X71076229Y-43043575D01*
X71076893Y-43036721D01*
X71231556Y-43036721D01*
X71234801Y-43070116D01*
X71256673Y-43122017D01*
X71275919Y-43144408D01*
X71300655Y-43163622D01*
X71332982Y-43180270D01*
X71371576Y-43192740D01*
X71419764Y-43201098D01*
X71475188Y-43203967D01*
X71540623Y-43198874D01*
X71578938Y-43189673D01*
X71611631Y-43176249D01*
X71639601Y-43158508D01*
X71662308Y-43137117D01*
X71681718Y-43109621D01*
X71695495Y-43078663D01*
X71705143Y-43038146D01*
X71708196Y-42994406D01*
X71706181Y-42899152D01*
X71624140Y-42879073D01*
X71557907Y-42870298D01*
X71489843Y-42867370D01*
X71413478Y-42873843D01*
X71332857Y-42898862D01*
X71276260Y-42936990D01*
X71242873Y-42983532D01*
X71234436Y-43009292D01*
X71231556Y-43036721D01*
X71076893Y-43036721D01*
X71080245Y-43002104D01*
X71089873Y-42963159D01*
X71105416Y-42925641D01*
X71126294Y-42891085D01*
X71153656Y-42858058D01*
X71186148Y-42828611D01*
X71225501Y-42801622D01*
X71269639Y-42778957D01*
X71320071Y-42760178D01*
X71374638Y-42746463D01*
X71433810Y-42737916D01*
X71496162Y-42735020D01*
X71569499Y-42737383D01*
X71701968Y-42756086D01*
X71699574Y-42707319D01*
X71678795Y-42227148D01*
X71842651Y-42227148D01*
X71840545Y-42453836D01*
G37*
G36*
X71347052Y-41576943D02*
G01*
X71329225Y-41650263D01*
X71265170Y-41903648D01*
X71407236Y-41877126D01*
X71594806Y-41825704D01*
X71599019Y-41983607D01*
X71475555Y-42014855D01*
X71216810Y-42061277D01*
X71153763Y-42226299D01*
X71092149Y-42366936D01*
X71023920Y-42507651D01*
X70884172Y-42759562D01*
X70759037Y-42947786D01*
X70597379Y-42863156D01*
X70651581Y-42795876D01*
X70725008Y-42692919D01*
X70796404Y-42580629D01*
X70871222Y-42450155D01*
X70939788Y-42318006D01*
X71046725Y-42078129D01*
X70859879Y-42084357D01*
X70614140Y-42078129D01*
X70603607Y-41920593D01*
X70612269Y-41921733D01*
X70732631Y-41932173D01*
X70859879Y-41935339D01*
X71097192Y-41924806D01*
X71105294Y-41893822D01*
X71146581Y-41703515D01*
X71162221Y-41560090D01*
X71347052Y-41576943D01*
G37*
G36*
X71977301Y-41918549D02*
G01*
X72224751Y-42057091D01*
X72357118Y-42145266D01*
X72262596Y-42283843D01*
X72193932Y-42230726D01*
X72087852Y-42160108D01*
X71971708Y-42091285D01*
X71781743Y-41994140D01*
X71867839Y-41865730D01*
X71977301Y-41918549D01*
G37*
G36*
X96341574Y-41632905D02*
G01*
X96460134Y-41779586D01*
X96627068Y-41949289D01*
X96837387Y-42130378D01*
X96953675Y-42219155D01*
X97071261Y-42301597D01*
X97223505Y-42397233D01*
X97272872Y-42325528D01*
X97328559Y-42258564D01*
X97141839Y-42152447D01*
X96940626Y-42011235D01*
X96839036Y-41929263D01*
X96740797Y-41842466D01*
X96647944Y-41752596D01*
X96560833Y-41659858D01*
X96484433Y-41569857D01*
X96415377Y-41478907D01*
X96412924Y-41475460D01*
X96253372Y-41475460D01*
X96154455Y-41621073D01*
X96013920Y-41785855D01*
X95836441Y-41957514D01*
X95738048Y-42040413D01*
X95635246Y-42119157D01*
X95532696Y-42190214D01*
X95428002Y-42255224D01*
X95377670Y-42283751D01*
X95437936Y-42349628D01*
X95478420Y-42407674D01*
X95686266Y-42273422D01*
X95897052Y-42110284D01*
X95998538Y-42020927D01*
X96093091Y-41929996D01*
X96178484Y-41839870D01*
X96254635Y-41750768D01*
X96341574Y-41632905D01*
G37*
G36*
X95459552Y-43213584D02*
G01*
X95459552Y-43356374D01*
X97250799Y-43356374D01*
X97250799Y-43213584D01*
X96425563Y-43213584D01*
X96425563Y-42864072D01*
X97063953Y-42864072D01*
X97063953Y-42723297D01*
X96425563Y-42723297D01*
X96425563Y-42395126D01*
X96984177Y-42395126D01*
X96984177Y-42254351D01*
X95726265Y-42254351D01*
X95726265Y-42395126D01*
X96261707Y-42395126D01*
X96261707Y-42723297D01*
X95631743Y-42723297D01*
X95631743Y-42864072D01*
X96261707Y-42864072D01*
X96261707Y-43213584D01*
X95459552Y-43213584D01*
G37*
G36*
X98277718Y-41504952D02*
G01*
X98221023Y-41603688D01*
X98731368Y-41603688D01*
X98756556Y-41595353D01*
X98863626Y-41664596D01*
X98796529Y-41783187D01*
X98735785Y-41874159D01*
X98670460Y-41961259D01*
X99229074Y-41961259D01*
X99229074Y-43216789D01*
X99227700Y-43253580D01*
X99213922Y-43317735D01*
X99201292Y-43341359D01*
X99184308Y-43360858D01*
X99157808Y-43379418D01*
X99124019Y-43393560D01*
X99053228Y-43408490D01*
X98959201Y-43416687D01*
X98693541Y-43420854D01*
X98684562Y-43386841D01*
X98660423Y-43324275D01*
X98632633Y-43267622D01*
X99014843Y-43269729D01*
X99024818Y-43269055D01*
X99058330Y-43259166D01*
X99070264Y-43242210D01*
X99073644Y-43214683D01*
X99073644Y-42949893D01*
X97897615Y-42949893D01*
X97894915Y-42958805D01*
X97840782Y-43099503D01*
X97770422Y-43223955D01*
X97683911Y-43332959D01*
X97580526Y-43427174D01*
X97536193Y-43374902D01*
X97469243Y-43313784D01*
X97498423Y-43290025D01*
X97551497Y-43240853D01*
X97598058Y-43189562D01*
X97641065Y-43132762D01*
X97677630Y-43074206D01*
X97711318Y-43007506D01*
X97738383Y-42939525D01*
X97762884Y-42857771D01*
X97772698Y-42811224D01*
X97929122Y-42811224D01*
X98420508Y-42811224D01*
X98571725Y-42811224D01*
X99073644Y-42811224D01*
X99073644Y-42519873D01*
X98571725Y-42519873D01*
X98571725Y-42811224D01*
X98420508Y-42811224D01*
X98420508Y-42519873D01*
X97956416Y-42519873D01*
X97950672Y-42642765D01*
X97929122Y-42811224D01*
X97772698Y-42811224D01*
X97780198Y-42775648D01*
X97797002Y-42629039D01*
X97801078Y-42488366D01*
X97801078Y-42383311D01*
X97956416Y-42383311D01*
X98420508Y-42383311D01*
X98571725Y-42383311D01*
X99073644Y-42383311D01*
X99073644Y-42102035D01*
X98571725Y-42102035D01*
X98571725Y-42383311D01*
X98420508Y-42383311D01*
X98420508Y-42102035D01*
X97956416Y-42102035D01*
X97956416Y-42383311D01*
X97801078Y-42383311D01*
X97801078Y-42112568D01*
X97630993Y-42250046D01*
X97576583Y-42186116D01*
X97517512Y-42137938D01*
X97575106Y-42097324D01*
X97659647Y-42030999D01*
X97738374Y-41961320D01*
X97738435Y-41961259D01*
X97952203Y-41961259D01*
X97956416Y-41961259D01*
X98496162Y-41961259D01*
X98534745Y-41910518D01*
X98593013Y-41824093D01*
X98645273Y-41736037D01*
X98132821Y-41736037D01*
X98099865Y-41782118D01*
X98029446Y-41872301D01*
X97952203Y-41961259D01*
X97738435Y-41961259D01*
X97816215Y-41883862D01*
X97887112Y-41804625D01*
X97954175Y-41720365D01*
X98013220Y-41636579D01*
X98064702Y-41553469D01*
X98107633Y-41473445D01*
X98277718Y-41504952D01*
G37*
G36*
X95366861Y-60524309D02*
G01*
X95433549Y-60521429D01*
X95496432Y-60512995D01*
X95555268Y-60499334D01*
X95609954Y-60480745D01*
X95660182Y-60457606D01*
X95705933Y-60430175D01*
X95746868Y-60398897D01*
X95783017Y-60363966D01*
X95814064Y-60325880D01*
X95840029Y-60284770D01*
X95860660Y-60241140D01*
X95875919Y-60195098D01*
X95885618Y-60147088D01*
X95889645Y-60097261D01*
X95889755Y-60087419D01*
X95886882Y-60032323D01*
X95878499Y-59982122D01*
X95865206Y-59937159D01*
X95847248Y-59896281D01*
X95797233Y-59823841D01*
X95726058Y-59760095D01*
X95626935Y-59700982D01*
X95572575Y-59675717D01*
X95354222Y-59581104D01*
X95352497Y-59580378D01*
X95262412Y-59540119D01*
X95180535Y-59489197D01*
X95147099Y-59457187D01*
X95121025Y-59419452D01*
X95104082Y-59374971D01*
X95098041Y-59322725D01*
X95100930Y-59286030D01*
X95109429Y-59252115D01*
X95141656Y-59194037D01*
X95193714Y-59148162D01*
X95266402Y-59115900D01*
X95360534Y-59100684D01*
X95385729Y-59100068D01*
X95441483Y-59102948D01*
X95494232Y-59111389D01*
X95592247Y-59144176D01*
X95683334Y-59198500D01*
X95736431Y-59242858D01*
X95837181Y-59118935D01*
X95794556Y-59078878D01*
X95747210Y-59042479D01*
X95695701Y-59010348D01*
X95640278Y-58982879D01*
X95582782Y-58961056D01*
X95522289Y-58944641D01*
X95461498Y-58934385D01*
X95398583Y-58930020D01*
X95385729Y-58929891D01*
X95323556Y-58932777D01*
X95264264Y-58941257D01*
X95208101Y-58955090D01*
X95155521Y-58973996D01*
X95107230Y-58997507D01*
X95063148Y-59025483D01*
X95024248Y-59057079D01*
X94990064Y-59092484D01*
X94961530Y-59130510D01*
X94938104Y-59171698D01*
X94920440Y-59214761D01*
X94908214Y-59260399D01*
X94900663Y-59337472D01*
X94903508Y-59386615D01*
X94911699Y-59431953D01*
X94943107Y-59513887D01*
X94994132Y-59586218D01*
X95066017Y-59650754D01*
X95160955Y-59708110D01*
X95213538Y-59732412D01*
X95433997Y-59829041D01*
X95536372Y-59877069D01*
X95580322Y-59902650D01*
X95618267Y-59931211D01*
X95649321Y-59964202D01*
X95672599Y-60003075D01*
X95687215Y-60049282D01*
X95692284Y-60104272D01*
X95689380Y-60143463D01*
X95680771Y-60180058D01*
X95667013Y-60213064D01*
X95648113Y-60243157D01*
X95595539Y-60293692D01*
X95522395Y-60330642D01*
X95427267Y-60351269D01*
X95368876Y-60354224D01*
X95261158Y-60342918D01*
X95152928Y-60308660D01*
X95048941Y-60251721D01*
X94955614Y-60174322D01*
X94944718Y-60163073D01*
X94829222Y-60297529D01*
X94876787Y-60343134D01*
X94928448Y-60384420D01*
X94983084Y-60420505D01*
X95041285Y-60451757D01*
X95101584Y-60477382D01*
X95164929Y-60497752D01*
X95229723Y-60512314D01*
X95297082Y-60521261D01*
X95366861Y-60524309D01*
G37*
G36*
X96464305Y-60495000D02*
G01*
X96659578Y-60495000D01*
X96659578Y-59117195D01*
X97125776Y-59117195D01*
X97125776Y-58953339D01*
X95998107Y-58953339D01*
X95998107Y-59117195D01*
X96464305Y-59117195D01*
X96464305Y-60495000D01*
G37*
G36*
X98363538Y-60495000D02*
G01*
X98157733Y-60495000D01*
X98010729Y-60026053D01*
X97447902Y-60026053D01*
X97298792Y-60495000D01*
X97103519Y-60495000D01*
X97313697Y-59872821D01*
X97496262Y-59872821D01*
X97962461Y-59872821D01*
X97888913Y-59634318D01*
X97808874Y-59374177D01*
X97733574Y-59110875D01*
X97725148Y-59110875D01*
X97650822Y-59374967D01*
X97571825Y-59634318D01*
X97496262Y-59872821D01*
X97313697Y-59872821D01*
X97624306Y-58953339D01*
X97840644Y-58953339D01*
X98363538Y-60495000D01*
G37*
G36*
X98773866Y-60495000D02*
G01*
X98969138Y-60495000D01*
X98969138Y-59117195D01*
X99435336Y-59117195D01*
X99435336Y-58953339D01*
X98307667Y-58953339D01*
X98307667Y-59117195D01*
X98773866Y-59117195D01*
X98773866Y-60495000D01*
G37*
G36*
X76901688Y-41968495D02*
G01*
X76901688Y-43007229D01*
X76905902Y-43261852D01*
X76725376Y-43261852D01*
X76727391Y-43139487D01*
X75580854Y-43139487D01*
X75585067Y-43261852D01*
X75404449Y-43261852D01*
X75410769Y-43005122D01*
X75410769Y-42975722D01*
X75580854Y-42975722D01*
X76729497Y-42975722D01*
X76729497Y-41974815D01*
X75580854Y-41974815D01*
X75580854Y-42975722D01*
X75410769Y-42975722D01*
X75410769Y-41968495D01*
X75406556Y-41804730D01*
X75464056Y-41806278D01*
X75593493Y-41808852D01*
X76721162Y-41808852D01*
X76905902Y-41804730D01*
X76901688Y-41968495D01*
G37*
G36*
X77414140Y-42337607D02*
G01*
X77414140Y-42543504D01*
X77628223Y-42533602D01*
X77706041Y-42532971D01*
X78858898Y-42532971D01*
X79042188Y-42540836D01*
X79083662Y-42543504D01*
X79083662Y-42337607D01*
X78992277Y-42344453D01*
X78856791Y-42348140D01*
X77706041Y-42348140D01*
X77460729Y-42340513D01*
X77414140Y-42337607D01*
G37*
G36*
X80261707Y-42913623D02*
G01*
X80408257Y-43069328D01*
X80548629Y-43228132D01*
X80639703Y-43342452D01*
X80793026Y-43220545D01*
X80631359Y-43038101D01*
X80433898Y-42833847D01*
X80620900Y-42677154D01*
X80804886Y-42494461D01*
X80980280Y-42290141D01*
X81137463Y-42075187D01*
X81198317Y-41980585D01*
X81250799Y-41915464D01*
X81118541Y-41808210D01*
X81045390Y-41822407D01*
X80982070Y-41825155D01*
X79730479Y-41825155D01*
X79578545Y-41816063D01*
X79516247Y-41808210D01*
X79516247Y-41997346D01*
X79608422Y-41989446D01*
X79730479Y-41984706D01*
X80965218Y-41984706D01*
X80860684Y-42147742D01*
X80787548Y-42244749D01*
X80702940Y-42346338D01*
X80614202Y-42443166D01*
X80517035Y-42539394D01*
X80423444Y-42623290D01*
X80324278Y-42703308D01*
X80310067Y-42714046D01*
X80058009Y-42499910D01*
X79917324Y-42390363D01*
X79780854Y-42499631D01*
X79933233Y-42618685D01*
X80200717Y-42854580D01*
X80261707Y-42913623D01*
G37*
G36*
X82368026Y-42460156D02*
G01*
X82368026Y-42617784D01*
X81549019Y-42617784D01*
X81549019Y-42769001D01*
X82368026Y-42769001D01*
X82368026Y-43214042D01*
X82364611Y-43235943D01*
X82352423Y-43249060D01*
X82319758Y-43255899D01*
X82004776Y-43251686D01*
X82050860Y-43344389D01*
X82074019Y-43409131D01*
X82293208Y-43405227D01*
X82372590Y-43397655D01*
X82435254Y-43383943D01*
X82468680Y-43369627D01*
X82494544Y-43351144D01*
X82510950Y-43331823D01*
X82522889Y-43308593D01*
X82535205Y-43245439D01*
X82536005Y-43218255D01*
X82536005Y-42769001D01*
X83357118Y-42769001D01*
X83357118Y-42617784D01*
X82536005Y-42617784D01*
X82536005Y-42552663D01*
X82711370Y-42440181D01*
X82889188Y-42299007D01*
X82963396Y-42229853D01*
X83029497Y-42160561D01*
X82926640Y-42081793D01*
X82890920Y-42090219D01*
X81889280Y-42090219D01*
X81889280Y-42235208D01*
X82743916Y-42235208D01*
X82662697Y-42306450D01*
X82574369Y-42375669D01*
X82447802Y-42460156D01*
X82368026Y-42460156D01*
G37*
G36*
X81567979Y-41709200D02*
G01*
X81567979Y-42201594D01*
X81723317Y-42201594D01*
X81723317Y-41860417D01*
X83170273Y-41860417D01*
X83170273Y-42201594D01*
X83331931Y-42201594D01*
X83331931Y-41709200D01*
X82529776Y-41709200D01*
X82529776Y-41474727D01*
X82363813Y-41474727D01*
X82363813Y-41709200D01*
X81567979Y-41709200D01*
G37*
G36*
X84328887Y-41802990D02*
G01*
X84341435Y-41979394D01*
X84375602Y-41974172D01*
X84459037Y-41962633D01*
X84554991Y-41950424D01*
X84816059Y-41914364D01*
X84736629Y-42007856D01*
X84658715Y-42112543D01*
X84604118Y-42197390D01*
X84553957Y-42288329D01*
X84515844Y-42370661D01*
X84483023Y-42457381D01*
X84458904Y-42538745D01*
X84440475Y-42623600D01*
X84429105Y-42705002D01*
X84423701Y-42789356D01*
X84423317Y-42818735D01*
X84426208Y-42882992D01*
X84434725Y-42943276D01*
X84448371Y-42998698D01*
X84467012Y-43050203D01*
X84490264Y-43097478D01*
X84518006Y-43140820D01*
X84586589Y-43216025D01*
X84672554Y-43275922D01*
X84776144Y-43319573D01*
X84897402Y-43345048D01*
X84994570Y-43350696D01*
X85068925Y-43347805D01*
X85138487Y-43339297D01*
X85202273Y-43325702D01*
X85261646Y-43307151D01*
X85316460Y-43283996D01*
X85367113Y-43256389D01*
X85457348Y-43187805D01*
X85533940Y-43100899D01*
X85597398Y-42994150D01*
X85647089Y-42865471D01*
X85681337Y-42712837D01*
X85697672Y-42535114D01*
X85693270Y-42333178D01*
X85691762Y-42313885D01*
X85744336Y-42412612D01*
X85800803Y-42505431D01*
X85857656Y-42587360D01*
X85918738Y-42664747D01*
X85977343Y-42730441D01*
X86086519Y-42581056D01*
X85970299Y-42462361D01*
X85871676Y-42330238D01*
X85789539Y-42183829D01*
X85723129Y-42021837D01*
X85671654Y-41842277D01*
X85641295Y-41691707D01*
X85475424Y-41737960D01*
X85523784Y-41893299D01*
X85545223Y-42032841D01*
X85559661Y-42165975D01*
X85566936Y-42287113D01*
X85567821Y-42401810D01*
X85562766Y-42504407D01*
X85551985Y-42600723D01*
X85536593Y-42685523D01*
X85516135Y-42764336D01*
X85492296Y-42832772D01*
X85463996Y-42895580D01*
X85433243Y-42949485D01*
X85398539Y-42998105D01*
X85361830Y-43039360D01*
X85321552Y-43075579D01*
X85279152Y-43105740D01*
X85233414Y-43130961D01*
X85184904Y-43150937D01*
X85133138Y-43165871D01*
X85018683Y-43180228D01*
X84998784Y-43180519D01*
X84936271Y-43177498D01*
X84875868Y-43168074D01*
X84824853Y-43153917D01*
X84776995Y-43133915D01*
X84737346Y-43110702D01*
X84701307Y-43082215D01*
X84671666Y-43050981D01*
X84645937Y-43014801D01*
X84625301Y-42975244D01*
X84608987Y-42930748D01*
X84597411Y-42881491D01*
X84590788Y-42826992D01*
X84589280Y-42783014D01*
X84600321Y-42642402D01*
X84633888Y-42497461D01*
X84690656Y-42349196D01*
X84770404Y-42200775D01*
X84869796Y-42059497D01*
X84977445Y-41940520D01*
X85042839Y-41884964D01*
X85135314Y-41852765D01*
X85154122Y-41847137D01*
X85105854Y-41698026D01*
X84991414Y-41729404D01*
X84756041Y-41770706D01*
X84597920Y-41790394D01*
X84458551Y-41802065D01*
X84440170Y-41802990D01*
X84328887Y-41802990D01*
G37*
G36*
X86903420Y-41597185D02*
G01*
X86861471Y-41756736D01*
X87112600Y-41815562D01*
X87369296Y-41867600D01*
X87604980Y-41909717D01*
X87676265Y-41920409D01*
X87716107Y-41758843D01*
X87503776Y-41729000D01*
X87121455Y-41653412D01*
X86903420Y-41597185D01*
G37*
G36*
X86857258Y-41979211D02*
G01*
X86680854Y-41956130D01*
X86651969Y-42277434D01*
X86622390Y-42516925D01*
X86589777Y-42728997D01*
X86573784Y-42811224D01*
X86729122Y-42849326D01*
X86749926Y-42803704D01*
X86781201Y-42756655D01*
X86792137Y-42743538D01*
X86836385Y-42694652D01*
X86884840Y-42649868D01*
X86937236Y-42609445D01*
X86993517Y-42573461D01*
X87053512Y-42542103D01*
X87117086Y-42515535D01*
X87184183Y-42493905D01*
X87254566Y-42477432D01*
X87328289Y-42466269D01*
X87405009Y-42460649D01*
X87443166Y-42459972D01*
X87499484Y-42462851D01*
X87552526Y-42471276D01*
X87601731Y-42484887D01*
X87646839Y-42503387D01*
X87686707Y-42525987D01*
X87721832Y-42552697D01*
X87750936Y-42582184D01*
X87774869Y-42614979D01*
X87792716Y-42649488D01*
X87805097Y-42686584D01*
X87812736Y-42749858D01*
X87809802Y-42796741D01*
X87800990Y-42841675D01*
X87786829Y-42883188D01*
X87767118Y-42922547D01*
X87711595Y-42993562D01*
X87632879Y-43055003D01*
X87527990Y-43105848D01*
X87393292Y-43143758D01*
X87225164Y-43165365D01*
X87020455Y-43166659D01*
X86825751Y-43149836D01*
X86876126Y-43322119D01*
X87009698Y-43330320D01*
X87134034Y-43332098D01*
X87245480Y-43327944D01*
X87348576Y-43318239D01*
X87440124Y-43303842D01*
X87524161Y-43284686D01*
X87598101Y-43261921D01*
X87665287Y-43235093D01*
X87723879Y-43205479D01*
X87776358Y-43172389D01*
X87821688Y-43136964D01*
X87861393Y-43098533D01*
X87895175Y-43057763D01*
X87923637Y-43014339D01*
X87965126Y-42919485D01*
X87986377Y-42812781D01*
X87989140Y-42754163D01*
X87986243Y-42704788D01*
X87977681Y-42657148D01*
X87944055Y-42567518D01*
X87889164Y-42487254D01*
X87813856Y-42418806D01*
X87719271Y-42365029D01*
X87665167Y-42344562D01*
X87607046Y-42328935D01*
X87544958Y-42318425D01*
X87479294Y-42313386D01*
X87453607Y-42312969D01*
X87370786Y-42315923D01*
X87289572Y-42324882D01*
X87212977Y-42339309D01*
X87137996Y-42359558D01*
X87066564Y-42385002D01*
X86996778Y-42416207D01*
X86929606Y-42452749D01*
X86864144Y-42495124D01*
X86769056Y-42570065D01*
X86802190Y-42340478D01*
X86829907Y-42142177D01*
X86857258Y-41979211D01*
G37*
G36*
X89912736Y-41856845D02*
G01*
X89759413Y-41926363D01*
X89842436Y-42039015D01*
X89942156Y-42212337D01*
X90047705Y-42439191D01*
X90094885Y-42559714D01*
X90131186Y-42668066D01*
X90135302Y-42681989D01*
X90297052Y-42604045D01*
X90212401Y-42398065D01*
X90142588Y-42250677D01*
X90065956Y-42103059D01*
X89995639Y-41980549D01*
X89928475Y-41878098D01*
X89912736Y-41856845D01*
G37*
G36*
X89937924Y-41551481D02*
G01*
X89824534Y-41597826D01*
X89914291Y-41741187D01*
X89994618Y-41890551D01*
X90110115Y-41839993D01*
X89976948Y-41609801D01*
X89937924Y-41551481D01*
G37*
G36*
X90168916Y-41467217D02*
G01*
X90057633Y-41513562D01*
X90150955Y-41657340D01*
X90231931Y-41804180D01*
X90345321Y-41753622D01*
X90250144Y-41589588D01*
X90168916Y-41467217D01*
G37*
G36*
X88434365Y-42077488D02*
G01*
X88453232Y-42254351D01*
X88642276Y-42232918D01*
X88908990Y-42205532D01*
X88866034Y-42361719D01*
X88809445Y-42540104D01*
X88752753Y-42697049D01*
X88687723Y-42855433D01*
X88629968Y-42979053D01*
X88567415Y-43096355D01*
X88465872Y-43252418D01*
X88635957Y-43321661D01*
X88743563Y-43129391D01*
X88850132Y-42894093D01*
X88953164Y-42615541D01*
X89048412Y-42302056D01*
X89079074Y-42187123D01*
X89303747Y-42172285D01*
X89366283Y-42175754D01*
X89420150Y-42188311D01*
X89448962Y-42202239D01*
X89473654Y-42221788D01*
X89491674Y-42244149D01*
X89506134Y-42271962D01*
X89523723Y-42346994D01*
X89526313Y-42399797D01*
X89523360Y-42523443D01*
X89514410Y-42650099D01*
X89500087Y-42768700D01*
X89480018Y-42879276D01*
X89459006Y-42960869D01*
X89433919Y-43030390D01*
X89427670Y-43044140D01*
X89409174Y-43078033D01*
X89388255Y-43104336D01*
X89341554Y-43137014D01*
X89282549Y-43151804D01*
X89242839Y-43153683D01*
X89130816Y-43142665D01*
X88986659Y-43109445D01*
X89013953Y-43286032D01*
X89102093Y-43302014D01*
X89201627Y-43313090D01*
X89261707Y-43315341D01*
X89327948Y-43312044D01*
X89388787Y-43300683D01*
X89428946Y-43286347D01*
X89466111Y-43265922D01*
X89496491Y-43242061D01*
X89524381Y-43212208D01*
X89568354Y-43141044D01*
X89610769Y-43030117D01*
X89649291Y-42865355D01*
X89678257Y-42644501D01*
X89690150Y-42390968D01*
X89690170Y-42380838D01*
X89687299Y-42316330D01*
X89678925Y-42259598D01*
X89666238Y-42212622D01*
X89649238Y-42171863D01*
X89628881Y-42137862D01*
X89605021Y-42109037D01*
X89546896Y-42064983D01*
X89472185Y-42036590D01*
X89375364Y-42023799D01*
X89347802Y-42023266D01*
X89112688Y-42037921D01*
X89167276Y-41738876D01*
X89190357Y-41612572D01*
X88997192Y-41593613D01*
X88986496Y-41779232D01*
X88951602Y-42008952D01*
X88942512Y-42054407D01*
X88893804Y-42058399D01*
X88623317Y-42077488D01*
X88434365Y-42077488D01*
G37*
G36*
X91840545Y-42453836D02*
G01*
X91855199Y-42798035D01*
X91937608Y-42831297D01*
X92025687Y-42874862D01*
X92107012Y-42922686D01*
X92205993Y-42991128D01*
X92291997Y-43060077D01*
X92201688Y-43203967D01*
X92126065Y-43138514D01*
X91990801Y-43036185D01*
X91861519Y-42960518D01*
X91863626Y-43049453D01*
X91853039Y-43136713D01*
X91823302Y-43208996D01*
X91775132Y-43268008D01*
X91743633Y-43292626D01*
X91706958Y-43313632D01*
X91664030Y-43331017D01*
X91615406Y-43343962D01*
X91558993Y-43352315D01*
X91496162Y-43355184D01*
X91456283Y-43354220D01*
X91337304Y-43338162D01*
X91242298Y-43305672D01*
X91170331Y-43260249D01*
X91119155Y-43203485D01*
X91100886Y-43170791D01*
X91087412Y-43134734D01*
X91079002Y-43094903D01*
X91076126Y-43051559D01*
X91076229Y-43043575D01*
X91076893Y-43036721D01*
X91231556Y-43036721D01*
X91234801Y-43070116D01*
X91256673Y-43122017D01*
X91275919Y-43144408D01*
X91300655Y-43163622D01*
X91332982Y-43180270D01*
X91371576Y-43192740D01*
X91419764Y-43201098D01*
X91475188Y-43203967D01*
X91540623Y-43198874D01*
X91578938Y-43189673D01*
X91611631Y-43176249D01*
X91639601Y-43158508D01*
X91662308Y-43137117D01*
X91681718Y-43109621D01*
X91695495Y-43078663D01*
X91705143Y-43038146D01*
X91708196Y-42994406D01*
X91706181Y-42899152D01*
X91624140Y-42879073D01*
X91557907Y-42870298D01*
X91489843Y-42867370D01*
X91413478Y-42873843D01*
X91332857Y-42898862D01*
X91276260Y-42936990D01*
X91242873Y-42983532D01*
X91234436Y-43009292D01*
X91231556Y-43036721D01*
X91076893Y-43036721D01*
X91080245Y-43002104D01*
X91089873Y-42963159D01*
X91105416Y-42925641D01*
X91126294Y-42891085D01*
X91153656Y-42858058D01*
X91186148Y-42828611D01*
X91225501Y-42801622D01*
X91269639Y-42778957D01*
X91320071Y-42760178D01*
X91374638Y-42746463D01*
X91433810Y-42737916D01*
X91496162Y-42735020D01*
X91569499Y-42737383D01*
X91701968Y-42756086D01*
X91699574Y-42707319D01*
X91678795Y-42227148D01*
X91842651Y-42227148D01*
X91840545Y-42453836D01*
G37*
G36*
X91347052Y-41576943D02*
G01*
X91329225Y-41650263D01*
X91265170Y-41903648D01*
X91407236Y-41877126D01*
X91594806Y-41825704D01*
X91599019Y-41983607D01*
X91475555Y-42014855D01*
X91216810Y-42061277D01*
X91153763Y-42226299D01*
X91092149Y-42366936D01*
X91023920Y-42507651D01*
X90884172Y-42759562D01*
X90759037Y-42947786D01*
X90597379Y-42863156D01*
X90651581Y-42795876D01*
X90725008Y-42692919D01*
X90796404Y-42580629D01*
X90871222Y-42450155D01*
X90939788Y-42318006D01*
X91046725Y-42078129D01*
X90859879Y-42084357D01*
X90614140Y-42078129D01*
X90603607Y-41920593D01*
X90612269Y-41921733D01*
X90732631Y-41932173D01*
X90859879Y-41935339D01*
X91097192Y-41924806D01*
X91105294Y-41893822D01*
X91146581Y-41703515D01*
X91162221Y-41560090D01*
X91347052Y-41576943D01*
G37*
G36*
X91977301Y-41918549D02*
G01*
X92224751Y-42057091D01*
X92357118Y-42145266D01*
X92262596Y-42283843D01*
X92193932Y-42230726D01*
X92087852Y-42160108D01*
X91971708Y-42091285D01*
X91781743Y-41994140D01*
X91867839Y-41865730D01*
X91977301Y-41918549D01*
G37*
G36*
X83333850Y-60218486D02*
G01*
X83333850Y-60409637D01*
X83571162Y-60401210D01*
X84598081Y-60401210D01*
X84593868Y-60518172D01*
X84782821Y-60518172D01*
X84782385Y-60511329D01*
X84774394Y-60315115D01*
X84774394Y-59226372D01*
X84778701Y-59104152D01*
X84780714Y-59062515D01*
X84625376Y-59066728D01*
X83590030Y-59066728D01*
X83480858Y-59063797D01*
X83368914Y-59055005D01*
X83361144Y-59054089D01*
X83361144Y-59241026D01*
X83592137Y-59234706D01*
X84598081Y-59234706D01*
X84598081Y-60231126D01*
X83566949Y-60231126D01*
X83373359Y-60222475D01*
X83333850Y-60218486D01*
G37*
G36*
X85314140Y-59587607D02*
G01*
X85314140Y-59793504D01*
X85528223Y-59783602D01*
X85606041Y-59782971D01*
X86758898Y-59782971D01*
X86942188Y-59790836D01*
X86983662Y-59793504D01*
X86983662Y-59587607D01*
X86892277Y-59594453D01*
X86756791Y-59598140D01*
X85606041Y-59598140D01*
X85360729Y-59590513D01*
X85314140Y-59587607D01*
G37*
G36*
X88577530Y-58982190D02*
G01*
X88462034Y-59034672D01*
X88561055Y-59187510D01*
X88648971Y-59353866D01*
X88768681Y-59299278D01*
X88684990Y-59149753D01*
X88577530Y-58982190D01*
G37*
G36*
X88831604Y-58877135D02*
G01*
X88716107Y-58931815D01*
X88821399Y-59085579D01*
X88911471Y-59246796D01*
X89029074Y-59187995D01*
X88935693Y-59029856D01*
X88831604Y-58877135D01*
G37*
G36*
X87840405Y-60336639D02*
G01*
X87837453Y-60461054D01*
X87828512Y-60579113D01*
X87827857Y-60584484D01*
X88029449Y-60584484D01*
X88016810Y-60336639D01*
X88016810Y-59645767D01*
X88318455Y-59750253D01*
X88498080Y-59821612D01*
X88671954Y-59897809D01*
X88840030Y-59981723D01*
X88913578Y-59803304D01*
X88676677Y-59696749D01*
X88310480Y-59556275D01*
X88016810Y-59458830D01*
X88016810Y-59114447D01*
X88026485Y-58940769D01*
X88031556Y-58896094D01*
X87823644Y-58896094D01*
X87837208Y-59014515D01*
X87840405Y-59114447D01*
X87840405Y-60336639D01*
G37*
G36*
X90232306Y-59270427D02*
G01*
X90200563Y-59403992D01*
X90163922Y-59531555D01*
X90124920Y-59645777D01*
X90081289Y-59754667D01*
X90035492Y-59852991D01*
X89985263Y-59946478D01*
X89932832Y-60031534D01*
X89876092Y-60112109D01*
X89816875Y-60185916D01*
X89753398Y-60255480D01*
X89686927Y-60319547D01*
X89616162Y-60379505D01*
X89541649Y-60434891D01*
X89462720Y-60486207D01*
X89375563Y-60535391D01*
X89466662Y-60610464D01*
X89518354Y-60661604D01*
X89604346Y-60607807D01*
X89685916Y-60549826D01*
X89762427Y-60488250D01*
X89834781Y-60422503D01*
X89967477Y-60278227D01*
X90085861Y-60114838D01*
X90191158Y-59929388D01*
X90284014Y-59718064D01*
X90362548Y-59483010D01*
X90393475Y-59597762D01*
X90432085Y-59714816D01*
X90473018Y-59818723D01*
X90521099Y-59922851D01*
X90571344Y-60016840D01*
X90628355Y-60109870D01*
X90687551Y-60194692D01*
X90753248Y-60277797D01*
X90821332Y-60354070D01*
X90895755Y-60428081D01*
X90972934Y-60496259D01*
X91056383Y-60561739D01*
X91202530Y-60659497D01*
X91263721Y-60587107D01*
X91330666Y-60524858D01*
X91238550Y-60466817D01*
X91153092Y-60406309D01*
X90998194Y-60276100D01*
X90864315Y-60134484D01*
X90750177Y-59981444D01*
X90654918Y-59816776D01*
X90578087Y-59640226D01*
X90519594Y-59451715D01*
X90479558Y-59251713D01*
X90457911Y-59041922D01*
X90452857Y-58858267D01*
X89778747Y-58858267D01*
X89778747Y-59017819D01*
X90297427Y-59017819D01*
X90307159Y-59145474D01*
X90324721Y-59287280D01*
X90232306Y-59270427D01*
G37*
G36*
X92260957Y-58733886D02*
G01*
X92260957Y-59097503D01*
X92260957Y-59187812D01*
X91574298Y-59187812D01*
X91574298Y-59349562D01*
X92252530Y-59349562D01*
X92239848Y-59467693D01*
X92219127Y-59588642D01*
X92195762Y-59685831D01*
X92165262Y-59783580D01*
X92131844Y-59869504D01*
X92091583Y-59955084D01*
X92048093Y-60032981D01*
X91997834Y-60110002D01*
X91943824Y-60181557D01*
X91882965Y-60251849D01*
X91817608Y-60318033D01*
X91745186Y-60382623D01*
X91667318Y-60443945D01*
X91582040Y-60503355D01*
X91511284Y-60547573D01*
X91575916Y-60603918D01*
X91633008Y-60672320D01*
X91724339Y-60613234D01*
X91808414Y-60552069D01*
X91886216Y-60488411D01*
X91957233Y-60423004D01*
X92082214Y-60285091D01*
X92185607Y-60137811D01*
X92269132Y-59980133D01*
X92333980Y-59810455D01*
X92380877Y-59626425D01*
X92410253Y-59424344D01*
X92416387Y-59349562D01*
X93136659Y-59349562D01*
X93113020Y-59713486D01*
X93087623Y-59996346D01*
X93067008Y-60159086D01*
X93044515Y-60284537D01*
X93025242Y-60359188D01*
X93004380Y-60414378D01*
X92972802Y-60461386D01*
X92953443Y-60478089D01*
X92931964Y-60488347D01*
X92876265Y-60495000D01*
X92745004Y-60492412D01*
X92544431Y-60480345D01*
X92576532Y-60545231D01*
X92597994Y-60632574D01*
X92599019Y-60642003D01*
X92789094Y-60649044D01*
X92935067Y-60646400D01*
X93004097Y-60635042D01*
X93059636Y-60611812D01*
X93111968Y-60564576D01*
X93115593Y-60560121D01*
X93153925Y-60500163D01*
X93189605Y-60394985D01*
X93224399Y-60210350D01*
X93259903Y-59881541D01*
X93300424Y-59271892D01*
X93304637Y-59187812D01*
X92424721Y-59187812D01*
X92424721Y-59097503D01*
X92424721Y-58733886D01*
X92260957Y-58733886D01*
G37*
G36*
X77828293Y-60495000D02*
G01*
X78021550Y-60495000D01*
X78021550Y-58953339D01*
X77828293Y-58953339D01*
X77828293Y-60495000D01*
G37*
G36*
X78442319Y-60495000D02*
G01*
X78625044Y-60495000D01*
X78625044Y-59685334D01*
X78616206Y-59434674D01*
X78610206Y-59338916D01*
X78601963Y-59203291D01*
X78610297Y-59203291D01*
X78776260Y-59521020D01*
X79336889Y-60495000D01*
X79536466Y-60495000D01*
X79536466Y-58953339D01*
X79351635Y-58953339D01*
X79351635Y-59754486D01*
X79361064Y-60009453D01*
X79378134Y-60233364D01*
X79378930Y-60243032D01*
X79368397Y-60243032D01*
X79202525Y-59925395D01*
X78639698Y-58953339D01*
X78442319Y-58953339D01*
X78442319Y-60495000D01*
G37*
G36*
X80386889Y-60524309D02*
G01*
X80453577Y-60521429D01*
X80516460Y-60512995D01*
X80575296Y-60499334D01*
X80629982Y-60480745D01*
X80680210Y-60457606D01*
X80725961Y-60430175D01*
X80766896Y-60398897D01*
X80803045Y-60363966D01*
X80834092Y-60325880D01*
X80860057Y-60284770D01*
X80880688Y-60241140D01*
X80895948Y-60195098D01*
X80905646Y-60147088D01*
X80909673Y-60097261D01*
X80909783Y-60087419D01*
X80906910Y-60032323D01*
X80898527Y-59982122D01*
X80885234Y-59937159D01*
X80867276Y-59896281D01*
X80817261Y-59823841D01*
X80746087Y-59760095D01*
X80646963Y-59700982D01*
X80592603Y-59675717D01*
X80374250Y-59581104D01*
X80372525Y-59580378D01*
X80282441Y-59540119D01*
X80200563Y-59489197D01*
X80167127Y-59457187D01*
X80141053Y-59419452D01*
X80124110Y-59374971D01*
X80118070Y-59322725D01*
X80120958Y-59286030D01*
X80129457Y-59252115D01*
X80161684Y-59194037D01*
X80213742Y-59148162D01*
X80286430Y-59115900D01*
X80380562Y-59100684D01*
X80405757Y-59100068D01*
X80461511Y-59102948D01*
X80514260Y-59111389D01*
X80612275Y-59144176D01*
X80703362Y-59198500D01*
X80756459Y-59242858D01*
X80857209Y-59118935D01*
X80814584Y-59078878D01*
X80767238Y-59042479D01*
X80715729Y-59010348D01*
X80660306Y-58982879D01*
X80602810Y-58961056D01*
X80542317Y-58944641D01*
X80481526Y-58934385D01*
X80418611Y-58930020D01*
X80405757Y-58929891D01*
X80343584Y-58932777D01*
X80284292Y-58941257D01*
X80228129Y-58955090D01*
X80175550Y-58973996D01*
X80127258Y-58997507D01*
X80083176Y-59025483D01*
X80044276Y-59057079D01*
X80010092Y-59092484D01*
X79981558Y-59130510D01*
X79958132Y-59171698D01*
X79940468Y-59214761D01*
X79928242Y-59260399D01*
X79920691Y-59337472D01*
X79923536Y-59386615D01*
X79931727Y-59431953D01*
X79963135Y-59513887D01*
X80014160Y-59586218D01*
X80086046Y-59650754D01*
X80180983Y-59708110D01*
X80233566Y-59732412D01*
X80454026Y-59829041D01*
X80556400Y-59877069D01*
X80600350Y-59902650D01*
X80638295Y-59931211D01*
X80669350Y-59964202D01*
X80692627Y-60003075D01*
X80707244Y-60049282D01*
X80712312Y-60104272D01*
X80709408Y-60143463D01*
X80700799Y-60180058D01*
X80687041Y-60213064D01*
X80668141Y-60243157D01*
X80615568Y-60293692D01*
X80542423Y-60330642D01*
X80447295Y-60351269D01*
X80388904Y-60354224D01*
X80281186Y-60342918D01*
X80172956Y-60308660D01*
X80068969Y-60251721D01*
X79975642Y-60174322D01*
X79964746Y-60163073D01*
X79849250Y-60297529D01*
X79896815Y-60343134D01*
X79948476Y-60384420D01*
X80003112Y-60420505D01*
X80061313Y-60451757D01*
X80121613Y-60477382D01*
X80184957Y-60497752D01*
X80249751Y-60512314D01*
X80317110Y-60521261D01*
X80386889Y-60524309D01*
G37*
X73708207Y-53774580D02*
X73660588Y-53822200D01*
X73660588Y-53822200D02*
X73517731Y-53869819D01*
X73517731Y-53869819D02*
X73422493Y-53869819D01*
X73422493Y-53869819D02*
X73279636Y-53822200D01*
X73279636Y-53822200D02*
X73184398Y-53726961D01*
X73184398Y-53726961D02*
X73136779Y-53631723D01*
X73136779Y-53631723D02*
X73089160Y-53441247D01*
X73089160Y-53441247D02*
X73089160Y-53298390D01*
X73089160Y-53298390D02*
X73136779Y-53107914D01*
X73136779Y-53107914D02*
X73184398Y-53012676D01*
X73184398Y-53012676D02*
X73279636Y-52917438D01*
X73279636Y-52917438D02*
X73422493Y-52869819D01*
X73422493Y-52869819D02*
X73517731Y-52869819D01*
X73517731Y-52869819D02*
X73660588Y-52917438D01*
X73660588Y-52917438D02*
X73708207Y-52965057D01*
X74327255Y-52869819D02*
X74517731Y-52869819D01*
X74517731Y-52869819D02*
X74612969Y-52917438D01*
X74612969Y-52917438D02*
X74708207Y-53012676D01*
X74708207Y-53012676D02*
X74755826Y-53203152D01*
X74755826Y-53203152D02*
X74755826Y-53536485D01*
X74755826Y-53536485D02*
X74708207Y-53726961D01*
X74708207Y-53726961D02*
X74612969Y-53822200D01*
X74612969Y-53822200D02*
X74517731Y-53869819D01*
X74517731Y-53869819D02*
X74327255Y-53869819D01*
X74327255Y-53869819D02*
X74232017Y-53822200D01*
X74232017Y-53822200D02*
X74136779Y-53726961D01*
X74136779Y-53726961D02*
X74089160Y-53536485D01*
X74089160Y-53536485D02*
X74089160Y-53203152D01*
X74089160Y-53203152D02*
X74136779Y-53012676D01*
X74136779Y-53012676D02*
X74232017Y-52917438D01*
X74232017Y-52917438D02*
X74327255Y-52869819D01*
X75041541Y-52869819D02*
X75612969Y-52869819D01*
X75327255Y-53869819D02*
X75327255Y-52869819D01*
X75803446Y-52869819D02*
X76374874Y-52869819D01*
X76089160Y-53869819D02*
X76089160Y-52869819D01*
X76898684Y-52869819D02*
X77089160Y-52869819D01*
X77089160Y-52869819D02*
X77184398Y-52917438D01*
X77184398Y-52917438D02*
X77279636Y-53012676D01*
X77279636Y-53012676D02*
X77327255Y-53203152D01*
X77327255Y-53203152D02*
X77327255Y-53536485D01*
X77327255Y-53536485D02*
X77279636Y-53726961D01*
X77279636Y-53726961D02*
X77184398Y-53822200D01*
X77184398Y-53822200D02*
X77089160Y-53869819D01*
X77089160Y-53869819D02*
X76898684Y-53869819D01*
X76898684Y-53869819D02*
X76803446Y-53822200D01*
X76803446Y-53822200D02*
X76708208Y-53726961D01*
X76708208Y-53726961D02*
X76660589Y-53536485D01*
X76660589Y-53536485D02*
X76660589Y-53203152D01*
X76660589Y-53203152D02*
X76708208Y-53012676D01*
X76708208Y-53012676D02*
X76803446Y-52917438D01*
X76803446Y-52917438D02*
X76898684Y-52869819D01*
X77755827Y-53869819D02*
X77755827Y-52869819D01*
X77755827Y-52869819D02*
X78327255Y-53869819D01*
X78327255Y-53869819D02*
X78327255Y-52869819D01*
X79565351Y-53346009D02*
X79898684Y-53346009D01*
X80041541Y-53869819D02*
X79565351Y-53869819D01*
X79565351Y-53869819D02*
X79565351Y-52869819D01*
X79565351Y-52869819D02*
X80041541Y-52869819D01*
X80470113Y-53203152D02*
X80470113Y-53869819D01*
X80470113Y-53298390D02*
X80517732Y-53250771D01*
X80517732Y-53250771D02*
X80612970Y-53203152D01*
X80612970Y-53203152D02*
X80755827Y-53203152D01*
X80755827Y-53203152D02*
X80851065Y-53250771D01*
X80851065Y-53250771D02*
X80898684Y-53346009D01*
X80898684Y-53346009D02*
X80898684Y-53869819D01*
X81374875Y-53869819D02*
X81374875Y-52869819D01*
X81803446Y-53869819D02*
X81803446Y-53346009D01*
X81803446Y-53346009D02*
X81755827Y-53250771D01*
X81755827Y-53250771D02*
X81660589Y-53203152D01*
X81660589Y-53203152D02*
X81517732Y-53203152D01*
X81517732Y-53203152D02*
X81422494Y-53250771D01*
X81422494Y-53250771D02*
X81374875Y-53298390D01*
X82708208Y-53869819D02*
X82708208Y-53346009D01*
X82708208Y-53346009D02*
X82660589Y-53250771D01*
X82660589Y-53250771D02*
X82565351Y-53203152D01*
X82565351Y-53203152D02*
X82374875Y-53203152D01*
X82374875Y-53203152D02*
X82279637Y-53250771D01*
X82708208Y-53822200D02*
X82612970Y-53869819D01*
X82612970Y-53869819D02*
X82374875Y-53869819D01*
X82374875Y-53869819D02*
X82279637Y-53822200D01*
X82279637Y-53822200D02*
X82232018Y-53726961D01*
X82232018Y-53726961D02*
X82232018Y-53631723D01*
X82232018Y-53631723D02*
X82279637Y-53536485D01*
X82279637Y-53536485D02*
X82374875Y-53488866D01*
X82374875Y-53488866D02*
X82612970Y-53488866D01*
X82612970Y-53488866D02*
X82708208Y-53441247D01*
X83184399Y-53203152D02*
X83184399Y-53869819D01*
X83184399Y-53298390D02*
X83232018Y-53250771D01*
X83232018Y-53250771D02*
X83327256Y-53203152D01*
X83327256Y-53203152D02*
X83470113Y-53203152D01*
X83470113Y-53203152D02*
X83565351Y-53250771D01*
X83565351Y-53250771D02*
X83612970Y-53346009D01*
X83612970Y-53346009D02*
X83612970Y-53869819D01*
X84517732Y-53822200D02*
X84422494Y-53869819D01*
X84422494Y-53869819D02*
X84232018Y-53869819D01*
X84232018Y-53869819D02*
X84136780Y-53822200D01*
X84136780Y-53822200D02*
X84089161Y-53774580D01*
X84089161Y-53774580D02*
X84041542Y-53679342D01*
X84041542Y-53679342D02*
X84041542Y-53393628D01*
X84041542Y-53393628D02*
X84089161Y-53298390D01*
X84089161Y-53298390D02*
X84136780Y-53250771D01*
X84136780Y-53250771D02*
X84232018Y-53203152D01*
X84232018Y-53203152D02*
X84422494Y-53203152D01*
X84422494Y-53203152D02*
X84517732Y-53250771D01*
X85327256Y-53822200D02*
X85232018Y-53869819D01*
X85232018Y-53869819D02*
X85041542Y-53869819D01*
X85041542Y-53869819D02*
X84946304Y-53822200D01*
X84946304Y-53822200D02*
X84898685Y-53726961D01*
X84898685Y-53726961D02*
X84898685Y-53346009D01*
X84898685Y-53346009D02*
X84946304Y-53250771D01*
X84946304Y-53250771D02*
X85041542Y-53203152D01*
X85041542Y-53203152D02*
X85232018Y-53203152D01*
X85232018Y-53203152D02*
X85327256Y-53250771D01*
X85327256Y-53250771D02*
X85374875Y-53346009D01*
X85374875Y-53346009D02*
X85374875Y-53441247D01*
X85374875Y-53441247D02*
X84898685Y-53536485D01*
X85803447Y-53869819D02*
X85803447Y-53203152D01*
X85803447Y-53298390D02*
X85851066Y-53250771D01*
X85851066Y-53250771D02*
X85946304Y-53203152D01*
X85946304Y-53203152D02*
X86089161Y-53203152D01*
X86089161Y-53203152D02*
X86184399Y-53250771D01*
X86184399Y-53250771D02*
X86232018Y-53346009D01*
X86232018Y-53346009D02*
X86232018Y-53869819D01*
X86232018Y-53346009D02*
X86279637Y-53250771D01*
X86279637Y-53250771D02*
X86374875Y-53203152D01*
X86374875Y-53203152D02*
X86517732Y-53203152D01*
X86517732Y-53203152D02*
X86612971Y-53250771D01*
X86612971Y-53250771D02*
X86660590Y-53346009D01*
X86660590Y-53346009D02*
X86660590Y-53869819D01*
X87517732Y-53822200D02*
X87422494Y-53869819D01*
X87422494Y-53869819D02*
X87232018Y-53869819D01*
X87232018Y-53869819D02*
X87136780Y-53822200D01*
X87136780Y-53822200D02*
X87089161Y-53726961D01*
X87089161Y-53726961D02*
X87089161Y-53346009D01*
X87089161Y-53346009D02*
X87136780Y-53250771D01*
X87136780Y-53250771D02*
X87232018Y-53203152D01*
X87232018Y-53203152D02*
X87422494Y-53203152D01*
X87422494Y-53203152D02*
X87517732Y-53250771D01*
X87517732Y-53250771D02*
X87565351Y-53346009D01*
X87565351Y-53346009D02*
X87565351Y-53441247D01*
X87565351Y-53441247D02*
X87089161Y-53536485D01*
X87993923Y-53203152D02*
X87993923Y-53869819D01*
X87993923Y-53298390D02*
X88041542Y-53250771D01*
X88041542Y-53250771D02*
X88136780Y-53203152D01*
X88136780Y-53203152D02*
X88279637Y-53203152D01*
X88279637Y-53203152D02*
X88374875Y-53250771D01*
X88374875Y-53250771D02*
X88422494Y-53346009D01*
X88422494Y-53346009D02*
X88422494Y-53869819D01*
X88755828Y-53203152D02*
X89136780Y-53203152D01*
X88898685Y-52869819D02*
X88898685Y-53726961D01*
X88898685Y-53726961D02*
X88946304Y-53822200D01*
X88946304Y-53822200D02*
X89041542Y-53869819D01*
X89041542Y-53869819D02*
X89136780Y-53869819D01*
X90232019Y-53869819D02*
X90232019Y-52869819D01*
X90232019Y-52869819D02*
X90565352Y-53584104D01*
X90565352Y-53584104D02*
X90898685Y-52869819D01*
X90898685Y-52869819D02*
X90898685Y-53869819D01*
X91517733Y-53869819D02*
X91422495Y-53822200D01*
X91422495Y-53822200D02*
X91374876Y-53774580D01*
X91374876Y-53774580D02*
X91327257Y-53679342D01*
X91327257Y-53679342D02*
X91327257Y-53393628D01*
X91327257Y-53393628D02*
X91374876Y-53298390D01*
X91374876Y-53298390D02*
X91422495Y-53250771D01*
X91422495Y-53250771D02*
X91517733Y-53203152D01*
X91517733Y-53203152D02*
X91660590Y-53203152D01*
X91660590Y-53203152D02*
X91755828Y-53250771D01*
X91755828Y-53250771D02*
X91803447Y-53298390D01*
X91803447Y-53298390D02*
X91851066Y-53393628D01*
X91851066Y-53393628D02*
X91851066Y-53679342D01*
X91851066Y-53679342D02*
X91803447Y-53774580D01*
X91803447Y-53774580D02*
X91755828Y-53822200D01*
X91755828Y-53822200D02*
X91660590Y-53869819D01*
X91660590Y-53869819D02*
X91517733Y-53869819D01*
X92708209Y-53869819D02*
X92708209Y-52869819D01*
X92708209Y-53822200D02*
X92612971Y-53869819D01*
X92612971Y-53869819D02*
X92422495Y-53869819D01*
X92422495Y-53869819D02*
X92327257Y-53822200D01*
X92327257Y-53822200D02*
X92279638Y-53774580D01*
X92279638Y-53774580D02*
X92232019Y-53679342D01*
X92232019Y-53679342D02*
X92232019Y-53393628D01*
X92232019Y-53393628D02*
X92279638Y-53298390D01*
X92279638Y-53298390D02*
X92327257Y-53250771D01*
X92327257Y-53250771D02*
X92422495Y-53203152D01*
X92422495Y-53203152D02*
X92612971Y-53203152D01*
X92612971Y-53203152D02*
X92708209Y-53250771D01*
X93612971Y-53203152D02*
X93612971Y-53869819D01*
X93184400Y-53203152D02*
X93184400Y-53726961D01*
X93184400Y-53726961D02*
X93232019Y-53822200D01*
X93232019Y-53822200D02*
X93327257Y-53869819D01*
X93327257Y-53869819D02*
X93470114Y-53869819D01*
X93470114Y-53869819D02*
X93565352Y-53822200D01*
X93565352Y-53822200D02*
X93612971Y-53774580D01*
X94232019Y-53869819D02*
X94136781Y-53822200D01*
X94136781Y-53822200D02*
X94089162Y-53726961D01*
X94089162Y-53726961D02*
X94089162Y-52869819D01*
X94993924Y-53822200D02*
X94898686Y-53869819D01*
X94898686Y-53869819D02*
X94708210Y-53869819D01*
X94708210Y-53869819D02*
X94612972Y-53822200D01*
X94612972Y-53822200D02*
X94565353Y-53726961D01*
X94565353Y-53726961D02*
X94565353Y-53346009D01*
X94565353Y-53346009D02*
X94612972Y-53250771D01*
X94612972Y-53250771D02*
X94708210Y-53203152D01*
X94708210Y-53203152D02*
X94898686Y-53203152D01*
X94898686Y-53203152D02*
X94993924Y-53250771D01*
X94993924Y-53250771D02*
X95041543Y-53346009D01*
X95041543Y-53346009D02*
X95041543Y-53441247D01*
X95041543Y-53441247D02*
X94565353Y-53536485D01*
G36*
X68368558Y-60524309D02*
G01*
X68433038Y-60521403D01*
X68494124Y-60512790D01*
X68551013Y-60498907D01*
X68604917Y-60479803D01*
X68705053Y-60426042D01*
X68797844Y-60349950D01*
X68841076Y-60303849D01*
X68734006Y-60179926D01*
X68686000Y-60228454D01*
X68635546Y-60269832D01*
X68589870Y-60299261D01*
X68541632Y-60322733D01*
X68494639Y-60338806D01*
X68444903Y-60349308D01*
X68376984Y-60354224D01*
X68322463Y-60351318D01*
X68270684Y-60342701D01*
X68222529Y-60328794D01*
X68177249Y-60309646D01*
X68095955Y-60256370D01*
X68026623Y-60182907D01*
X67970031Y-60088364D01*
X67928032Y-59971539D01*
X67903370Y-59831578D01*
X67898146Y-59721879D01*
X67901042Y-59642565D01*
X67909584Y-59567854D01*
X67923223Y-59499311D01*
X67941876Y-59435550D01*
X67964700Y-59378149D01*
X67991914Y-59325634D01*
X68022455Y-59279350D01*
X68056808Y-59238012D01*
X68093888Y-59202549D01*
X68134283Y-59172098D01*
X68177161Y-59147142D01*
X68222946Y-59127328D01*
X68271307Y-59112835D01*
X68322250Y-59103722D01*
X68383304Y-59100068D01*
X68432908Y-59102931D01*
X68479541Y-59111251D01*
X68566584Y-59143691D01*
X68647995Y-59197834D01*
X68698286Y-59244965D01*
X68803249Y-59118935D01*
X68762631Y-59078034D01*
X68715360Y-59039495D01*
X68665588Y-59006901D01*
X68610566Y-58978648D01*
X68555869Y-58957549D01*
X68497191Y-58941850D01*
X68440679Y-58932986D01*
X68381198Y-58929891D01*
X68315367Y-58932803D01*
X68251678Y-58941462D01*
X68190871Y-58955605D01*
X68132589Y-58975170D01*
X68077407Y-58999861D01*
X68025128Y-59029682D01*
X67976127Y-59064390D01*
X67930414Y-59103975D01*
X67888186Y-59148336D01*
X67849652Y-59197359D01*
X67814894Y-59251145D01*
X67784269Y-59309410D01*
X67757825Y-59372465D01*
X67735985Y-59439835D01*
X67718841Y-59512001D01*
X67706803Y-59588324D01*
X67698661Y-59728199D01*
X67701555Y-59813821D01*
X67710086Y-59895148D01*
X67723865Y-59971323D01*
X67742732Y-60043072D01*
X67766196Y-60109607D01*
X67794219Y-60171598D01*
X67826252Y-60228405D01*
X67862343Y-60280554D01*
X67901971Y-60327603D01*
X67945195Y-60369866D01*
X67991625Y-60407108D01*
X68041225Y-60439405D01*
X68149226Y-60488799D01*
X68268205Y-60517306D01*
X68368558Y-60524309D01*
G37*
G36*
X70184717Y-60495000D02*
G01*
X69978912Y-60495000D01*
X69831909Y-60026053D01*
X69269081Y-60026053D01*
X69119971Y-60495000D01*
X68924699Y-60495000D01*
X69134877Y-59872821D01*
X69317442Y-59872821D01*
X69783640Y-59872821D01*
X69710092Y-59634318D01*
X69630053Y-59374177D01*
X69554754Y-59110875D01*
X69546328Y-59110875D01*
X69472001Y-59374967D01*
X69393004Y-59634318D01*
X69317442Y-59872821D01*
X69134877Y-59872821D01*
X69445486Y-58953339D01*
X69661824Y-58953339D01*
X70184717Y-60495000D01*
G37*
G36*
X70925079Y-58955668D02*
G01*
X71065621Y-58973728D01*
X71175685Y-59007036D01*
X71261457Y-59053770D01*
X71327474Y-59113940D01*
X71353986Y-59149698D01*
X71376206Y-59189602D01*
X71394328Y-59234855D01*
X71407625Y-59284745D01*
X71416192Y-59342104D01*
X71419090Y-59404883D01*
X71418102Y-59441296D01*
X71401163Y-59550906D01*
X71385310Y-59599134D01*
X71364746Y-59643386D01*
X71339231Y-59684286D01*
X71309223Y-59721172D01*
X71273389Y-59755367D01*
X71233085Y-59785299D01*
X71185575Y-59812495D01*
X71133495Y-59834987D01*
X71072729Y-59853974D01*
X71007280Y-59867667D01*
X70932049Y-59876562D01*
X70852141Y-59879508D01*
X70598068Y-59879508D01*
X70598068Y-60495000D01*
X70404811Y-60495000D01*
X70404811Y-59722062D01*
X70598068Y-59722062D01*
X70826954Y-59722062D01*
X70851639Y-59721785D01*
X70976529Y-59709476D01*
X71067777Y-59681858D01*
X71134598Y-59640814D01*
X71160955Y-59614795D01*
X71182780Y-59584964D01*
X71200929Y-59549300D01*
X71214123Y-59509239D01*
X71222984Y-59459841D01*
X71225925Y-59404883D01*
X71219800Y-59329240D01*
X71196243Y-59255427D01*
X71177822Y-59225027D01*
X71154985Y-59198719D01*
X71125263Y-59174596D01*
X71090370Y-59154774D01*
X71043068Y-59136715D01*
X70988726Y-59123750D01*
X70909321Y-59113950D01*
X70818528Y-59110875D01*
X70598068Y-59110875D01*
X70598068Y-59722062D01*
X70404811Y-59722062D01*
X70404811Y-58953339D01*
X70843715Y-58953339D01*
X70925079Y-58955668D01*
G37*
G36*
X72136889Y-60524309D02*
G01*
X72203577Y-60521429D01*
X72266460Y-60512995D01*
X72325296Y-60499334D01*
X72379982Y-60480745D01*
X72430210Y-60457606D01*
X72475961Y-60430175D01*
X72516897Y-60398897D01*
X72553045Y-60363966D01*
X72584092Y-60325880D01*
X72610057Y-60284770D01*
X72630688Y-60241140D01*
X72645948Y-60195098D01*
X72655646Y-60147088D01*
X72659673Y-60097261D01*
X72659783Y-60087419D01*
X72656910Y-60032323D01*
X72648527Y-59982122D01*
X72635234Y-59937159D01*
X72617276Y-59896281D01*
X72567261Y-59823841D01*
X72496087Y-59760095D01*
X72396963Y-59700982D01*
X72342603Y-59675717D01*
X72124250Y-59581104D01*
X72122526Y-59580378D01*
X72032441Y-59540119D01*
X71950563Y-59489197D01*
X71917127Y-59457187D01*
X71891053Y-59419452D01*
X71874110Y-59374971D01*
X71868070Y-59322725D01*
X71870959Y-59286030D01*
X71879457Y-59252115D01*
X71911685Y-59194037D01*
X71963742Y-59148162D01*
X72036430Y-59115900D01*
X72130562Y-59100684D01*
X72155757Y-59100068D01*
X72211511Y-59102948D01*
X72264260Y-59111389D01*
X72362275Y-59144176D01*
X72453362Y-59198500D01*
X72506459Y-59242858D01*
X72607210Y-59118935D01*
X72564584Y-59078878D01*
X72517238Y-59042479D01*
X72465729Y-59010348D01*
X72410306Y-58982879D01*
X72352810Y-58961056D01*
X72292318Y-58944641D01*
X72231526Y-58934385D01*
X72168611Y-58930020D01*
X72155757Y-58929891D01*
X72093584Y-58932777D01*
X72034292Y-58941257D01*
X71978129Y-58955090D01*
X71925550Y-58973996D01*
X71877258Y-58997507D01*
X71833176Y-59025483D01*
X71794276Y-59057079D01*
X71760092Y-59092484D01*
X71731558Y-59130510D01*
X71708133Y-59171698D01*
X71690468Y-59214761D01*
X71678243Y-59260399D01*
X71670691Y-59337472D01*
X71673536Y-59386615D01*
X71681727Y-59431953D01*
X71713135Y-59513887D01*
X71764160Y-59586218D01*
X71836046Y-59650754D01*
X71930983Y-59708110D01*
X71983566Y-59732412D01*
X72204026Y-59829041D01*
X72306400Y-59877069D01*
X72350350Y-59902650D01*
X72388295Y-59931211D01*
X72419350Y-59964202D01*
X72442628Y-60003075D01*
X72457244Y-60049282D01*
X72462312Y-60104272D01*
X72459408Y-60143463D01*
X72450799Y-60180058D01*
X72437041Y-60213064D01*
X72418141Y-60243157D01*
X72365568Y-60293692D01*
X72292423Y-60330642D01*
X72197295Y-60351269D01*
X72138904Y-60354224D01*
X72031187Y-60342918D01*
X71922956Y-60308660D01*
X71818970Y-60251721D01*
X71725642Y-60174322D01*
X71714746Y-60163073D01*
X71599250Y-60297529D01*
X71646815Y-60343134D01*
X71698476Y-60384420D01*
X71753112Y-60420505D01*
X71811313Y-60451757D01*
X71871613Y-60477382D01*
X71934957Y-60497752D01*
X71999752Y-60512314D01*
X72067110Y-60521261D01*
X72136889Y-60524309D01*
G37*
X91857143Y-73054819D02*
X92523809Y-73054819D01*
X92523809Y-73054819D02*
X92095238Y-74054819D01*
X93333333Y-73388152D02*
X93333333Y-74054819D01*
X93095238Y-73007200D02*
X92857143Y-73721485D01*
X92857143Y-73721485D02*
X93476190Y-73721485D01*
X93857143Y-74054819D02*
X93857143Y-73054819D01*
X93857143Y-73531009D02*
X94428571Y-73531009D01*
X94428571Y-74054819D02*
X94428571Y-73054819D01*
X95476190Y-73959580D02*
X95428571Y-74007200D01*
X95428571Y-74007200D02*
X95285714Y-74054819D01*
X95285714Y-74054819D02*
X95190476Y-74054819D01*
X95190476Y-74054819D02*
X95047619Y-74007200D01*
X95047619Y-74007200D02*
X94952381Y-73911961D01*
X94952381Y-73911961D02*
X94904762Y-73816723D01*
X94904762Y-73816723D02*
X94857143Y-73626247D01*
X94857143Y-73626247D02*
X94857143Y-73483390D01*
X94857143Y-73483390D02*
X94904762Y-73292914D01*
X94904762Y-73292914D02*
X94952381Y-73197676D01*
X94952381Y-73197676D02*
X95047619Y-73102438D01*
X95047619Y-73102438D02*
X95190476Y-73054819D01*
X95190476Y-73054819D02*
X95285714Y-73054819D01*
X95285714Y-73054819D02*
X95428571Y-73102438D01*
X95428571Y-73102438D02*
X95476190Y-73150057D01*
X95761905Y-73054819D02*
X96333333Y-73054819D01*
X96047619Y-74054819D02*
X96047619Y-73054819D01*
X97142857Y-73054819D02*
X96666667Y-73054819D01*
X96666667Y-73054819D02*
X96619048Y-73531009D01*
X96619048Y-73531009D02*
X96666667Y-73483390D01*
X96666667Y-73483390D02*
X96761905Y-73435771D01*
X96761905Y-73435771D02*
X97000000Y-73435771D01*
X97000000Y-73435771D02*
X97095238Y-73483390D01*
X97095238Y-73483390D02*
X97142857Y-73531009D01*
X97142857Y-73531009D02*
X97190476Y-73626247D01*
X97190476Y-73626247D02*
X97190476Y-73864342D01*
X97190476Y-73864342D02*
X97142857Y-73959580D01*
X97142857Y-73959580D02*
X97095238Y-74007200D01*
X97095238Y-74007200D02*
X97000000Y-74054819D01*
X97000000Y-74054819D02*
X96761905Y-74054819D01*
X96761905Y-74054819D02*
X96666667Y-74007200D01*
X96666667Y-74007200D02*
X96619048Y-73959580D01*
X97666667Y-74054819D02*
X97857143Y-74054819D01*
X97857143Y-74054819D02*
X97952381Y-74007200D01*
X97952381Y-74007200D02*
X98000000Y-73959580D01*
X98000000Y-73959580D02*
X98095238Y-73816723D01*
X98095238Y-73816723D02*
X98142857Y-73626247D01*
X98142857Y-73626247D02*
X98142857Y-73245295D01*
X98142857Y-73245295D02*
X98095238Y-73150057D01*
X98095238Y-73150057D02*
X98047619Y-73102438D01*
X98047619Y-73102438D02*
X97952381Y-73054819D01*
X97952381Y-73054819D02*
X97761905Y-73054819D01*
X97761905Y-73054819D02*
X97666667Y-73102438D01*
X97666667Y-73102438D02*
X97619048Y-73150057D01*
X97619048Y-73150057D02*
X97571429Y-73245295D01*
X97571429Y-73245295D02*
X97571429Y-73483390D01*
X97571429Y-73483390D02*
X97619048Y-73578628D01*
X97619048Y-73578628D02*
X97666667Y-73626247D01*
X97666667Y-73626247D02*
X97761905Y-73673866D01*
X97761905Y-73673866D02*
X97952381Y-73673866D01*
X97952381Y-73673866D02*
X98047619Y-73626247D01*
X98047619Y-73626247D02*
X98095238Y-73578628D01*
X98095238Y-73578628D02*
X98142857Y-73483390D01*
X99047619Y-73054819D02*
X98571429Y-73054819D01*
X98571429Y-73054819D02*
X98523810Y-73531009D01*
X98523810Y-73531009D02*
X98571429Y-73483390D01*
X98571429Y-73483390D02*
X98666667Y-73435771D01*
X98666667Y-73435771D02*
X98904762Y-73435771D01*
X98904762Y-73435771D02*
X99000000Y-73483390D01*
X99000000Y-73483390D02*
X99047619Y-73531009D01*
X99047619Y-73531009D02*
X99095238Y-73626247D01*
X99095238Y-73626247D02*
X99095238Y-73864342D01*
X99095238Y-73864342D02*
X99047619Y-73959580D01*
X99047619Y-73959580D02*
X99000000Y-74007200D01*
X99000000Y-74007200D02*
X98904762Y-74054819D01*
X98904762Y-74054819D02*
X98666667Y-74054819D01*
X98666667Y-74054819D02*
X98571429Y-74007200D01*
X98571429Y-74007200D02*
X98523810Y-73959580D01*
X70257143Y-73754819D02*
X70923809Y-73754819D01*
X70923809Y-73754819D02*
X70495238Y-74754819D01*
X71733333Y-74088152D02*
X71733333Y-74754819D01*
X71495238Y-73707200D02*
X71257143Y-74421485D01*
X71257143Y-74421485D02*
X71876190Y-74421485D01*
X72257143Y-74754819D02*
X72257143Y-73754819D01*
X72257143Y-74231009D02*
X72828571Y-74231009D01*
X72828571Y-74754819D02*
X72828571Y-73754819D01*
X73876190Y-74659580D02*
X73828571Y-74707200D01*
X73828571Y-74707200D02*
X73685714Y-74754819D01*
X73685714Y-74754819D02*
X73590476Y-74754819D01*
X73590476Y-74754819D02*
X73447619Y-74707200D01*
X73447619Y-74707200D02*
X73352381Y-74611961D01*
X73352381Y-74611961D02*
X73304762Y-74516723D01*
X73304762Y-74516723D02*
X73257143Y-74326247D01*
X73257143Y-74326247D02*
X73257143Y-74183390D01*
X73257143Y-74183390D02*
X73304762Y-73992914D01*
X73304762Y-73992914D02*
X73352381Y-73897676D01*
X73352381Y-73897676D02*
X73447619Y-73802438D01*
X73447619Y-73802438D02*
X73590476Y-73754819D01*
X73590476Y-73754819D02*
X73685714Y-73754819D01*
X73685714Y-73754819D02*
X73828571Y-73802438D01*
X73828571Y-73802438D02*
X73876190Y-73850057D01*
X74161905Y-73754819D02*
X74733333Y-73754819D01*
X74447619Y-74754819D02*
X74447619Y-73754819D01*
X75542857Y-73754819D02*
X75066667Y-73754819D01*
X75066667Y-73754819D02*
X75019048Y-74231009D01*
X75019048Y-74231009D02*
X75066667Y-74183390D01*
X75066667Y-74183390D02*
X75161905Y-74135771D01*
X75161905Y-74135771D02*
X75400000Y-74135771D01*
X75400000Y-74135771D02*
X75495238Y-74183390D01*
X75495238Y-74183390D02*
X75542857Y-74231009D01*
X75542857Y-74231009D02*
X75590476Y-74326247D01*
X75590476Y-74326247D02*
X75590476Y-74564342D01*
X75590476Y-74564342D02*
X75542857Y-74659580D01*
X75542857Y-74659580D02*
X75495238Y-74707200D01*
X75495238Y-74707200D02*
X75400000Y-74754819D01*
X75400000Y-74754819D02*
X75161905Y-74754819D01*
X75161905Y-74754819D02*
X75066667Y-74707200D01*
X75066667Y-74707200D02*
X75019048Y-74659580D01*
X76066667Y-74754819D02*
X76257143Y-74754819D01*
X76257143Y-74754819D02*
X76352381Y-74707200D01*
X76352381Y-74707200D02*
X76400000Y-74659580D01*
X76400000Y-74659580D02*
X76495238Y-74516723D01*
X76495238Y-74516723D02*
X76542857Y-74326247D01*
X76542857Y-74326247D02*
X76542857Y-73945295D01*
X76542857Y-73945295D02*
X76495238Y-73850057D01*
X76495238Y-73850057D02*
X76447619Y-73802438D01*
X76447619Y-73802438D02*
X76352381Y-73754819D01*
X76352381Y-73754819D02*
X76161905Y-73754819D01*
X76161905Y-73754819D02*
X76066667Y-73802438D01*
X76066667Y-73802438D02*
X76019048Y-73850057D01*
X76019048Y-73850057D02*
X75971429Y-73945295D01*
X75971429Y-73945295D02*
X75971429Y-74183390D01*
X75971429Y-74183390D02*
X76019048Y-74278628D01*
X76019048Y-74278628D02*
X76066667Y-74326247D01*
X76066667Y-74326247D02*
X76161905Y-74373866D01*
X76161905Y-74373866D02*
X76352381Y-74373866D01*
X76352381Y-74373866D02*
X76447619Y-74326247D01*
X76447619Y-74326247D02*
X76495238Y-74278628D01*
X76495238Y-74278628D02*
X76542857Y-74183390D01*
X77447619Y-73754819D02*
X76971429Y-73754819D01*
X76971429Y-73754819D02*
X76923810Y-74231009D01*
X76923810Y-74231009D02*
X76971429Y-74183390D01*
X76971429Y-74183390D02*
X77066667Y-74135771D01*
X77066667Y-74135771D02*
X77304762Y-74135771D01*
X77304762Y-74135771D02*
X77400000Y-74183390D01*
X77400000Y-74183390D02*
X77447619Y-74231009D01*
X77447619Y-74231009D02*
X77495238Y-74326247D01*
X77495238Y-74326247D02*
X77495238Y-74564342D01*
X77495238Y-74564342D02*
X77447619Y-74659580D01*
X77447619Y-74659580D02*
X77400000Y-74707200D01*
X77400000Y-74707200D02*
X77304762Y-74754819D01*
X77304762Y-74754819D02*
X77066667Y-74754819D01*
X77066667Y-74754819D02*
X76971429Y-74707200D01*
X76971429Y-74707200D02*
X76923810Y-74659580D01*
D11*
%TO.C,D3*%
X77765000Y-52255000D02*
X80855000Y-52255000D01*
X77765170Y-52255000D02*
G75*
G02*
X79310000Y-46705000I1544830J2560000D01*
G01*
X79310000Y-46705000D02*
G75*
G02*
X80854830Y-52255000I0J-2990000D01*
G01*
X81810000Y-49695000D02*
G75*
G02*
X76810000Y-49695000I-2500000J0D01*
G01*
X76810000Y-49695000D02*
G75*
G02*
X81810000Y-49695000I2500000J0D01*
G01*
%TO.C,D12*%
X86710000Y-63485000D02*
X90595000Y-63485000D01*
X90595000Y-61215000D02*
X86710000Y-61215000D01*
X90595000Y-63485000D02*
X90595000Y-61215000D01*
%TO.C,D11*%
X68790000Y-63485000D02*
X72675000Y-63485000D01*
X72675000Y-61215000D02*
X68790000Y-61215000D01*
X72675000Y-63485000D02*
X72675000Y-61215000D01*
%TO.C,U1*%
X79240000Y-72345000D02*
X79240000Y-73995000D01*
X79240000Y-75995000D02*
X79240000Y-77645000D01*
X79240000Y-77645000D02*
X99680000Y-77645000D01*
X99680000Y-72345000D02*
X79240000Y-72345000D01*
X99680000Y-77645000D02*
X99680000Y-72345000D01*
X79240000Y-73995000D02*
G75*
G02*
X79240000Y-75995000I0J-1000000D01*
G01*
%TO.C,D1*%
X68765000Y-52255000D02*
X71855000Y-52255000D01*
X68765170Y-52255000D02*
G75*
G02*
X70310000Y-46705000I1544830J2560000D01*
G01*
X70310000Y-46705000D02*
G75*
G02*
X71854830Y-52255000I0J-2990000D01*
G01*
X72810000Y-49695000D02*
G75*
G02*
X67810000Y-49695000I-2500000J0D01*
G01*
X67810000Y-49695000D02*
G75*
G02*
X72810000Y-49695000I2500000J0D01*
G01*
%TO.C,D14*%
X95690000Y-46325000D02*
X99575000Y-46325000D01*
X99575000Y-44055000D02*
X95690000Y-44055000D01*
X99575000Y-46325000D02*
X99575000Y-44055000D01*
%TO.C,D15*%
X77790000Y-63485000D02*
X81675000Y-63485000D01*
X81675000Y-61215000D02*
X77790000Y-61215000D01*
X81675000Y-63485000D02*
X81675000Y-61215000D01*
%TO.C,RN3*%
X96950000Y-53160000D02*
X99050000Y-53160000D01*
X96950000Y-58500000D02*
X99050000Y-58500000D01*
%TO.C,D9*%
X68690000Y-46325000D02*
X72575000Y-46325000D01*
X72575000Y-44055000D02*
X68690000Y-44055000D01*
X72575000Y-46325000D02*
X72575000Y-44055000D01*
%TO.C,D16*%
X95710000Y-63475000D02*
X99595000Y-63475000D01*
X99595000Y-61205000D02*
X95710000Y-61205000D01*
X99595000Y-63475000D02*
X99595000Y-61205000D01*
%TO.C,D4*%
X77755000Y-69400000D02*
X80845000Y-69400000D01*
X77755170Y-69400000D02*
G75*
G02*
X79300000Y-63850000I1544830J2560000D01*
G01*
X79300000Y-63850000D02*
G75*
G02*
X80844830Y-69400000I0J-2990000D01*
G01*
X81800000Y-66840000D02*
G75*
G02*
X76800000Y-66840000I-2500000J0D01*
G01*
X76800000Y-66840000D02*
G75*
G02*
X81800000Y-66840000I2500000J0D01*
G01*
%TO.C,D5*%
X86765000Y-52255000D02*
X89855000Y-52255000D01*
X86765170Y-52255000D02*
G75*
G02*
X88310000Y-46705000I1544830J2560000D01*
G01*
X88310000Y-46705000D02*
G75*
G02*
X89854830Y-52255000I0J-2990000D01*
G01*
X90810000Y-49695000D02*
G75*
G02*
X85810000Y-49695000I-2500000J0D01*
G01*
X85810000Y-49695000D02*
G75*
G02*
X90810000Y-49695000I2500000J0D01*
G01*
%TO.C,D10*%
X86690000Y-46325000D02*
X90575000Y-46325000D01*
X90575000Y-44055000D02*
X86690000Y-44055000D01*
X90575000Y-46325000D02*
X90575000Y-44055000D01*
%TO.C,U2*%
X67900000Y-72940000D02*
X67955000Y-72940000D01*
X67900000Y-77060000D02*
X67900000Y-72940000D01*
X67955000Y-77060000D02*
X67900000Y-77060000D01*
X77965000Y-72940000D02*
X78020000Y-72940000D01*
X78020000Y-72940000D02*
X78020000Y-77060000D01*
X78020000Y-77060000D02*
X77965000Y-77060000D01*
X67950000Y-77600000D02*
X67620000Y-77840000D01*
X67620000Y-77360000D01*
X67950000Y-77600000D01*
G36*
X67950000Y-77600000D02*
G01*
X67620000Y-77840000D01*
X67620000Y-77360000D01*
X67950000Y-77600000D01*
G37*
%TO.C,D7*%
X95765000Y-52255000D02*
X98855000Y-52255000D01*
X95765170Y-52255000D02*
G75*
G02*
X97310000Y-46705000I1544830J2560000D01*
G01*
X97310000Y-46705000D02*
G75*
G02*
X98854830Y-52255000I0J-2990000D01*
G01*
X99810000Y-49695000D02*
G75*
G02*
X94810000Y-49695000I-2500000J0D01*
G01*
X94810000Y-49695000D02*
G75*
G02*
X99810000Y-49695000I2500000J0D01*
G01*
%TO.C,RN2*%
X70650000Y-53160000D02*
X68550000Y-53160000D01*
X70650000Y-58500000D02*
X68550000Y-58500000D01*
%TO.C,D13*%
X77690000Y-46325000D02*
X81575000Y-46325000D01*
X81575000Y-44055000D02*
X77690000Y-44055000D01*
X81575000Y-46325000D02*
X81575000Y-44055000D01*
%TO.C,D2*%
X68755000Y-69400000D02*
X71845000Y-69400000D01*
X68755170Y-69400000D02*
G75*
G02*
X70300000Y-63850000I1544830J2560000D01*
G01*
X70300000Y-63850000D02*
G75*
G02*
X71844830Y-69400000I0J-2990000D01*
G01*
X72800000Y-66840000D02*
G75*
G02*
X67800000Y-66840000I-2500000J0D01*
G01*
X67800000Y-66840000D02*
G75*
G02*
X72800000Y-66840000I2500000J0D01*
G01*
%TO.C,RN1*%
X72390000Y-54520000D02*
X72390000Y-57140000D01*
X72390000Y-57140000D02*
X95410000Y-57140000D01*
X75010000Y-54520000D02*
X75010000Y-57140000D01*
X95410000Y-54520000D02*
X72390000Y-54520000D01*
X95410000Y-57140000D02*
X95410000Y-54520000D01*
%TO.C,D8*%
X95755000Y-69400000D02*
X98845000Y-69400000D01*
X95755170Y-69400000D02*
G75*
G02*
X97300000Y-63850000I1544830J2560000D01*
G01*
X97300000Y-63850000D02*
G75*
G02*
X98844830Y-69400000I0J-2990000D01*
G01*
X99800000Y-66840000D02*
G75*
G02*
X94800000Y-66840000I-2500000J0D01*
G01*
X94800000Y-66840000D02*
G75*
G02*
X99800000Y-66840000I2500000J0D01*
G01*
%TO.C,D6*%
X86755000Y-69400000D02*
X89845000Y-69400000D01*
X86755170Y-69400000D02*
G75*
G02*
X88300000Y-63850000I1544830J2560000D01*
G01*
X88300000Y-63850000D02*
G75*
G02*
X89844830Y-69400000I0J-2990000D01*
G01*
X90800000Y-66840000D02*
G75*
G02*
X85800000Y-66840000I-2500000J0D01*
G01*
X85800000Y-66840000D02*
G75*
G02*
X90800000Y-66840000I2500000J0D01*
G01*
%TD*%
M02*
