%TF.GenerationSoftware,KiCad,Pcbnew,9.0.6*%
%TF.CreationDate,2025-12-24T15:42:27+10:00*%
%TF.ProjectId,PicoX68Key.LED,5069636f-5836-4384-9b65-792e4c45442e,rev?*%
%TF.SameCoordinates,Original*%
%TF.FileFunction,Soldermask,Bot*%
%TF.FilePolarity,Negative*%
%FSLAX46Y46*%
G04 Gerber Fmt 4.6, Leading zero omitted, Abs format (unit mm)*
G04 Created by KiCad (PCBNEW 9.0.6) date 2025-12-24 15:42:27*
%MOMM*%
%LPD*%
G01*
G04 APERTURE LIST*
G04 Aperture macros list*
%AMRoundRect*
0 Rectangle with rounded corners*
0 $1 Rounding radius*
0 $2 $3 $4 $5 $6 $7 $8 $9 X,Y pos of 4 corners*
0 Add a 4 corners polygon primitive as box body*
4,1,4,$2,$3,$4,$5,$6,$7,$8,$9,$2,$3,0*
0 Add four circle primitives for the rounded corners*
1,1,$1+$1,$2,$3*
1,1,$1+$1,$4,$5*
1,1,$1+$1,$6,$7*
1,1,$1+$1,$8,$9*
0 Add four rect primitives between the rounded corners*
20,1,$1+$1,$2,$3,$4,$5,0*
20,1,$1+$1,$4,$5,$6,$7,0*
20,1,$1+$1,$6,$7,$8,$9,0*
20,1,$1+$1,$8,$9,$2,$3,0*%
G04 Aperture macros list end*
%ADD10R,1.800000X1.800000*%
%ADD11C,1.800000*%
%ADD12RoundRect,0.250000X0.550000X-0.550000X0.550000X0.550000X-0.550000X0.550000X-0.550000X-0.550000X0*%
%ADD13C,1.600000*%
%ADD14R,1.600000X1.600000*%
%ADD15R,1.700000X1.700000*%
%ADD16C,1.700000*%
G04 APERTURE END LIST*
D10*
%TO.C,D3*%
X79310000Y-50965000D03*
D11*
X79310000Y-48425000D03*
%TD*%
D12*
%TO.C,U1*%
X80570000Y-78805000D03*
D13*
X83110000Y-78805000D03*
X85650000Y-78805000D03*
X88190000Y-78805000D03*
X90730000Y-78805000D03*
X93270000Y-78805000D03*
X95810000Y-78805000D03*
X98350000Y-78805000D03*
X98350000Y-71185000D03*
X95810000Y-71185000D03*
X93270000Y-71185000D03*
X90730000Y-71185000D03*
X88190000Y-71185000D03*
X85650000Y-71185000D03*
X83110000Y-71185000D03*
X80570000Y-71185000D03*
%TD*%
D10*
%TO.C,D1*%
X70310000Y-50965000D03*
D11*
X70310000Y-48425000D03*
%TD*%
D10*
%TO.C,D4*%
X79300000Y-68110000D03*
D11*
X79300000Y-65570000D03*
%TD*%
D10*
%TO.C,D5*%
X88310000Y-50965000D03*
D11*
X88310000Y-48425000D03*
%TD*%
D10*
%TO.C,D7*%
X97310000Y-50965000D03*
D11*
X97310000Y-48425000D03*
%TD*%
D10*
%TO.C,D2*%
X70300000Y-68110000D03*
D11*
X70300000Y-65570000D03*
%TD*%
D14*
%TO.C,RN1*%
X73740000Y-55830000D03*
D13*
X76280000Y-55830000D03*
X78820000Y-55830000D03*
X81360000Y-55830000D03*
X83900000Y-55830000D03*
X86440000Y-55830000D03*
X88980000Y-55830000D03*
X91520000Y-55830000D03*
X94060000Y-55830000D03*
%TD*%
D10*
%TO.C,D8*%
X97300000Y-68110000D03*
D11*
X97300000Y-65570000D03*
%TD*%
D10*
%TO.C,D6*%
X88300000Y-68110000D03*
D11*
X88300000Y-65570000D03*
%TD*%
D15*
%TO.C,J1*%
X76180000Y-81739000D03*
D16*
X78720000Y-81739000D03*
X81260000Y-81739000D03*
X83800000Y-81739000D03*
X86340000Y-81739000D03*
X88880000Y-81739000D03*
X91420000Y-81739000D03*
%TD*%
M02*
