M48
; DRILL file {KiCad 9.0.6} date 2025-12-24T15:44:00+1000
; FORMAT={-:-/ absolute / metric / decimal}
; #@! TF.CreationDate,2025-12-24T15:44:00+10:00
; #@! TF.GenerationSoftware,Kicad,Pcbnew,9.0.6
; #@! TF.FileFunction,Plated,1,2,PTH
FMAT,2
METRIC
; #@! TA.AperFunction,Plated,PTH,ViaDrill
T1C0.400
; #@! TA.AperFunction,Plated,PTH,ComponentDrill
T2C0.800
; #@! TA.AperFunction,Plated,PTH,ComponentDrill
T3C1.000
%
G90
G05
T1
X68.35Y-128.45
X68.45Y-133.6
X68.6Y-144.05
X69.4Y-115.75
X70.65Y-98.0
X70.8Y-133.6
X73.5Y-138.8
X73.6Y-133.55
X73.7Y-144.75
X76.0Y-142.45
X82.5Y-98.5
X84.9Y-94.0
X86.4Y-128.25
X91.0Y-140.45
X93.7Y-143.0
X94.55Y-136.25
X94.75Y-140.4
X94.75Y-144.65
X95.25Y-138.8
X95.45Y-142.95
X97.1Y-92.85
X97.75Y-134.2
X98.5Y-97.8
X98.55Y-115.7
X99.6Y-134.1
T2
X68.45Y-136.35
X68.45Y-141.447
X68.45Y-146.421
X69.342Y-82.55
X69.342Y-95.25
X69.342Y-100.33
X69.342Y-113.03
X69.342Y-118.11
X69.342Y-130.81
X70.99Y-136.35
X70.99Y-141.447
X70.99Y-146.421
X73.53Y-136.35
X73.53Y-141.447
X73.53Y-146.421
X80.45Y-139.188
X80.45Y-141.688
X82.55Y-141.688
X82.95Y-139.188
X85.15Y-141.688
X87.25Y-139.188
X87.25Y-141.688
X98.552Y-82.55
X98.552Y-95.25
X98.552Y-100.33
X98.552Y-113.03
X98.552Y-118.11
X98.552Y-130.81
T3
X74.93Y-82.55
X74.93Y-85.09
X74.93Y-87.63
X74.93Y-90.17
X74.93Y-92.71
X74.93Y-95.25
X74.93Y-97.79
X74.93Y-100.33
X74.93Y-102.87
X74.93Y-105.41
X74.93Y-107.95
X74.93Y-110.49
X74.93Y-113.03
X74.93Y-115.57
X74.93Y-118.11
X74.93Y-120.65
X74.93Y-123.19
X74.93Y-125.73
X74.93Y-128.27
X74.93Y-130.81
X76.2Y-135.475
X78.74Y-135.475
X81.28Y-135.475
X83.82Y-135.475
X86.36Y-135.475
X88.9Y-135.475
X91.44Y-135.475
X92.71Y-82.55
X92.71Y-85.09
X92.71Y-87.63
X92.71Y-90.17
X92.71Y-92.71
X92.71Y-95.25
X92.71Y-97.79
X92.71Y-100.33
X92.71Y-102.87
X92.71Y-105.41
X92.71Y-107.95
X92.71Y-110.49
X92.71Y-113.03
X92.71Y-115.57
X92.71Y-118.11
X92.71Y-120.65
X92.71Y-123.19
X92.71Y-125.73
X92.71Y-128.27
X92.71Y-130.81
T2
G00X77.1Y-143.987
M15
G01X77.1Y-145.387
M16
G05
G00X84.55Y-145.487
M15
G01X83.15Y-145.487
M16
G05
G00X90.6Y-143.987
M15
G01X90.6Y-145.387
M16
G05
M30
