%TF.GenerationSoftware,KiCad,Pcbnew,9.0.6*%
%TF.CreationDate,2025-12-24T15:43:54+10:00*%
%TF.ProjectId,PicoX68Key,5069636f-5836-4384-9b65-792e6b696361,rev?*%
%TF.SameCoordinates,Original*%
%TF.FileFunction,Legend,Bot*%
%TF.FilePolarity,Positive*%
%FSLAX46Y46*%
G04 Gerber Fmt 4.6, Leading zero omitted, Abs format (unit mm)*
G04 Created by KiCad (PCBNEW 9.0.6) date 2025-12-24 15:43:54*
%MOMM*%
%LPD*%
G01*
G04 APERTURE LIST*
%ADD10C,0.150000*%
%ADD11C,0.200000*%
%ADD12C,0.000000*%
G04 APERTURE END LIST*
D10*
X78150000Y-130150000D02*
X84600000Y-130150000D01*
G36*
X87161221Y-122983217D02*
G01*
X87161221Y-123310258D01*
X87168182Y-123327721D01*
X87183051Y-123339324D01*
X87204940Y-123343475D01*
X87336099Y-123343475D01*
X87817013Y-123343475D01*
X87839727Y-123348726D01*
X87854766Y-123360301D01*
X87860732Y-123376692D01*
X87850586Y-123411707D01*
X87815765Y-123453558D01*
X87742293Y-123505741D01*
X87610628Y-123570865D01*
X87547669Y-123591677D01*
X87479469Y-123602250D01*
X87364064Y-123605792D01*
X87203230Y-123605792D01*
X87173433Y-123614462D01*
X87162930Y-123630216D01*
X87161221Y-123639009D01*
X87161221Y-123736950D01*
X87161221Y-123803384D01*
X87166713Y-123828565D01*
X87183080Y-123847958D01*
X87227655Y-123866399D01*
X87248660Y-123868108D01*
X87379818Y-123868108D01*
X87420118Y-123867254D01*
X87454190Y-123866399D01*
X87484720Y-123863712D01*
X87509267Y-123860170D01*
X87530272Y-123856629D01*
X87546880Y-123853210D01*
X87562634Y-123848813D01*
X87574846Y-123845394D01*
X87587913Y-123840143D01*
X87598415Y-123834891D01*
X87688660Y-123788373D01*
X87836308Y-123687979D01*
X88035610Y-123541067D01*
X88234912Y-123687979D01*
X88388205Y-123793135D01*
X88472805Y-123834891D01*
X88538453Y-123854965D01*
X88595170Y-123864567D01*
X88691402Y-123868108D01*
X88822561Y-123868108D01*
X88859319Y-123862857D01*
X88897237Y-123838344D01*
X88910000Y-123803384D01*
X88910000Y-123736950D01*
X88910000Y-123639009D01*
X88903039Y-123619836D01*
X88867990Y-123605792D01*
X88707156Y-123605792D01*
X88561487Y-123597294D01*
X88497229Y-123584787D01*
X88460593Y-123570865D01*
X88327634Y-123504675D01*
X88254184Y-123452327D01*
X88219956Y-123410912D01*
X88210488Y-123376692D01*
X88220990Y-123353977D01*
X88241995Y-123343475D01*
X88254207Y-123343475D01*
X88735122Y-123343475D01*
X88866280Y-123343475D01*
X88896933Y-123335537D01*
X88910000Y-123319050D01*
X88910000Y-123310258D01*
X88910000Y-122983217D01*
X88903039Y-122965753D01*
X88888169Y-122954151D01*
X88866280Y-122950000D01*
X88778841Y-122950000D01*
X88748189Y-122957815D01*
X88735122Y-122974424D01*
X88735122Y-122983217D01*
X88735122Y-123047941D01*
X88728161Y-123065404D01*
X88713291Y-123077007D01*
X88691402Y-123081158D01*
X87379818Y-123081158D01*
X87349166Y-123073220D01*
X87336099Y-123056734D01*
X87336099Y-123047941D01*
X87336099Y-122983217D01*
X87329138Y-122965753D01*
X87314268Y-122954151D01*
X87292379Y-122950000D01*
X87204940Y-122950000D01*
X87174288Y-122957815D01*
X87161221Y-122974424D01*
X87161221Y-122983217D01*
G37*
G36*
X88576118Y-124138511D02*
G01*
X88672107Y-124163398D01*
X88757675Y-124205595D01*
X88824429Y-124261273D01*
X88875073Y-124331315D01*
X88878492Y-124338276D01*
X88901167Y-124398983D01*
X88910000Y-124490439D01*
X88910000Y-124588381D01*
X88902699Y-124729131D01*
X88887285Y-124791224D01*
X88844603Y-124864261D01*
X88780551Y-124941556D01*
X88706808Y-125006987D01*
X88649522Y-125039130D01*
X88603963Y-125048290D01*
X88582074Y-125044139D01*
X88567205Y-125032536D01*
X88560244Y-125015073D01*
X88560244Y-124950348D01*
X88563785Y-124885624D01*
X88575714Y-124861106D01*
X88610924Y-124822732D01*
X88647683Y-124785973D01*
X88703614Y-124724790D01*
X88725958Y-124674963D01*
X88735122Y-124588381D01*
X88735122Y-124490439D01*
X88724619Y-124441468D01*
X88694052Y-124404756D01*
X88647683Y-124392498D01*
X88254207Y-124392498D01*
X88226487Y-124402712D01*
X88210488Y-124425715D01*
X88210488Y-124917131D01*
X88210488Y-125015073D01*
X88208778Y-125023866D01*
X88198276Y-125038642D01*
X88170310Y-125048290D01*
X88121339Y-125048290D01*
X88021224Y-125039990D01*
X87923747Y-125015073D01*
X87839257Y-124973042D01*
X87772410Y-124917385D01*
X87720781Y-124847156D01*
X87717362Y-124840195D01*
X87694687Y-124779488D01*
X87685854Y-124688032D01*
X87685854Y-124490439D01*
X87860732Y-124490439D01*
X87860732Y-124688032D01*
X87871235Y-124737002D01*
X87901802Y-124773715D01*
X87948171Y-124785973D01*
X87991891Y-124785973D01*
X88013780Y-124781822D01*
X88028649Y-124770219D01*
X88035610Y-124752756D01*
X88035610Y-124425715D01*
X88035610Y-124416922D01*
X88022543Y-124400314D01*
X87991891Y-124392498D01*
X87948171Y-124392498D01*
X87921915Y-124396039D01*
X87888324Y-124414681D01*
X87868192Y-124444738D01*
X87860732Y-124490439D01*
X87685854Y-124490439D01*
X87689396Y-124427424D01*
X87699430Y-124382033D01*
X87720781Y-124331315D01*
X87771249Y-124262270D01*
X87837990Y-124206541D01*
X87923747Y-124163398D01*
X88018641Y-124138618D01*
X88121339Y-124130181D01*
X88476346Y-124130181D01*
X88576118Y-124138511D01*
G37*
G36*
X87685854Y-125345289D02*
G01*
X87685854Y-125541172D01*
X87692815Y-125558635D01*
X87707685Y-125570238D01*
X87729574Y-125574389D01*
X88647683Y-125574389D01*
X88694052Y-125586647D01*
X88724619Y-125623360D01*
X88735122Y-125672330D01*
X88735122Y-125934647D01*
X88724619Y-125957362D01*
X88703614Y-125967864D01*
X88691402Y-125967864D01*
X87729574Y-125967864D01*
X87698921Y-125975680D01*
X87685854Y-125992288D01*
X87685854Y-126001081D01*
X87685854Y-126196964D01*
X87692815Y-126214427D01*
X87707685Y-126226030D01*
X87729574Y-126230181D01*
X88822561Y-126230181D01*
X88923756Y-126220222D01*
X89009651Y-126195254D01*
X89129026Y-126135940D01*
X89271967Y-126029047D01*
X89343838Y-125960982D01*
X89387372Y-125908391D01*
X89423713Y-125834500D01*
X89434633Y-125770272D01*
X89434633Y-125607606D01*
X89434633Y-125345289D01*
X89427672Y-125327826D01*
X89412803Y-125316223D01*
X89390914Y-125312072D01*
X89303475Y-125312072D01*
X89272822Y-125319888D01*
X89259755Y-125336496D01*
X89259755Y-125345289D01*
X89259755Y-125607606D01*
X89248121Y-125716928D01*
X89217745Y-125791277D01*
X89184528Y-125836706D01*
X89106031Y-125915335D01*
X89040329Y-125955382D01*
X88983394Y-125967864D01*
X88971182Y-125967864D01*
X88953719Y-125967864D01*
X88931004Y-125962613D01*
X88915966Y-125951038D01*
X88910000Y-125934647D01*
X88910000Y-125672330D01*
X88900454Y-125591641D01*
X88875073Y-125513206D01*
X88823443Y-125442977D01*
X88756597Y-125387320D01*
X88672107Y-125345289D01*
X88574630Y-125320372D01*
X88474515Y-125312072D01*
X87726032Y-125312072D01*
X87698066Y-125321598D01*
X87687564Y-125336496D01*
X87685854Y-125345289D01*
G37*
X79219819Y-130686779D02*
X78219819Y-130686779D01*
X78219819Y-130686779D02*
X78934104Y-131020112D01*
X78934104Y-131020112D02*
X78219819Y-131353445D01*
X78219819Y-131353445D02*
X79219819Y-131353445D01*
X78219819Y-132020112D02*
X78219819Y-132210588D01*
X78219819Y-132210588D02*
X78267438Y-132305826D01*
X78267438Y-132305826D02*
X78362676Y-132401064D01*
X78362676Y-132401064D02*
X78553152Y-132448683D01*
X78553152Y-132448683D02*
X78886485Y-132448683D01*
X78886485Y-132448683D02*
X79076961Y-132401064D01*
X79076961Y-132401064D02*
X79172200Y-132305826D01*
X79172200Y-132305826D02*
X79219819Y-132210588D01*
X79219819Y-132210588D02*
X79219819Y-132020112D01*
X79219819Y-132020112D02*
X79172200Y-131924874D01*
X79172200Y-131924874D02*
X79076961Y-131829636D01*
X79076961Y-131829636D02*
X78886485Y-131782017D01*
X78886485Y-131782017D02*
X78553152Y-131782017D01*
X78553152Y-131782017D02*
X78362676Y-131829636D01*
X78362676Y-131829636D02*
X78267438Y-131924874D01*
X78267438Y-131924874D02*
X78219819Y-132020112D01*
X79172200Y-132829636D02*
X79219819Y-132972493D01*
X79219819Y-132972493D02*
X79219819Y-133210588D01*
X79219819Y-133210588D02*
X79172200Y-133305826D01*
X79172200Y-133305826D02*
X79124580Y-133353445D01*
X79124580Y-133353445D02*
X79029342Y-133401064D01*
X79029342Y-133401064D02*
X78934104Y-133401064D01*
X78934104Y-133401064D02*
X78838866Y-133353445D01*
X78838866Y-133353445D02*
X78791247Y-133305826D01*
X78791247Y-133305826D02*
X78743628Y-133210588D01*
X78743628Y-133210588D02*
X78696009Y-133020112D01*
X78696009Y-133020112D02*
X78648390Y-132924874D01*
X78648390Y-132924874D02*
X78600771Y-132877255D01*
X78600771Y-132877255D02*
X78505533Y-132829636D01*
X78505533Y-132829636D02*
X78410295Y-132829636D01*
X78410295Y-132829636D02*
X78315057Y-132877255D01*
X78315057Y-132877255D02*
X78267438Y-132924874D01*
X78267438Y-132924874D02*
X78219819Y-133020112D01*
X78219819Y-133020112D02*
X78219819Y-133258207D01*
X78219819Y-133258207D02*
X78267438Y-133401064D01*
X79219819Y-133829636D02*
X78219819Y-133829636D01*
D11*
X95160809Y-86817292D02*
X93960809Y-86817292D01*
X93960809Y-86817292D02*
X93960809Y-87103006D01*
X93960809Y-87103006D02*
X94017952Y-87274435D01*
X94017952Y-87274435D02*
X94132238Y-87388720D01*
X94132238Y-87388720D02*
X94246524Y-87445863D01*
X94246524Y-87445863D02*
X94475095Y-87503006D01*
X94475095Y-87503006D02*
X94646524Y-87503006D01*
X94646524Y-87503006D02*
X94875095Y-87445863D01*
X94875095Y-87445863D02*
X94989381Y-87388720D01*
X94989381Y-87388720D02*
X95103667Y-87274435D01*
X95103667Y-87274435D02*
X95160809Y-87103006D01*
X95160809Y-87103006D02*
X95160809Y-86817292D01*
X95103667Y-88474435D02*
X95160809Y-88360149D01*
X95160809Y-88360149D02*
X95160809Y-88131578D01*
X95160809Y-88131578D02*
X95103667Y-88017292D01*
X95103667Y-88017292D02*
X94989381Y-87960149D01*
X94989381Y-87960149D02*
X94532238Y-87960149D01*
X94532238Y-87960149D02*
X94417952Y-88017292D01*
X94417952Y-88017292D02*
X94360809Y-88131578D01*
X94360809Y-88131578D02*
X94360809Y-88360149D01*
X94360809Y-88360149D02*
X94417952Y-88474435D01*
X94417952Y-88474435D02*
X94532238Y-88531578D01*
X94532238Y-88531578D02*
X94646524Y-88531578D01*
X94646524Y-88531578D02*
X94760809Y-87960149D01*
X95103667Y-88988720D02*
X95160809Y-89103006D01*
X95160809Y-89103006D02*
X95160809Y-89331577D01*
X95160809Y-89331577D02*
X95103667Y-89445863D01*
X95103667Y-89445863D02*
X94989381Y-89503006D01*
X94989381Y-89503006D02*
X94932238Y-89503006D01*
X94932238Y-89503006D02*
X94817952Y-89445863D01*
X94817952Y-89445863D02*
X94760809Y-89331577D01*
X94760809Y-89331577D02*
X94760809Y-89160149D01*
X94760809Y-89160149D02*
X94703667Y-89045863D01*
X94703667Y-89045863D02*
X94589381Y-88988720D01*
X94589381Y-88988720D02*
X94532238Y-88988720D01*
X94532238Y-88988720D02*
X94417952Y-89045863D01*
X94417952Y-89045863D02*
X94360809Y-89160149D01*
X94360809Y-89160149D02*
X94360809Y-89331577D01*
X94360809Y-89331577D02*
X94417952Y-89445863D01*
X95160809Y-90017292D02*
X94360809Y-90017292D01*
X93960809Y-90017292D02*
X94017952Y-89960149D01*
X94017952Y-89960149D02*
X94075095Y-90017292D01*
X94075095Y-90017292D02*
X94017952Y-90074435D01*
X94017952Y-90074435D02*
X93960809Y-90017292D01*
X93960809Y-90017292D02*
X94075095Y-90017292D01*
X94360809Y-91103007D02*
X95332238Y-91103007D01*
X95332238Y-91103007D02*
X95446524Y-91045864D01*
X95446524Y-91045864D02*
X95503667Y-90988721D01*
X95503667Y-90988721D02*
X95560809Y-90874435D01*
X95560809Y-90874435D02*
X95560809Y-90703007D01*
X95560809Y-90703007D02*
X95503667Y-90588721D01*
X95103667Y-91103007D02*
X95160809Y-90988721D01*
X95160809Y-90988721D02*
X95160809Y-90760149D01*
X95160809Y-90760149D02*
X95103667Y-90645864D01*
X95103667Y-90645864D02*
X95046524Y-90588721D01*
X95046524Y-90588721D02*
X94932238Y-90531578D01*
X94932238Y-90531578D02*
X94589381Y-90531578D01*
X94589381Y-90531578D02*
X94475095Y-90588721D01*
X94475095Y-90588721D02*
X94417952Y-90645864D01*
X94417952Y-90645864D02*
X94360809Y-90760149D01*
X94360809Y-90760149D02*
X94360809Y-90988721D01*
X94360809Y-90988721D02*
X94417952Y-91103007D01*
X94360809Y-91674435D02*
X95160809Y-91674435D01*
X94475095Y-91674435D02*
X94417952Y-91731578D01*
X94417952Y-91731578D02*
X94360809Y-91845863D01*
X94360809Y-91845863D02*
X94360809Y-92017292D01*
X94360809Y-92017292D02*
X94417952Y-92131578D01*
X94417952Y-92131578D02*
X94532238Y-92188721D01*
X94532238Y-92188721D02*
X95160809Y-92188721D01*
X95103667Y-93217292D02*
X95160809Y-93103006D01*
X95160809Y-93103006D02*
X95160809Y-92874435D01*
X95160809Y-92874435D02*
X95103667Y-92760149D01*
X95103667Y-92760149D02*
X94989381Y-92703006D01*
X94989381Y-92703006D02*
X94532238Y-92703006D01*
X94532238Y-92703006D02*
X94417952Y-92760149D01*
X94417952Y-92760149D02*
X94360809Y-92874435D01*
X94360809Y-92874435D02*
X94360809Y-93103006D01*
X94360809Y-93103006D02*
X94417952Y-93217292D01*
X94417952Y-93217292D02*
X94532238Y-93274435D01*
X94532238Y-93274435D02*
X94646524Y-93274435D01*
X94646524Y-93274435D02*
X94760809Y-92703006D01*
X95160809Y-94303006D02*
X93960809Y-94303006D01*
X95103667Y-94303006D02*
X95160809Y-94188720D01*
X95160809Y-94188720D02*
X95160809Y-93960148D01*
X95160809Y-93960148D02*
X95103667Y-93845863D01*
X95103667Y-93845863D02*
X95046524Y-93788720D01*
X95046524Y-93788720D02*
X94932238Y-93731577D01*
X94932238Y-93731577D02*
X94589381Y-93731577D01*
X94589381Y-93731577D02*
X94475095Y-93788720D01*
X94475095Y-93788720D02*
X94417952Y-93845863D01*
X94417952Y-93845863D02*
X94360809Y-93960148D01*
X94360809Y-93960148D02*
X94360809Y-94188720D01*
X94360809Y-94188720D02*
X94417952Y-94303006D01*
X95160809Y-95788720D02*
X93960809Y-95788720D01*
X94417952Y-95788720D02*
X94360809Y-95903006D01*
X94360809Y-95903006D02*
X94360809Y-96131577D01*
X94360809Y-96131577D02*
X94417952Y-96245863D01*
X94417952Y-96245863D02*
X94475095Y-96303006D01*
X94475095Y-96303006D02*
X94589381Y-96360148D01*
X94589381Y-96360148D02*
X94932238Y-96360148D01*
X94932238Y-96360148D02*
X95046524Y-96303006D01*
X95046524Y-96303006D02*
X95103667Y-96245863D01*
X95103667Y-96245863D02*
X95160809Y-96131577D01*
X95160809Y-96131577D02*
X95160809Y-95903006D01*
X95160809Y-95903006D02*
X95103667Y-95788720D01*
X94360809Y-96760148D02*
X95160809Y-97045862D01*
X94360809Y-97331577D02*
X95160809Y-97045862D01*
X95160809Y-97045862D02*
X95446524Y-96931577D01*
X95446524Y-96931577D02*
X95503667Y-96874434D01*
X95503667Y-96874434D02*
X95560809Y-96760148D01*
X95160809Y-99388720D02*
X94589381Y-98988720D01*
X95160809Y-98703006D02*
X93960809Y-98703006D01*
X93960809Y-98703006D02*
X93960809Y-99160149D01*
X93960809Y-99160149D02*
X94017952Y-99274434D01*
X94017952Y-99274434D02*
X94075095Y-99331577D01*
X94075095Y-99331577D02*
X94189381Y-99388720D01*
X94189381Y-99388720D02*
X94360809Y-99388720D01*
X94360809Y-99388720D02*
X94475095Y-99331577D01*
X94475095Y-99331577D02*
X94532238Y-99274434D01*
X94532238Y-99274434D02*
X94589381Y-99160149D01*
X94589381Y-99160149D02*
X94589381Y-98703006D01*
X95103667Y-100360149D02*
X95160809Y-100245863D01*
X95160809Y-100245863D02*
X95160809Y-100017292D01*
X95160809Y-100017292D02*
X95103667Y-99903006D01*
X95103667Y-99903006D02*
X94989381Y-99845863D01*
X94989381Y-99845863D02*
X94532238Y-99845863D01*
X94532238Y-99845863D02*
X94417952Y-99903006D01*
X94417952Y-99903006D02*
X94360809Y-100017292D01*
X94360809Y-100017292D02*
X94360809Y-100245863D01*
X94360809Y-100245863D02*
X94417952Y-100360149D01*
X94417952Y-100360149D02*
X94532238Y-100417292D01*
X94532238Y-100417292D02*
X94646524Y-100417292D01*
X94646524Y-100417292D02*
X94760809Y-99845863D01*
X94360809Y-100760148D02*
X94360809Y-101217291D01*
X93960809Y-100931577D02*
X94989381Y-100931577D01*
X94989381Y-100931577D02*
X95103667Y-100988720D01*
X95103667Y-100988720D02*
X95160809Y-101103005D01*
X95160809Y-101103005D02*
X95160809Y-101217291D01*
X95160809Y-101617291D02*
X94360809Y-101617291D01*
X94589381Y-101617291D02*
X94475095Y-101674434D01*
X94475095Y-101674434D02*
X94417952Y-101731577D01*
X94417952Y-101731577D02*
X94360809Y-101845862D01*
X94360809Y-101845862D02*
X94360809Y-101960148D01*
X95160809Y-102531576D02*
X95103667Y-102417291D01*
X95103667Y-102417291D02*
X95046524Y-102360148D01*
X95046524Y-102360148D02*
X94932238Y-102303005D01*
X94932238Y-102303005D02*
X94589381Y-102303005D01*
X94589381Y-102303005D02*
X94475095Y-102360148D01*
X94475095Y-102360148D02*
X94417952Y-102417291D01*
X94417952Y-102417291D02*
X94360809Y-102531576D01*
X94360809Y-102531576D02*
X94360809Y-102703005D01*
X94360809Y-102703005D02*
X94417952Y-102817291D01*
X94417952Y-102817291D02*
X94475095Y-102874434D01*
X94475095Y-102874434D02*
X94589381Y-102931576D01*
X94589381Y-102931576D02*
X94932238Y-102931576D01*
X94932238Y-102931576D02*
X95046524Y-102874434D01*
X95046524Y-102874434D02*
X95103667Y-102817291D01*
X95103667Y-102817291D02*
X95160809Y-102703005D01*
X95160809Y-102703005D02*
X95160809Y-102531576D01*
X95103667Y-103388719D02*
X95160809Y-103560148D01*
X95160809Y-103560148D02*
X95160809Y-103845862D01*
X95160809Y-103845862D02*
X95103667Y-103960148D01*
X95103667Y-103960148D02*
X95046524Y-104017290D01*
X95046524Y-104017290D02*
X94932238Y-104074433D01*
X94932238Y-104074433D02*
X94817952Y-104074433D01*
X94817952Y-104074433D02*
X94703667Y-104017290D01*
X94703667Y-104017290D02*
X94646524Y-103960148D01*
X94646524Y-103960148D02*
X94589381Y-103845862D01*
X94589381Y-103845862D02*
X94532238Y-103617290D01*
X94532238Y-103617290D02*
X94475095Y-103503005D01*
X94475095Y-103503005D02*
X94417952Y-103445862D01*
X94417952Y-103445862D02*
X94303667Y-103388719D01*
X94303667Y-103388719D02*
X94189381Y-103388719D01*
X94189381Y-103388719D02*
X94075095Y-103445862D01*
X94075095Y-103445862D02*
X94017952Y-103503005D01*
X94017952Y-103503005D02*
X93960809Y-103617290D01*
X93960809Y-103617290D02*
X93960809Y-103903005D01*
X93960809Y-103903005D02*
X94017952Y-104074433D01*
X94360809Y-104474433D02*
X95160809Y-104703005D01*
X95160809Y-104703005D02*
X94589381Y-104931576D01*
X94589381Y-104931576D02*
X95160809Y-105160147D01*
X95160809Y-105160147D02*
X94360809Y-105388719D01*
X95160809Y-105845862D02*
X94360809Y-105845862D01*
X93960809Y-105845862D02*
X94017952Y-105788719D01*
X94017952Y-105788719D02*
X94075095Y-105845862D01*
X94075095Y-105845862D02*
X94017952Y-105903005D01*
X94017952Y-105903005D02*
X93960809Y-105845862D01*
X93960809Y-105845862D02*
X94075095Y-105845862D01*
X95160809Y-106417291D02*
X94360809Y-106417291D01*
X94475095Y-106417291D02*
X94417952Y-106474434D01*
X94417952Y-106474434D02*
X94360809Y-106588719D01*
X94360809Y-106588719D02*
X94360809Y-106760148D01*
X94360809Y-106760148D02*
X94417952Y-106874434D01*
X94417952Y-106874434D02*
X94532238Y-106931577D01*
X94532238Y-106931577D02*
X95160809Y-106931577D01*
X94532238Y-106931577D02*
X94417952Y-106988719D01*
X94417952Y-106988719D02*
X94360809Y-107103005D01*
X94360809Y-107103005D02*
X94360809Y-107274434D01*
X94360809Y-107274434D02*
X94417952Y-107388719D01*
X94417952Y-107388719D02*
X94532238Y-107445862D01*
X94532238Y-107445862D02*
X95160809Y-107445862D01*
X95892742Y-86645863D02*
X95892742Y-87331578D01*
X97092742Y-86988720D02*
X95892742Y-86988720D01*
X97092742Y-87731578D02*
X95892742Y-87731578D01*
X97092742Y-88245864D02*
X96464171Y-88245864D01*
X96464171Y-88245864D02*
X96349885Y-88188721D01*
X96349885Y-88188721D02*
X96292742Y-88074435D01*
X96292742Y-88074435D02*
X96292742Y-87903006D01*
X96292742Y-87903006D02*
X96349885Y-87788721D01*
X96349885Y-87788721D02*
X96407028Y-87731578D01*
X97092742Y-89331578D02*
X96464171Y-89331578D01*
X96464171Y-89331578D02*
X96349885Y-89274435D01*
X96349885Y-89274435D02*
X96292742Y-89160149D01*
X96292742Y-89160149D02*
X96292742Y-88931578D01*
X96292742Y-88931578D02*
X96349885Y-88817292D01*
X97035600Y-89331578D02*
X97092742Y-89217292D01*
X97092742Y-89217292D02*
X97092742Y-88931578D01*
X97092742Y-88931578D02*
X97035600Y-88817292D01*
X97035600Y-88817292D02*
X96921314Y-88760149D01*
X96921314Y-88760149D02*
X96807028Y-88760149D01*
X96807028Y-88760149D02*
X96692742Y-88817292D01*
X96692742Y-88817292D02*
X96635600Y-88931578D01*
X96635600Y-88931578D02*
X96635600Y-89217292D01*
X96635600Y-89217292D02*
X96578457Y-89331578D01*
X96292742Y-89903006D02*
X97092742Y-89903006D01*
X96407028Y-89903006D02*
X96349885Y-89960149D01*
X96349885Y-89960149D02*
X96292742Y-90074434D01*
X96292742Y-90074434D02*
X96292742Y-90245863D01*
X96292742Y-90245863D02*
X96349885Y-90360149D01*
X96349885Y-90360149D02*
X96464171Y-90417292D01*
X96464171Y-90417292D02*
X97092742Y-90417292D01*
X97092742Y-90988720D02*
X95892742Y-90988720D01*
X96635600Y-91103006D02*
X97092742Y-91445863D01*
X96292742Y-91445863D02*
X96749885Y-90988720D01*
X97035600Y-91903006D02*
X97092742Y-92017292D01*
X97092742Y-92017292D02*
X97092742Y-92245863D01*
X97092742Y-92245863D02*
X97035600Y-92360149D01*
X97035600Y-92360149D02*
X96921314Y-92417292D01*
X96921314Y-92417292D02*
X96864171Y-92417292D01*
X96864171Y-92417292D02*
X96749885Y-92360149D01*
X96749885Y-92360149D02*
X96692742Y-92245863D01*
X96692742Y-92245863D02*
X96692742Y-92074435D01*
X96692742Y-92074435D02*
X96635600Y-91960149D01*
X96635600Y-91960149D02*
X96521314Y-91903006D01*
X96521314Y-91903006D02*
X96464171Y-91903006D01*
X96464171Y-91903006D02*
X96349885Y-91960149D01*
X96349885Y-91960149D02*
X96292742Y-92074435D01*
X96292742Y-92074435D02*
X96292742Y-92245863D01*
X96292742Y-92245863D02*
X96349885Y-92360149D01*
X96292742Y-93674435D02*
X96292742Y-94131578D01*
X95892742Y-93845864D02*
X96921314Y-93845864D01*
X96921314Y-93845864D02*
X97035600Y-93903007D01*
X97035600Y-93903007D02*
X97092742Y-94017292D01*
X97092742Y-94017292D02*
X97092742Y-94131578D01*
X97092742Y-94703006D02*
X97035600Y-94588721D01*
X97035600Y-94588721D02*
X96978457Y-94531578D01*
X96978457Y-94531578D02*
X96864171Y-94474435D01*
X96864171Y-94474435D02*
X96521314Y-94474435D01*
X96521314Y-94474435D02*
X96407028Y-94531578D01*
X96407028Y-94531578D02*
X96349885Y-94588721D01*
X96349885Y-94588721D02*
X96292742Y-94703006D01*
X96292742Y-94703006D02*
X96292742Y-94874435D01*
X96292742Y-94874435D02*
X96349885Y-94988721D01*
X96349885Y-94988721D02*
X96407028Y-95045864D01*
X96407028Y-95045864D02*
X96521314Y-95103006D01*
X96521314Y-95103006D02*
X96864171Y-95103006D01*
X96864171Y-95103006D02*
X96978457Y-95045864D01*
X96978457Y-95045864D02*
X97035600Y-94988721D01*
X97035600Y-94988721D02*
X97092742Y-94874435D01*
X97092742Y-94874435D02*
X97092742Y-94703006D01*
X95892742Y-96417292D02*
X95892742Y-97217292D01*
X95892742Y-97217292D02*
X97092742Y-96417292D01*
X97092742Y-96417292D02*
X97092742Y-97217292D01*
X96292742Y-98188721D02*
X97092742Y-98188721D01*
X96292742Y-97674435D02*
X96921314Y-97674435D01*
X96921314Y-97674435D02*
X97035600Y-97731578D01*
X97035600Y-97731578D02*
X97092742Y-97845863D01*
X97092742Y-97845863D02*
X97092742Y-98017292D01*
X97092742Y-98017292D02*
X97035600Y-98131578D01*
X97035600Y-98131578D02*
X96978457Y-98188721D01*
X97092742Y-98931577D02*
X97035600Y-98817292D01*
X97035600Y-98817292D02*
X96978457Y-98760149D01*
X96978457Y-98760149D02*
X96864171Y-98703006D01*
X96864171Y-98703006D02*
X96521314Y-98703006D01*
X96521314Y-98703006D02*
X96407028Y-98760149D01*
X96407028Y-98760149D02*
X96349885Y-98817292D01*
X96349885Y-98817292D02*
X96292742Y-98931577D01*
X96292742Y-98931577D02*
X96292742Y-99103006D01*
X96292742Y-99103006D02*
X96349885Y-99217292D01*
X96349885Y-99217292D02*
X96407028Y-99274435D01*
X96407028Y-99274435D02*
X96521314Y-99331577D01*
X96521314Y-99331577D02*
X96864171Y-99331577D01*
X96864171Y-99331577D02*
X96978457Y-99274435D01*
X96978457Y-99274435D02*
X97035600Y-99217292D01*
X97035600Y-99217292D02*
X97092742Y-99103006D01*
X97092742Y-99103006D02*
X97092742Y-98931577D01*
X96292742Y-99674434D02*
X96292742Y-100131577D01*
X97092742Y-99845863D02*
X96064171Y-99845863D01*
X96064171Y-99845863D02*
X95949885Y-99903006D01*
X95949885Y-99903006D02*
X95892742Y-100017291D01*
X95892742Y-100017291D02*
X95892742Y-100131577D01*
X97092742Y-100703005D02*
X97035600Y-100588720D01*
X97035600Y-100588720D02*
X96978457Y-100531577D01*
X96978457Y-100531577D02*
X96864171Y-100474434D01*
X96864171Y-100474434D02*
X96521314Y-100474434D01*
X96521314Y-100474434D02*
X96407028Y-100531577D01*
X96407028Y-100531577D02*
X96349885Y-100588720D01*
X96349885Y-100588720D02*
X96292742Y-100703005D01*
X96292742Y-100703005D02*
X96292742Y-100874434D01*
X96292742Y-100874434D02*
X96349885Y-100988720D01*
X96349885Y-100988720D02*
X96407028Y-101045863D01*
X96407028Y-101045863D02*
X96521314Y-101103005D01*
X96521314Y-101103005D02*
X96864171Y-101103005D01*
X96864171Y-101103005D02*
X96978457Y-101045863D01*
X96978457Y-101045863D02*
X97035600Y-100988720D01*
X97035600Y-100988720D02*
X97092742Y-100874434D01*
X97092742Y-100874434D02*
X97092742Y-100703005D01*
X97035600Y-101674434D02*
X97092742Y-101674434D01*
X97092742Y-101674434D02*
X97207028Y-101617291D01*
X97207028Y-101617291D02*
X97264171Y-101560148D01*
X95949885Y-103731577D02*
X95892742Y-103617292D01*
X95892742Y-103617292D02*
X95892742Y-103445863D01*
X95892742Y-103445863D02*
X95949885Y-103274434D01*
X95949885Y-103274434D02*
X96064171Y-103160149D01*
X96064171Y-103160149D02*
X96178457Y-103103006D01*
X96178457Y-103103006D02*
X96407028Y-103045863D01*
X96407028Y-103045863D02*
X96578457Y-103045863D01*
X96578457Y-103045863D02*
X96807028Y-103103006D01*
X96807028Y-103103006D02*
X96921314Y-103160149D01*
X96921314Y-103160149D02*
X97035600Y-103274434D01*
X97035600Y-103274434D02*
X97092742Y-103445863D01*
X97092742Y-103445863D02*
X97092742Y-103560149D01*
X97092742Y-103560149D02*
X97035600Y-103731577D01*
X97035600Y-103731577D02*
X96978457Y-103788720D01*
X96978457Y-103788720D02*
X96578457Y-103788720D01*
X96578457Y-103788720D02*
X96578457Y-103560149D01*
X96292742Y-104817292D02*
X97092742Y-104817292D01*
X96292742Y-104303006D02*
X96921314Y-104303006D01*
X96921314Y-104303006D02*
X97035600Y-104360149D01*
X97035600Y-104360149D02*
X97092742Y-104474434D01*
X97092742Y-104474434D02*
X97092742Y-104645863D01*
X97092742Y-104645863D02*
X97035600Y-104760149D01*
X97035600Y-104760149D02*
X96978457Y-104817292D01*
X97092742Y-105903006D02*
X95892742Y-105903006D01*
X97035600Y-105903006D02*
X97092742Y-105788720D01*
X97092742Y-105788720D02*
X97092742Y-105560148D01*
X97092742Y-105560148D02*
X97035600Y-105445863D01*
X97035600Y-105445863D02*
X96978457Y-105388720D01*
X96978457Y-105388720D02*
X96864171Y-105331577D01*
X96864171Y-105331577D02*
X96521314Y-105331577D01*
X96521314Y-105331577D02*
X96407028Y-105388720D01*
X96407028Y-105388720D02*
X96349885Y-105445863D01*
X96349885Y-105445863D02*
X96292742Y-105560148D01*
X96292742Y-105560148D02*
X96292742Y-105788720D01*
X96292742Y-105788720D02*
X96349885Y-105903006D01*
X97092742Y-106988720D02*
X95892742Y-106988720D01*
X97035600Y-106988720D02*
X97092742Y-106874434D01*
X97092742Y-106874434D02*
X97092742Y-106645862D01*
X97092742Y-106645862D02*
X97035600Y-106531577D01*
X97035600Y-106531577D02*
X96978457Y-106474434D01*
X96978457Y-106474434D02*
X96864171Y-106417291D01*
X96864171Y-106417291D02*
X96521314Y-106417291D01*
X96521314Y-106417291D02*
X96407028Y-106474434D01*
X96407028Y-106474434D02*
X96349885Y-106531577D01*
X96349885Y-106531577D02*
X96292742Y-106645862D01*
X96292742Y-106645862D02*
X96292742Y-106874434D01*
X96292742Y-106874434D02*
X96349885Y-106988720D01*
X97092742Y-107731576D02*
X97035600Y-107617291D01*
X97035600Y-107617291D02*
X96921314Y-107560148D01*
X96921314Y-107560148D02*
X95892742Y-107560148D01*
X97035600Y-108645862D02*
X97092742Y-108531576D01*
X97092742Y-108531576D02*
X97092742Y-108303005D01*
X97092742Y-108303005D02*
X97035600Y-108188719D01*
X97035600Y-108188719D02*
X96921314Y-108131576D01*
X96921314Y-108131576D02*
X96464171Y-108131576D01*
X96464171Y-108131576D02*
X96349885Y-108188719D01*
X96349885Y-108188719D02*
X96292742Y-108303005D01*
X96292742Y-108303005D02*
X96292742Y-108531576D01*
X96292742Y-108531576D02*
X96349885Y-108645862D01*
X96349885Y-108645862D02*
X96464171Y-108703005D01*
X96464171Y-108703005D02*
X96578457Y-108703005D01*
X96578457Y-108703005D02*
X96692742Y-108131576D01*
X97092742Y-109217290D02*
X96292742Y-109217290D01*
X96521314Y-109217290D02*
X96407028Y-109274433D01*
X96407028Y-109274433D02*
X96349885Y-109331576D01*
X96349885Y-109331576D02*
X96292742Y-109445861D01*
X96292742Y-109445861D02*
X96292742Y-109560147D01*
X97035600Y-110017290D02*
X97092742Y-110017290D01*
X97092742Y-110017290D02*
X97207028Y-109960147D01*
X97207028Y-109960147D02*
X97264171Y-109903004D01*
X96292742Y-111274433D02*
X96292742Y-111731576D01*
X95892742Y-111445862D02*
X96921314Y-111445862D01*
X96921314Y-111445862D02*
X97035600Y-111503005D01*
X97035600Y-111503005D02*
X97092742Y-111617290D01*
X97092742Y-111617290D02*
X97092742Y-111731576D01*
X97092742Y-112131576D02*
X96292742Y-112131576D01*
X96407028Y-112131576D02*
X96349885Y-112188719D01*
X96349885Y-112188719D02*
X96292742Y-112303004D01*
X96292742Y-112303004D02*
X96292742Y-112474433D01*
X96292742Y-112474433D02*
X96349885Y-112588719D01*
X96349885Y-112588719D02*
X96464171Y-112645862D01*
X96464171Y-112645862D02*
X97092742Y-112645862D01*
X96464171Y-112645862D02*
X96349885Y-112703004D01*
X96349885Y-112703004D02*
X96292742Y-112817290D01*
X96292742Y-112817290D02*
X96292742Y-112988719D01*
X96292742Y-112988719D02*
X96349885Y-113103004D01*
X96349885Y-113103004D02*
X96464171Y-113160147D01*
X96464171Y-113160147D02*
X97092742Y-113160147D01*
X97092742Y-113731576D02*
X95892742Y-113731576D01*
X96635600Y-113845862D02*
X97092742Y-114188719D01*
X96292742Y-114188719D02*
X96749885Y-113731576D01*
D10*
X84289819Y-131171791D02*
X84289819Y-130695601D01*
X84289819Y-130695601D02*
X83289819Y-130695601D01*
X84385057Y-131267030D02*
X84385057Y-132028934D01*
X83766009Y-132267030D02*
X83766009Y-132600363D01*
X84289819Y-132743220D02*
X84289819Y-132267030D01*
X84289819Y-132267030D02*
X83289819Y-132267030D01*
X83289819Y-132267030D02*
X83289819Y-132743220D01*
X84289819Y-133171792D02*
X83289819Y-133171792D01*
X83289819Y-133171792D02*
X84289819Y-133743220D01*
X84289819Y-133743220D02*
X83289819Y-133743220D01*
X75719819Y-132912969D02*
X75719819Y-132436779D01*
X75719819Y-132436779D02*
X76196009Y-132389160D01*
X76196009Y-132389160D02*
X76148390Y-132436779D01*
X76148390Y-132436779D02*
X76100771Y-132532017D01*
X76100771Y-132532017D02*
X76100771Y-132770112D01*
X76100771Y-132770112D02*
X76148390Y-132865350D01*
X76148390Y-132865350D02*
X76196009Y-132912969D01*
X76196009Y-132912969D02*
X76291247Y-132960588D01*
X76291247Y-132960588D02*
X76529342Y-132960588D01*
X76529342Y-132960588D02*
X76624580Y-132912969D01*
X76624580Y-132912969D02*
X76672200Y-132865350D01*
X76672200Y-132865350D02*
X76719819Y-132770112D01*
X76719819Y-132770112D02*
X76719819Y-132532017D01*
X76719819Y-132532017D02*
X76672200Y-132436779D01*
X76672200Y-132436779D02*
X76624580Y-132389160D01*
X75719819Y-133246303D02*
X76719819Y-133579636D01*
X76719819Y-133579636D02*
X75719819Y-133912969D01*
G36*
X78134268Y-88254151D02*
G01*
X78149138Y-88265753D01*
X78156099Y-88283217D01*
X78156099Y-88347941D01*
X78156099Y-88356734D01*
X78169166Y-88373220D01*
X78199818Y-88381158D01*
X79511402Y-88381158D01*
X79533291Y-88377007D01*
X79548161Y-88365404D01*
X79555122Y-88347941D01*
X79555122Y-88283217D01*
X79555122Y-88274424D01*
X79568189Y-88257815D01*
X79598841Y-88250000D01*
X79686280Y-88250000D01*
X79708169Y-88254151D01*
X79723039Y-88265753D01*
X79730000Y-88283217D01*
X79730000Y-88741416D01*
X79730000Y-88750209D01*
X79716933Y-88766695D01*
X79686280Y-88774633D01*
X79598841Y-88774633D01*
X79576952Y-88770482D01*
X79562083Y-88758879D01*
X79555122Y-88741416D01*
X79555122Y-88676692D01*
X79555122Y-88667899D01*
X79542055Y-88651290D01*
X79511402Y-88643475D01*
X79030488Y-88643475D01*
X78899330Y-88643475D01*
X78877440Y-88647626D01*
X78862571Y-88659228D01*
X78855610Y-88676692D01*
X78855610Y-88807850D01*
X78853900Y-88860362D01*
X78843031Y-88914787D01*
X78820683Y-88966974D01*
X78771216Y-89035967D01*
X78705123Y-89091693D01*
X78619549Y-89134891D01*
X78526649Y-89159467D01*
X78418415Y-89168108D01*
X78316817Y-89159775D01*
X78219113Y-89134891D01*
X78133545Y-89092694D01*
X78066791Y-89037017D01*
X78016147Y-88966974D01*
X78012728Y-88960013D01*
X77990053Y-88899307D01*
X77981221Y-88807850D01*
X77981221Y-88676692D01*
X78156099Y-88676692D01*
X78156099Y-88807850D01*
X78166601Y-88856821D01*
X78197168Y-88893534D01*
X78243538Y-88905792D01*
X78593293Y-88905792D01*
X78619549Y-88902250D01*
X78653140Y-88883608D01*
X78673272Y-88853551D01*
X78680732Y-88807850D01*
X78680732Y-88676692D01*
X78680732Y-88667899D01*
X78668520Y-88651290D01*
X78637013Y-88643475D01*
X78199818Y-88643475D01*
X78177929Y-88647626D01*
X78163060Y-88659228D01*
X78156099Y-88676692D01*
X77981221Y-88676692D01*
X77981221Y-88283217D01*
X77981221Y-88274424D01*
X77994288Y-88257815D01*
X78024940Y-88250000D01*
X78112379Y-88250000D01*
X78134268Y-88254151D01*
G37*
G36*
X77981221Y-89856873D02*
G01*
X77981221Y-90052756D01*
X77988182Y-90070219D01*
X78003051Y-90081822D01*
X78024940Y-90085973D01*
X78287257Y-90085973D01*
X78317909Y-90078035D01*
X78330976Y-90061549D01*
X78330976Y-90052756D01*
X78330976Y-89856873D01*
X78324016Y-89839410D01*
X78309146Y-89827807D01*
X78287257Y-89823656D01*
X78024940Y-89823656D01*
X77994288Y-89831472D01*
X77981221Y-89848080D01*
X77981221Y-89856873D01*
G37*
G36*
X78505854Y-89725715D02*
G01*
X78505854Y-90052756D01*
X78512815Y-90070219D01*
X78527525Y-90080897D01*
X78549574Y-90085973D01*
X79511402Y-90085973D01*
X79542055Y-90093789D01*
X79555122Y-90110397D01*
X79555122Y-90119190D01*
X79555122Y-90183914D01*
X79562083Y-90201378D01*
X79576952Y-90212980D01*
X79598841Y-90217131D01*
X79686280Y-90217131D01*
X79716933Y-90209193D01*
X79730000Y-90192707D01*
X79730000Y-90183914D01*
X79730000Y-89725715D01*
X79723039Y-89708251D01*
X79708169Y-89696649D01*
X79686280Y-89692498D01*
X79598841Y-89692498D01*
X79568189Y-89700314D01*
X79555122Y-89716922D01*
X79555122Y-89725715D01*
X79555122Y-89790439D01*
X79548161Y-89807903D01*
X79533291Y-89819505D01*
X79511402Y-89823656D01*
X78724452Y-89823656D01*
X78693799Y-89815718D01*
X78680732Y-89799232D01*
X78680732Y-89790439D01*
X78680732Y-89725715D01*
X78673771Y-89708251D01*
X78658902Y-89696649D01*
X78637013Y-89692498D01*
X78549574Y-89692498D01*
X78518921Y-89700314D01*
X78505854Y-89716922D01*
X78505854Y-89725715D01*
G37*
G36*
X78505854Y-90970621D02*
G01*
X78505854Y-91068562D01*
X78513287Y-91212008D01*
X78528569Y-91271406D01*
X78592007Y-91374298D01*
X78685983Y-91468998D01*
X78760316Y-91515146D01*
X78811891Y-91528471D01*
X78842543Y-91520533D01*
X78853900Y-91504047D01*
X78855610Y-91495254D01*
X78855610Y-91430530D01*
X78850176Y-91365221D01*
X78838147Y-91334298D01*
X78806639Y-91302913D01*
X78768171Y-91266154D01*
X78694776Y-91175174D01*
X78684865Y-91135521D01*
X78680732Y-91068562D01*
X78680732Y-90970621D01*
X78688192Y-90924920D01*
X78708324Y-90894863D01*
X78741915Y-90876221D01*
X78768171Y-90872679D01*
X79467683Y-90872679D01*
X79514052Y-90884937D01*
X79544619Y-90921650D01*
X79555122Y-90970621D01*
X79555122Y-91068562D01*
X79545958Y-91155144D01*
X79523614Y-91204972D01*
X79467683Y-91266154D01*
X79430924Y-91302913D01*
X79395714Y-91341287D01*
X79383785Y-91365806D01*
X79380244Y-91430530D01*
X79380244Y-91495254D01*
X79387205Y-91512718D01*
X79402074Y-91524320D01*
X79423963Y-91528471D01*
X79469522Y-91519312D01*
X79526808Y-91487168D01*
X79600551Y-91421737D01*
X79664603Y-91344442D01*
X79707285Y-91271406D01*
X79722699Y-91209312D01*
X79730000Y-91068562D01*
X79730000Y-90970621D01*
X79721167Y-90879164D01*
X79698492Y-90818457D01*
X79695073Y-90811496D01*
X79644429Y-90741454D01*
X79577675Y-90685776D01*
X79492107Y-90643579D01*
X79396118Y-90618692D01*
X79296346Y-90610362D01*
X78941339Y-90610362D01*
X78838641Y-90618800D01*
X78743747Y-90643579D01*
X78657990Y-90686722D01*
X78591249Y-90742452D01*
X78540781Y-90811496D01*
X78519430Y-90862215D01*
X78509396Y-90907606D01*
X78505854Y-90970621D01*
G37*
G36*
X79394630Y-91800554D02*
G01*
X79492107Y-91825471D01*
X79576597Y-91867501D01*
X79643443Y-91923158D01*
X79695073Y-91993387D01*
X79698492Y-92000348D01*
X79721167Y-92061055D01*
X79730000Y-92152512D01*
X79730000Y-92350104D01*
X79726458Y-92414829D01*
X79716504Y-92458716D01*
X79695073Y-92509228D01*
X79644605Y-92578273D01*
X79577864Y-92634003D01*
X79492107Y-92677145D01*
X79395875Y-92701997D01*
X79294515Y-92710362D01*
X78941339Y-92710362D01*
X78841224Y-92702062D01*
X78743747Y-92677145D01*
X78659257Y-92635115D01*
X78592410Y-92579458D01*
X78540781Y-92509228D01*
X78537362Y-92502267D01*
X78514687Y-92441561D01*
X78505854Y-92350104D01*
X78505854Y-92152512D01*
X78680732Y-92152512D01*
X78680732Y-92350104D01*
X78691235Y-92399075D01*
X78721802Y-92435788D01*
X78768171Y-92448046D01*
X79467683Y-92448046D01*
X79493939Y-92444504D01*
X79527530Y-92425862D01*
X79547662Y-92395805D01*
X79555122Y-92350104D01*
X79555122Y-92152512D01*
X79544619Y-92103541D01*
X79514052Y-92066828D01*
X79467683Y-92054570D01*
X78768171Y-92054570D01*
X78741915Y-92058112D01*
X78708324Y-92076754D01*
X78688192Y-92106811D01*
X78680732Y-92152512D01*
X78505854Y-92152512D01*
X78509396Y-92087787D01*
X78519350Y-92043900D01*
X78540781Y-91993387D01*
X78591249Y-91924343D01*
X78657990Y-91868613D01*
X78743747Y-91825471D01*
X78839979Y-91800619D01*
X78941339Y-91792254D01*
X79294515Y-91792254D01*
X79394630Y-91800554D01*
G37*
D11*
X72682742Y-86887292D02*
X71482742Y-86887292D01*
X72682742Y-87401578D02*
X72054171Y-87401578D01*
X72054171Y-87401578D02*
X71939885Y-87344435D01*
X71939885Y-87344435D02*
X71882742Y-87230149D01*
X71882742Y-87230149D02*
X71882742Y-87058720D01*
X71882742Y-87058720D02*
X71939885Y-86944435D01*
X71939885Y-86944435D02*
X71997028Y-86887292D01*
X71882742Y-87801577D02*
X71882742Y-88258720D01*
X71482742Y-87973006D02*
X72511314Y-87973006D01*
X72511314Y-87973006D02*
X72625600Y-88030149D01*
X72625600Y-88030149D02*
X72682742Y-88144434D01*
X72682742Y-88144434D02*
X72682742Y-88258720D01*
X71882742Y-88487291D02*
X71882742Y-88944434D01*
X71482742Y-88658720D02*
X72511314Y-88658720D01*
X72511314Y-88658720D02*
X72625600Y-88715863D01*
X72625600Y-88715863D02*
X72682742Y-88830148D01*
X72682742Y-88830148D02*
X72682742Y-88944434D01*
X71882742Y-89344434D02*
X73082742Y-89344434D01*
X71939885Y-89344434D02*
X71882742Y-89458720D01*
X71882742Y-89458720D02*
X71882742Y-89687291D01*
X71882742Y-89687291D02*
X71939885Y-89801577D01*
X71939885Y-89801577D02*
X71997028Y-89858720D01*
X71997028Y-89858720D02*
X72111314Y-89915862D01*
X72111314Y-89915862D02*
X72454171Y-89915862D01*
X72454171Y-89915862D02*
X72568457Y-89858720D01*
X72568457Y-89858720D02*
X72625600Y-89801577D01*
X72625600Y-89801577D02*
X72682742Y-89687291D01*
X72682742Y-89687291D02*
X72682742Y-89458720D01*
X72682742Y-89458720D02*
X72625600Y-89344434D01*
X72625600Y-90373005D02*
X72682742Y-90487291D01*
X72682742Y-90487291D02*
X72682742Y-90715862D01*
X72682742Y-90715862D02*
X72625600Y-90830148D01*
X72625600Y-90830148D02*
X72511314Y-90887291D01*
X72511314Y-90887291D02*
X72454171Y-90887291D01*
X72454171Y-90887291D02*
X72339885Y-90830148D01*
X72339885Y-90830148D02*
X72282742Y-90715862D01*
X72282742Y-90715862D02*
X72282742Y-90544434D01*
X72282742Y-90544434D02*
X72225600Y-90430148D01*
X72225600Y-90430148D02*
X72111314Y-90373005D01*
X72111314Y-90373005D02*
X72054171Y-90373005D01*
X72054171Y-90373005D02*
X71939885Y-90430148D01*
X71939885Y-90430148D02*
X71882742Y-90544434D01*
X71882742Y-90544434D02*
X71882742Y-90715862D01*
X71882742Y-90715862D02*
X71939885Y-90830148D01*
X72568457Y-91401577D02*
X72625600Y-91458720D01*
X72625600Y-91458720D02*
X72682742Y-91401577D01*
X72682742Y-91401577D02*
X72625600Y-91344434D01*
X72625600Y-91344434D02*
X72568457Y-91401577D01*
X72568457Y-91401577D02*
X72682742Y-91401577D01*
X71939885Y-91401577D02*
X71997028Y-91458720D01*
X71997028Y-91458720D02*
X72054171Y-91401577D01*
X72054171Y-91401577D02*
X71997028Y-91344434D01*
X71997028Y-91344434D02*
X71939885Y-91401577D01*
X71939885Y-91401577D02*
X72054171Y-91401577D01*
X71425600Y-92830149D02*
X72968457Y-91801577D01*
X71425600Y-94087292D02*
X72968457Y-93058720D01*
X71882742Y-95001578D02*
X72854171Y-95001578D01*
X72854171Y-95001578D02*
X72968457Y-94944435D01*
X72968457Y-94944435D02*
X73025600Y-94887292D01*
X73025600Y-94887292D02*
X73082742Y-94773006D01*
X73082742Y-94773006D02*
X73082742Y-94601578D01*
X73082742Y-94601578D02*
X73025600Y-94487292D01*
X72625600Y-95001578D02*
X72682742Y-94887292D01*
X72682742Y-94887292D02*
X72682742Y-94658720D01*
X72682742Y-94658720D02*
X72625600Y-94544435D01*
X72625600Y-94544435D02*
X72568457Y-94487292D01*
X72568457Y-94487292D02*
X72454171Y-94430149D01*
X72454171Y-94430149D02*
X72111314Y-94430149D01*
X72111314Y-94430149D02*
X71997028Y-94487292D01*
X71997028Y-94487292D02*
X71939885Y-94544435D01*
X71939885Y-94544435D02*
X71882742Y-94658720D01*
X71882742Y-94658720D02*
X71882742Y-94887292D01*
X71882742Y-94887292D02*
X71939885Y-95001578D01*
X72682742Y-95573006D02*
X71882742Y-95573006D01*
X71482742Y-95573006D02*
X71539885Y-95515863D01*
X71539885Y-95515863D02*
X71597028Y-95573006D01*
X71597028Y-95573006D02*
X71539885Y-95630149D01*
X71539885Y-95630149D02*
X71482742Y-95573006D01*
X71482742Y-95573006D02*
X71597028Y-95573006D01*
X71882742Y-95973006D02*
X71882742Y-96430149D01*
X71482742Y-96144435D02*
X72511314Y-96144435D01*
X72511314Y-96144435D02*
X72625600Y-96201578D01*
X72625600Y-96201578D02*
X72682742Y-96315863D01*
X72682742Y-96315863D02*
X72682742Y-96430149D01*
X72682742Y-96830149D02*
X71482742Y-96830149D01*
X72682742Y-97344435D02*
X72054171Y-97344435D01*
X72054171Y-97344435D02*
X71939885Y-97287292D01*
X71939885Y-97287292D02*
X71882742Y-97173006D01*
X71882742Y-97173006D02*
X71882742Y-97001577D01*
X71882742Y-97001577D02*
X71939885Y-96887292D01*
X71939885Y-96887292D02*
X71997028Y-96830149D01*
X71882742Y-98430149D02*
X72682742Y-98430149D01*
X71882742Y-97915863D02*
X72511314Y-97915863D01*
X72511314Y-97915863D02*
X72625600Y-97973006D01*
X72625600Y-97973006D02*
X72682742Y-98087291D01*
X72682742Y-98087291D02*
X72682742Y-98258720D01*
X72682742Y-98258720D02*
X72625600Y-98373006D01*
X72625600Y-98373006D02*
X72568457Y-98430149D01*
X72682742Y-99001577D02*
X71482742Y-99001577D01*
X71939885Y-99001577D02*
X71882742Y-99115863D01*
X71882742Y-99115863D02*
X71882742Y-99344434D01*
X71882742Y-99344434D02*
X71939885Y-99458720D01*
X71939885Y-99458720D02*
X71997028Y-99515863D01*
X71997028Y-99515863D02*
X72111314Y-99573005D01*
X72111314Y-99573005D02*
X72454171Y-99573005D01*
X72454171Y-99573005D02*
X72568457Y-99515863D01*
X72568457Y-99515863D02*
X72625600Y-99458720D01*
X72625600Y-99458720D02*
X72682742Y-99344434D01*
X72682742Y-99344434D02*
X72682742Y-99115863D01*
X72682742Y-99115863D02*
X72625600Y-99001577D01*
X72568457Y-100087291D02*
X72625600Y-100144434D01*
X72625600Y-100144434D02*
X72682742Y-100087291D01*
X72682742Y-100087291D02*
X72625600Y-100030148D01*
X72625600Y-100030148D02*
X72568457Y-100087291D01*
X72568457Y-100087291D02*
X72682742Y-100087291D01*
X72625600Y-101173006D02*
X72682742Y-101058720D01*
X72682742Y-101058720D02*
X72682742Y-100830148D01*
X72682742Y-100830148D02*
X72625600Y-100715863D01*
X72625600Y-100715863D02*
X72568457Y-100658720D01*
X72568457Y-100658720D02*
X72454171Y-100601577D01*
X72454171Y-100601577D02*
X72111314Y-100601577D01*
X72111314Y-100601577D02*
X71997028Y-100658720D01*
X71997028Y-100658720D02*
X71939885Y-100715863D01*
X71939885Y-100715863D02*
X71882742Y-100830148D01*
X71882742Y-100830148D02*
X71882742Y-101058720D01*
X71882742Y-101058720D02*
X71939885Y-101173006D01*
X72682742Y-101858719D02*
X72625600Y-101744434D01*
X72625600Y-101744434D02*
X72568457Y-101687291D01*
X72568457Y-101687291D02*
X72454171Y-101630148D01*
X72454171Y-101630148D02*
X72111314Y-101630148D01*
X72111314Y-101630148D02*
X71997028Y-101687291D01*
X71997028Y-101687291D02*
X71939885Y-101744434D01*
X71939885Y-101744434D02*
X71882742Y-101858719D01*
X71882742Y-101858719D02*
X71882742Y-102030148D01*
X71882742Y-102030148D02*
X71939885Y-102144434D01*
X71939885Y-102144434D02*
X71997028Y-102201577D01*
X71997028Y-102201577D02*
X72111314Y-102258719D01*
X72111314Y-102258719D02*
X72454171Y-102258719D01*
X72454171Y-102258719D02*
X72568457Y-102201577D01*
X72568457Y-102201577D02*
X72625600Y-102144434D01*
X72625600Y-102144434D02*
X72682742Y-102030148D01*
X72682742Y-102030148D02*
X72682742Y-101858719D01*
X72682742Y-102773005D02*
X71882742Y-102773005D01*
X71997028Y-102773005D02*
X71939885Y-102830148D01*
X71939885Y-102830148D02*
X71882742Y-102944433D01*
X71882742Y-102944433D02*
X71882742Y-103115862D01*
X71882742Y-103115862D02*
X71939885Y-103230148D01*
X71939885Y-103230148D02*
X72054171Y-103287291D01*
X72054171Y-103287291D02*
X72682742Y-103287291D01*
X72054171Y-103287291D02*
X71939885Y-103344433D01*
X71939885Y-103344433D02*
X71882742Y-103458719D01*
X71882742Y-103458719D02*
X71882742Y-103630148D01*
X71882742Y-103630148D02*
X71939885Y-103744433D01*
X71939885Y-103744433D02*
X72054171Y-103801576D01*
X72054171Y-103801576D02*
X72682742Y-103801576D01*
X71425600Y-105230148D02*
X72968457Y-104201576D01*
X72682742Y-105630148D02*
X71882742Y-105630148D01*
X72111314Y-105630148D02*
X71997028Y-105687291D01*
X71997028Y-105687291D02*
X71939885Y-105744434D01*
X71939885Y-105744434D02*
X71882742Y-105858719D01*
X71882742Y-105858719D02*
X71882742Y-105973005D01*
X72625600Y-106830148D02*
X72682742Y-106715862D01*
X72682742Y-106715862D02*
X72682742Y-106487291D01*
X72682742Y-106487291D02*
X72625600Y-106373005D01*
X72625600Y-106373005D02*
X72511314Y-106315862D01*
X72511314Y-106315862D02*
X72054171Y-106315862D01*
X72054171Y-106315862D02*
X71939885Y-106373005D01*
X71939885Y-106373005D02*
X71882742Y-106487291D01*
X71882742Y-106487291D02*
X71882742Y-106715862D01*
X71882742Y-106715862D02*
X71939885Y-106830148D01*
X71939885Y-106830148D02*
X72054171Y-106887291D01*
X72054171Y-106887291D02*
X72168457Y-106887291D01*
X72168457Y-106887291D02*
X72282742Y-106315862D01*
X71882742Y-107230147D02*
X71882742Y-107687290D01*
X71482742Y-107401576D02*
X72511314Y-107401576D01*
X72511314Y-107401576D02*
X72625600Y-107458719D01*
X72625600Y-107458719D02*
X72682742Y-107573004D01*
X72682742Y-107573004D02*
X72682742Y-107687290D01*
X72682742Y-108087290D02*
X71882742Y-108087290D01*
X72111314Y-108087290D02*
X71997028Y-108144433D01*
X71997028Y-108144433D02*
X71939885Y-108201576D01*
X71939885Y-108201576D02*
X71882742Y-108315861D01*
X71882742Y-108315861D02*
X71882742Y-108430147D01*
X72682742Y-109001575D02*
X72625600Y-108887290D01*
X72625600Y-108887290D02*
X72568457Y-108830147D01*
X72568457Y-108830147D02*
X72454171Y-108773004D01*
X72454171Y-108773004D02*
X72111314Y-108773004D01*
X72111314Y-108773004D02*
X71997028Y-108830147D01*
X71997028Y-108830147D02*
X71939885Y-108887290D01*
X71939885Y-108887290D02*
X71882742Y-109001575D01*
X71882742Y-109001575D02*
X71882742Y-109173004D01*
X71882742Y-109173004D02*
X71939885Y-109287290D01*
X71939885Y-109287290D02*
X71997028Y-109344433D01*
X71997028Y-109344433D02*
X72111314Y-109401575D01*
X72111314Y-109401575D02*
X72454171Y-109401575D01*
X72454171Y-109401575D02*
X72568457Y-109344433D01*
X72568457Y-109344433D02*
X72625600Y-109287290D01*
X72625600Y-109287290D02*
X72682742Y-109173004D01*
X72682742Y-109173004D02*
X72682742Y-109001575D01*
X72625600Y-109858718D02*
X72682742Y-109973004D01*
X72682742Y-109973004D02*
X72682742Y-110201575D01*
X72682742Y-110201575D02*
X72625600Y-110315861D01*
X72625600Y-110315861D02*
X72511314Y-110373004D01*
X72511314Y-110373004D02*
X72454171Y-110373004D01*
X72454171Y-110373004D02*
X72339885Y-110315861D01*
X72339885Y-110315861D02*
X72282742Y-110201575D01*
X72282742Y-110201575D02*
X72282742Y-110030147D01*
X72282742Y-110030147D02*
X72225600Y-109915861D01*
X72225600Y-109915861D02*
X72111314Y-109858718D01*
X72111314Y-109858718D02*
X72054171Y-109858718D01*
X72054171Y-109858718D02*
X71939885Y-109915861D01*
X71939885Y-109915861D02*
X71882742Y-110030147D01*
X71882742Y-110030147D02*
X71882742Y-110201575D01*
X71882742Y-110201575D02*
X71939885Y-110315861D01*
X71882742Y-110773004D02*
X72682742Y-111001576D01*
X72682742Y-111001576D02*
X72111314Y-111230147D01*
X72111314Y-111230147D02*
X72682742Y-111458718D01*
X72682742Y-111458718D02*
X71882742Y-111687290D01*
X72682742Y-112144433D02*
X71882742Y-112144433D01*
X71482742Y-112144433D02*
X71539885Y-112087290D01*
X71539885Y-112087290D02*
X71597028Y-112144433D01*
X71597028Y-112144433D02*
X71539885Y-112201576D01*
X71539885Y-112201576D02*
X71482742Y-112144433D01*
X71482742Y-112144433D02*
X71597028Y-112144433D01*
X72682742Y-112715862D02*
X71882742Y-112715862D01*
X71997028Y-112715862D02*
X71939885Y-112773005D01*
X71939885Y-112773005D02*
X71882742Y-112887290D01*
X71882742Y-112887290D02*
X71882742Y-113058719D01*
X71882742Y-113058719D02*
X71939885Y-113173005D01*
X71939885Y-113173005D02*
X72054171Y-113230148D01*
X72054171Y-113230148D02*
X72682742Y-113230148D01*
X72054171Y-113230148D02*
X71939885Y-113287290D01*
X71939885Y-113287290D02*
X71882742Y-113401576D01*
X71882742Y-113401576D02*
X71882742Y-113573005D01*
X71882742Y-113573005D02*
X71939885Y-113687290D01*
X71939885Y-113687290D02*
X72054171Y-113744433D01*
X72054171Y-113744433D02*
X72682742Y-113744433D01*
X71425600Y-115173005D02*
X72968457Y-114144433D01*
X72682742Y-115573005D02*
X71482742Y-115573005D01*
X71482742Y-115573005D02*
X71482742Y-116030148D01*
X71482742Y-116030148D02*
X71539885Y-116144433D01*
X71539885Y-116144433D02*
X71597028Y-116201576D01*
X71597028Y-116201576D02*
X71711314Y-116258719D01*
X71711314Y-116258719D02*
X71882742Y-116258719D01*
X71882742Y-116258719D02*
X71997028Y-116201576D01*
X71997028Y-116201576D02*
X72054171Y-116144433D01*
X72054171Y-116144433D02*
X72111314Y-116030148D01*
X72111314Y-116030148D02*
X72111314Y-115573005D01*
X72682742Y-116773005D02*
X71882742Y-116773005D01*
X71482742Y-116773005D02*
X71539885Y-116715862D01*
X71539885Y-116715862D02*
X71597028Y-116773005D01*
X71597028Y-116773005D02*
X71539885Y-116830148D01*
X71539885Y-116830148D02*
X71482742Y-116773005D01*
X71482742Y-116773005D02*
X71597028Y-116773005D01*
X72625600Y-117858720D02*
X72682742Y-117744434D01*
X72682742Y-117744434D02*
X72682742Y-117515862D01*
X72682742Y-117515862D02*
X72625600Y-117401577D01*
X72625600Y-117401577D02*
X72568457Y-117344434D01*
X72568457Y-117344434D02*
X72454171Y-117287291D01*
X72454171Y-117287291D02*
X72111314Y-117287291D01*
X72111314Y-117287291D02*
X71997028Y-117344434D01*
X71997028Y-117344434D02*
X71939885Y-117401577D01*
X71939885Y-117401577D02*
X71882742Y-117515862D01*
X71882742Y-117515862D02*
X71882742Y-117744434D01*
X71882742Y-117744434D02*
X71939885Y-117858720D01*
X72682742Y-118544433D02*
X72625600Y-118430148D01*
X72625600Y-118430148D02*
X72568457Y-118373005D01*
X72568457Y-118373005D02*
X72454171Y-118315862D01*
X72454171Y-118315862D02*
X72111314Y-118315862D01*
X72111314Y-118315862D02*
X71997028Y-118373005D01*
X71997028Y-118373005D02*
X71939885Y-118430148D01*
X71939885Y-118430148D02*
X71882742Y-118544433D01*
X71882742Y-118544433D02*
X71882742Y-118715862D01*
X71882742Y-118715862D02*
X71939885Y-118830148D01*
X71939885Y-118830148D02*
X71997028Y-118887291D01*
X71997028Y-118887291D02*
X72111314Y-118944433D01*
X72111314Y-118944433D02*
X72454171Y-118944433D01*
X72454171Y-118944433D02*
X72568457Y-118887291D01*
X72568457Y-118887291D02*
X72625600Y-118830148D01*
X72625600Y-118830148D02*
X72682742Y-118715862D01*
X72682742Y-118715862D02*
X72682742Y-118544433D01*
X71482742Y-119344433D02*
X72682742Y-120144433D01*
X71482742Y-120144433D02*
X72682742Y-119344433D01*
X71482742Y-121115862D02*
X71482742Y-120887290D01*
X71482742Y-120887290D02*
X71539885Y-120773004D01*
X71539885Y-120773004D02*
X71597028Y-120715862D01*
X71597028Y-120715862D02*
X71768457Y-120601576D01*
X71768457Y-120601576D02*
X71997028Y-120544433D01*
X71997028Y-120544433D02*
X72454171Y-120544433D01*
X72454171Y-120544433D02*
X72568457Y-120601576D01*
X72568457Y-120601576D02*
X72625600Y-120658719D01*
X72625600Y-120658719D02*
X72682742Y-120773004D01*
X72682742Y-120773004D02*
X72682742Y-121001576D01*
X72682742Y-121001576D02*
X72625600Y-121115862D01*
X72625600Y-121115862D02*
X72568457Y-121173004D01*
X72568457Y-121173004D02*
X72454171Y-121230147D01*
X72454171Y-121230147D02*
X72168457Y-121230147D01*
X72168457Y-121230147D02*
X72054171Y-121173004D01*
X72054171Y-121173004D02*
X71997028Y-121115862D01*
X71997028Y-121115862D02*
X71939885Y-121001576D01*
X71939885Y-121001576D02*
X71939885Y-120773004D01*
X71939885Y-120773004D02*
X71997028Y-120658719D01*
X71997028Y-120658719D02*
X72054171Y-120601576D01*
X72054171Y-120601576D02*
X72168457Y-120544433D01*
X71997028Y-121915861D02*
X71939885Y-121801576D01*
X71939885Y-121801576D02*
X71882742Y-121744433D01*
X71882742Y-121744433D02*
X71768457Y-121687290D01*
X71768457Y-121687290D02*
X71711314Y-121687290D01*
X71711314Y-121687290D02*
X71597028Y-121744433D01*
X71597028Y-121744433D02*
X71539885Y-121801576D01*
X71539885Y-121801576D02*
X71482742Y-121915861D01*
X71482742Y-121915861D02*
X71482742Y-122144433D01*
X71482742Y-122144433D02*
X71539885Y-122258719D01*
X71539885Y-122258719D02*
X71597028Y-122315861D01*
X71597028Y-122315861D02*
X71711314Y-122373004D01*
X71711314Y-122373004D02*
X71768457Y-122373004D01*
X71768457Y-122373004D02*
X71882742Y-122315861D01*
X71882742Y-122315861D02*
X71939885Y-122258719D01*
X71939885Y-122258719D02*
X71997028Y-122144433D01*
X71997028Y-122144433D02*
X71997028Y-121915861D01*
X71997028Y-121915861D02*
X72054171Y-121801576D01*
X72054171Y-121801576D02*
X72111314Y-121744433D01*
X72111314Y-121744433D02*
X72225600Y-121687290D01*
X72225600Y-121687290D02*
X72454171Y-121687290D01*
X72454171Y-121687290D02*
X72568457Y-121744433D01*
X72568457Y-121744433D02*
X72625600Y-121801576D01*
X72625600Y-121801576D02*
X72682742Y-121915861D01*
X72682742Y-121915861D02*
X72682742Y-122144433D01*
X72682742Y-122144433D02*
X72625600Y-122258719D01*
X72625600Y-122258719D02*
X72568457Y-122315861D01*
X72568457Y-122315861D02*
X72454171Y-122373004D01*
X72454171Y-122373004D02*
X72225600Y-122373004D01*
X72225600Y-122373004D02*
X72111314Y-122315861D01*
X72111314Y-122315861D02*
X72054171Y-122258719D01*
X72054171Y-122258719D02*
X71997028Y-122144433D01*
X72682742Y-122887290D02*
X71482742Y-122887290D01*
X72682742Y-123573004D02*
X71997028Y-123058718D01*
X71482742Y-123573004D02*
X72168457Y-122887290D01*
X72625600Y-124544433D02*
X72682742Y-124430147D01*
X72682742Y-124430147D02*
X72682742Y-124201576D01*
X72682742Y-124201576D02*
X72625600Y-124087290D01*
X72625600Y-124087290D02*
X72511314Y-124030147D01*
X72511314Y-124030147D02*
X72054171Y-124030147D01*
X72054171Y-124030147D02*
X71939885Y-124087290D01*
X71939885Y-124087290D02*
X71882742Y-124201576D01*
X71882742Y-124201576D02*
X71882742Y-124430147D01*
X71882742Y-124430147D02*
X71939885Y-124544433D01*
X71939885Y-124544433D02*
X72054171Y-124601576D01*
X72054171Y-124601576D02*
X72168457Y-124601576D01*
X72168457Y-124601576D02*
X72282742Y-124030147D01*
X71882742Y-125001575D02*
X72682742Y-125287289D01*
X71882742Y-125573004D02*
X72682742Y-125287289D01*
X72682742Y-125287289D02*
X72968457Y-125173004D01*
X72968457Y-125173004D02*
X73025600Y-125115861D01*
X73025600Y-125115861D02*
X73082742Y-125001575D01*
D10*
X88369819Y-130741541D02*
X88369819Y-131360588D01*
X88369819Y-131360588D02*
X88750771Y-131027255D01*
X88750771Y-131027255D02*
X88750771Y-131170112D01*
X88750771Y-131170112D02*
X88798390Y-131265350D01*
X88798390Y-131265350D02*
X88846009Y-131312969D01*
X88846009Y-131312969D02*
X88941247Y-131360588D01*
X88941247Y-131360588D02*
X89179342Y-131360588D01*
X89179342Y-131360588D02*
X89274580Y-131312969D01*
X89274580Y-131312969D02*
X89322200Y-131265350D01*
X89322200Y-131265350D02*
X89369819Y-131170112D01*
X89369819Y-131170112D02*
X89369819Y-130884398D01*
X89369819Y-130884398D02*
X89322200Y-130789160D01*
X89322200Y-130789160D02*
X89274580Y-130741541D01*
X89274580Y-131789160D02*
X89322200Y-131836779D01*
X89322200Y-131836779D02*
X89369819Y-131789160D01*
X89369819Y-131789160D02*
X89322200Y-131741541D01*
X89322200Y-131741541D02*
X89274580Y-131789160D01*
X89274580Y-131789160D02*
X89369819Y-131789160D01*
X88369819Y-132170112D02*
X88369819Y-132789159D01*
X88369819Y-132789159D02*
X88750771Y-132455826D01*
X88750771Y-132455826D02*
X88750771Y-132598683D01*
X88750771Y-132598683D02*
X88798390Y-132693921D01*
X88798390Y-132693921D02*
X88846009Y-132741540D01*
X88846009Y-132741540D02*
X88941247Y-132789159D01*
X88941247Y-132789159D02*
X89179342Y-132789159D01*
X89179342Y-132789159D02*
X89274580Y-132741540D01*
X89274580Y-132741540D02*
X89322200Y-132693921D01*
X89322200Y-132693921D02*
X89369819Y-132598683D01*
X89369819Y-132598683D02*
X89369819Y-132312969D01*
X89369819Y-132312969D02*
X89322200Y-132217731D01*
X89322200Y-132217731D02*
X89274580Y-132170112D01*
X88369819Y-133074874D02*
X89369819Y-133408207D01*
X89369819Y-133408207D02*
X88369819Y-133741540D01*
X88117494Y-87350588D02*
X88069875Y-87255350D01*
X88069875Y-87255350D02*
X88069875Y-87112493D01*
X88069875Y-87112493D02*
X88117494Y-86969636D01*
X88117494Y-86969636D02*
X88212732Y-86874398D01*
X88212732Y-86874398D02*
X88307970Y-86826779D01*
X88307970Y-86826779D02*
X88498446Y-86779160D01*
X88498446Y-86779160D02*
X88641303Y-86779160D01*
X88641303Y-86779160D02*
X88831779Y-86826779D01*
X88831779Y-86826779D02*
X88927017Y-86874398D01*
X88927017Y-86874398D02*
X89022256Y-86969636D01*
X89022256Y-86969636D02*
X89069875Y-87112493D01*
X89069875Y-87112493D02*
X89069875Y-87207731D01*
X89069875Y-87207731D02*
X89022256Y-87350588D01*
X89022256Y-87350588D02*
X88974636Y-87398207D01*
X88974636Y-87398207D02*
X88641303Y-87398207D01*
X88641303Y-87398207D02*
X88641303Y-87207731D01*
X89069875Y-87826779D02*
X88403208Y-87826779D01*
X88593684Y-87826779D02*
X88498446Y-87874398D01*
X88498446Y-87874398D02*
X88450827Y-87922017D01*
X88450827Y-87922017D02*
X88403208Y-88017255D01*
X88403208Y-88017255D02*
X88403208Y-88112493D01*
X89022256Y-88826779D02*
X89069875Y-88731541D01*
X89069875Y-88731541D02*
X89069875Y-88541065D01*
X89069875Y-88541065D02*
X89022256Y-88445827D01*
X89022256Y-88445827D02*
X88927017Y-88398208D01*
X88927017Y-88398208D02*
X88546065Y-88398208D01*
X88546065Y-88398208D02*
X88450827Y-88445827D01*
X88450827Y-88445827D02*
X88403208Y-88541065D01*
X88403208Y-88541065D02*
X88403208Y-88731541D01*
X88403208Y-88731541D02*
X88450827Y-88826779D01*
X88450827Y-88826779D02*
X88546065Y-88874398D01*
X88546065Y-88874398D02*
X88641303Y-88874398D01*
X88641303Y-88874398D02*
X88736541Y-88398208D01*
X89022256Y-89683922D02*
X89069875Y-89588684D01*
X89069875Y-89588684D02*
X89069875Y-89398208D01*
X89069875Y-89398208D02*
X89022256Y-89302970D01*
X89022256Y-89302970D02*
X88927017Y-89255351D01*
X88927017Y-89255351D02*
X88546065Y-89255351D01*
X88546065Y-89255351D02*
X88450827Y-89302970D01*
X88450827Y-89302970D02*
X88403208Y-89398208D01*
X88403208Y-89398208D02*
X88403208Y-89588684D01*
X88403208Y-89588684D02*
X88450827Y-89683922D01*
X88450827Y-89683922D02*
X88546065Y-89731541D01*
X88546065Y-89731541D02*
X88641303Y-89731541D01*
X88641303Y-89731541D02*
X88736541Y-89255351D01*
X88403208Y-90017256D02*
X88403208Y-90398208D01*
X88069875Y-90160113D02*
X88927017Y-90160113D01*
X88927017Y-90160113D02*
X89022256Y-90207732D01*
X89022256Y-90207732D02*
X89069875Y-90302970D01*
X89069875Y-90302970D02*
X89069875Y-90398208D01*
X89022256Y-90683923D02*
X89069875Y-90779161D01*
X89069875Y-90779161D02*
X89069875Y-90969637D01*
X89069875Y-90969637D02*
X89022256Y-91064875D01*
X89022256Y-91064875D02*
X88927017Y-91112494D01*
X88927017Y-91112494D02*
X88879398Y-91112494D01*
X88879398Y-91112494D02*
X88784160Y-91064875D01*
X88784160Y-91064875D02*
X88736541Y-90969637D01*
X88736541Y-90969637D02*
X88736541Y-90826780D01*
X88736541Y-90826780D02*
X88688922Y-90731542D01*
X88688922Y-90731542D02*
X88593684Y-90683923D01*
X88593684Y-90683923D02*
X88546065Y-90683923D01*
X88546065Y-90683923D02*
X88450827Y-90731542D01*
X88450827Y-90731542D02*
X88403208Y-90826780D01*
X88403208Y-90826780D02*
X88403208Y-90969637D01*
X88403208Y-90969637D02*
X88450827Y-91064875D01*
X88974636Y-91541066D02*
X89022256Y-91588685D01*
X89022256Y-91588685D02*
X89069875Y-91541066D01*
X89069875Y-91541066D02*
X89022256Y-91493447D01*
X89022256Y-91493447D02*
X88974636Y-91541066D01*
X88974636Y-91541066D02*
X89069875Y-91541066D01*
X88450827Y-91541066D02*
X88498446Y-91588685D01*
X88498446Y-91588685D02*
X88546065Y-91541066D01*
X88546065Y-91541066D02*
X88498446Y-91493447D01*
X88498446Y-91493447D02*
X88450827Y-91541066D01*
X88450827Y-91541066D02*
X88546065Y-91541066D01*
X88784160Y-92731542D02*
X88784160Y-93207732D01*
X89069875Y-92636304D02*
X88069875Y-92969637D01*
X88069875Y-92969637D02*
X89069875Y-93302970D01*
X89069875Y-94207732D02*
X88593684Y-93874399D01*
X89069875Y-93636304D02*
X88069875Y-93636304D01*
X88069875Y-93636304D02*
X88069875Y-94017256D01*
X88069875Y-94017256D02*
X88117494Y-94112494D01*
X88117494Y-94112494D02*
X88165113Y-94160113D01*
X88165113Y-94160113D02*
X88260351Y-94207732D01*
X88260351Y-94207732D02*
X88403208Y-94207732D01*
X88403208Y-94207732D02*
X88498446Y-94160113D01*
X88498446Y-94160113D02*
X88546065Y-94112494D01*
X88546065Y-94112494D02*
X88593684Y-94017256D01*
X88593684Y-94017256D02*
X88593684Y-93636304D01*
X88546065Y-94969637D02*
X88593684Y-95112494D01*
X88593684Y-95112494D02*
X88641303Y-95160113D01*
X88641303Y-95160113D02*
X88736541Y-95207732D01*
X88736541Y-95207732D02*
X88879398Y-95207732D01*
X88879398Y-95207732D02*
X88974636Y-95160113D01*
X88974636Y-95160113D02*
X89022256Y-95112494D01*
X89022256Y-95112494D02*
X89069875Y-95017256D01*
X89069875Y-95017256D02*
X89069875Y-94636304D01*
X89069875Y-94636304D02*
X88069875Y-94636304D01*
X88069875Y-94636304D02*
X88069875Y-94969637D01*
X88069875Y-94969637D02*
X88117494Y-95064875D01*
X88117494Y-95064875D02*
X88165113Y-95112494D01*
X88165113Y-95112494D02*
X88260351Y-95160113D01*
X88260351Y-95160113D02*
X88355589Y-95160113D01*
X88355589Y-95160113D02*
X88450827Y-95112494D01*
X88450827Y-95112494D02*
X88498446Y-95064875D01*
X88498446Y-95064875D02*
X88546065Y-94969637D01*
X88546065Y-94969637D02*
X88546065Y-94636304D01*
X89022256Y-96826780D02*
X89069875Y-96731542D01*
X89069875Y-96731542D02*
X89069875Y-96541066D01*
X89069875Y-96541066D02*
X89022256Y-96445828D01*
X89022256Y-96445828D02*
X88974636Y-96398209D01*
X88974636Y-96398209D02*
X88879398Y-96350590D01*
X88879398Y-96350590D02*
X88593684Y-96350590D01*
X88593684Y-96350590D02*
X88498446Y-96398209D01*
X88498446Y-96398209D02*
X88450827Y-96445828D01*
X88450827Y-96445828D02*
X88403208Y-96541066D01*
X88403208Y-96541066D02*
X88403208Y-96731542D01*
X88403208Y-96731542D02*
X88450827Y-96826780D01*
X89069875Y-97255352D02*
X88403208Y-97255352D01*
X88593684Y-97255352D02*
X88498446Y-97302971D01*
X88498446Y-97302971D02*
X88450827Y-97350590D01*
X88450827Y-97350590D02*
X88403208Y-97445828D01*
X88403208Y-97445828D02*
X88403208Y-97541066D01*
X89022256Y-98255352D02*
X89069875Y-98160114D01*
X89069875Y-98160114D02*
X89069875Y-97969638D01*
X89069875Y-97969638D02*
X89022256Y-97874400D01*
X89022256Y-97874400D02*
X88927017Y-97826781D01*
X88927017Y-97826781D02*
X88546065Y-97826781D01*
X88546065Y-97826781D02*
X88450827Y-97874400D01*
X88450827Y-97874400D02*
X88403208Y-97969638D01*
X88403208Y-97969638D02*
X88403208Y-98160114D01*
X88403208Y-98160114D02*
X88450827Y-98255352D01*
X88450827Y-98255352D02*
X88546065Y-98302971D01*
X88546065Y-98302971D02*
X88641303Y-98302971D01*
X88641303Y-98302971D02*
X88736541Y-97826781D01*
X88403208Y-98636305D02*
X89069875Y-98826781D01*
X89069875Y-98826781D02*
X88593684Y-99017257D01*
X88593684Y-99017257D02*
X89069875Y-99207733D01*
X89069875Y-99207733D02*
X88403208Y-99398209D01*
X89022256Y-99826781D02*
X89069875Y-99826781D01*
X89069875Y-99826781D02*
X89165113Y-99779162D01*
X89165113Y-99779162D02*
X89212732Y-99731543D01*
X88403208Y-101017257D02*
X89403208Y-101017257D01*
X88450827Y-101017257D02*
X88403208Y-101112495D01*
X88403208Y-101112495D02*
X88403208Y-101302971D01*
X88403208Y-101302971D02*
X88450827Y-101398209D01*
X88450827Y-101398209D02*
X88498446Y-101445828D01*
X88498446Y-101445828D02*
X88593684Y-101493447D01*
X88593684Y-101493447D02*
X88879398Y-101493447D01*
X88879398Y-101493447D02*
X88974636Y-101445828D01*
X88974636Y-101445828D02*
X89022256Y-101398209D01*
X89022256Y-101398209D02*
X89069875Y-101302971D01*
X89069875Y-101302971D02*
X89069875Y-101112495D01*
X89069875Y-101112495D02*
X89022256Y-101017257D01*
X89069875Y-102064876D02*
X89022256Y-101969638D01*
X89022256Y-101969638D02*
X88974636Y-101922019D01*
X88974636Y-101922019D02*
X88879398Y-101874400D01*
X88879398Y-101874400D02*
X88593684Y-101874400D01*
X88593684Y-101874400D02*
X88498446Y-101922019D01*
X88498446Y-101922019D02*
X88450827Y-101969638D01*
X88450827Y-101969638D02*
X88403208Y-102064876D01*
X88403208Y-102064876D02*
X88403208Y-102207733D01*
X88403208Y-102207733D02*
X88450827Y-102302971D01*
X88450827Y-102302971D02*
X88498446Y-102350590D01*
X88498446Y-102350590D02*
X88593684Y-102398209D01*
X88593684Y-102398209D02*
X88879398Y-102398209D01*
X88879398Y-102398209D02*
X88974636Y-102350590D01*
X88974636Y-102350590D02*
X89022256Y-102302971D01*
X89022256Y-102302971D02*
X89069875Y-102207733D01*
X89069875Y-102207733D02*
X89069875Y-102064876D01*
X89069875Y-102969638D02*
X89022256Y-102874400D01*
X89022256Y-102874400D02*
X88927017Y-102826781D01*
X88927017Y-102826781D02*
X88069875Y-102826781D01*
X88403208Y-103350591D02*
X89403208Y-103350591D01*
X88450827Y-103350591D02*
X88403208Y-103445829D01*
X88403208Y-103445829D02*
X88403208Y-103636305D01*
X88403208Y-103636305D02*
X88450827Y-103731543D01*
X88450827Y-103731543D02*
X88498446Y-103779162D01*
X88498446Y-103779162D02*
X88593684Y-103826781D01*
X88593684Y-103826781D02*
X88879398Y-103826781D01*
X88879398Y-103826781D02*
X88974636Y-103779162D01*
X88974636Y-103779162D02*
X89022256Y-103731543D01*
X89022256Y-103731543D02*
X89069875Y-103636305D01*
X89069875Y-103636305D02*
X89069875Y-103445829D01*
X89069875Y-103445829D02*
X89022256Y-103350591D01*
X89069875Y-104398210D02*
X89022256Y-104302972D01*
X89022256Y-104302972D02*
X88974636Y-104255353D01*
X88974636Y-104255353D02*
X88879398Y-104207734D01*
X88879398Y-104207734D02*
X88593684Y-104207734D01*
X88593684Y-104207734D02*
X88498446Y-104255353D01*
X88498446Y-104255353D02*
X88450827Y-104302972D01*
X88450827Y-104302972D02*
X88403208Y-104398210D01*
X88403208Y-104398210D02*
X88403208Y-104541067D01*
X88403208Y-104541067D02*
X88450827Y-104636305D01*
X88450827Y-104636305D02*
X88498446Y-104683924D01*
X88498446Y-104683924D02*
X88593684Y-104731543D01*
X88593684Y-104731543D02*
X88879398Y-104731543D01*
X88879398Y-104731543D02*
X88974636Y-104683924D01*
X88974636Y-104683924D02*
X89022256Y-104636305D01*
X89022256Y-104636305D02*
X89069875Y-104541067D01*
X89069875Y-104541067D02*
X89069875Y-104398210D01*
X89022256Y-105207734D02*
X89069875Y-105207734D01*
X89069875Y-105207734D02*
X89165113Y-105160115D01*
X89165113Y-105160115D02*
X89212732Y-105112496D01*
X88546065Y-106731543D02*
X88546065Y-106398210D01*
X89069875Y-106398210D02*
X88069875Y-106398210D01*
X88069875Y-106398210D02*
X88069875Y-106874400D01*
X89069875Y-107255353D02*
X88403208Y-107255353D01*
X88593684Y-107255353D02*
X88498446Y-107302972D01*
X88498446Y-107302972D02*
X88450827Y-107350591D01*
X88450827Y-107350591D02*
X88403208Y-107445829D01*
X88403208Y-107445829D02*
X88403208Y-107541067D01*
X89022256Y-108255353D02*
X89069875Y-108160115D01*
X89069875Y-108160115D02*
X89069875Y-107969639D01*
X89069875Y-107969639D02*
X89022256Y-107874401D01*
X89022256Y-107874401D02*
X88927017Y-107826782D01*
X88927017Y-107826782D02*
X88546065Y-107826782D01*
X88546065Y-107826782D02*
X88450827Y-107874401D01*
X88450827Y-107874401D02*
X88403208Y-107969639D01*
X88403208Y-107969639D02*
X88403208Y-108160115D01*
X88403208Y-108160115D02*
X88450827Y-108255353D01*
X88450827Y-108255353D02*
X88546065Y-108302972D01*
X88546065Y-108302972D02*
X88641303Y-108302972D01*
X88641303Y-108302972D02*
X88736541Y-107826782D01*
X89069875Y-109160115D02*
X88069875Y-109160115D01*
X89022256Y-109160115D02*
X89069875Y-109064877D01*
X89069875Y-109064877D02*
X89069875Y-108874401D01*
X89069875Y-108874401D02*
X89022256Y-108779163D01*
X89022256Y-108779163D02*
X88974636Y-108731544D01*
X88974636Y-108731544D02*
X88879398Y-108683925D01*
X88879398Y-108683925D02*
X88593684Y-108683925D01*
X88593684Y-108683925D02*
X88498446Y-108731544D01*
X88498446Y-108731544D02*
X88450827Y-108779163D01*
X88450827Y-108779163D02*
X88403208Y-108874401D01*
X88403208Y-108874401D02*
X88403208Y-109064877D01*
X88403208Y-109064877D02*
X88450827Y-109160115D01*
X89069875Y-110064877D02*
X88069875Y-110064877D01*
X89022256Y-110064877D02*
X89069875Y-109969639D01*
X89069875Y-109969639D02*
X89069875Y-109779163D01*
X89069875Y-109779163D02*
X89022256Y-109683925D01*
X89022256Y-109683925D02*
X88974636Y-109636306D01*
X88974636Y-109636306D02*
X88879398Y-109588687D01*
X88879398Y-109588687D02*
X88593684Y-109588687D01*
X88593684Y-109588687D02*
X88498446Y-109636306D01*
X88498446Y-109636306D02*
X88450827Y-109683925D01*
X88450827Y-109683925D02*
X88403208Y-109779163D01*
X88403208Y-109779163D02*
X88403208Y-109969639D01*
X88403208Y-109969639D02*
X88450827Y-110064877D01*
X88403208Y-110445830D02*
X89069875Y-110683925D01*
X88403208Y-110922020D02*
X89069875Y-110683925D01*
X89069875Y-110683925D02*
X89307970Y-110588687D01*
X89307970Y-110588687D02*
X89355589Y-110541068D01*
X89355589Y-110541068D02*
X89403208Y-110445830D01*
X88069875Y-111160116D02*
X89069875Y-111493449D01*
X89069875Y-111493449D02*
X88069875Y-111826782D01*
X89022256Y-112207735D02*
X89069875Y-112207735D01*
X89069875Y-112207735D02*
X89165113Y-112160116D01*
X89165113Y-112160116D02*
X89212732Y-112112497D01*
X88403208Y-113255354D02*
X88403208Y-113636306D01*
X89069875Y-113398211D02*
X88212732Y-113398211D01*
X88212732Y-113398211D02*
X88117494Y-113445830D01*
X88117494Y-113445830D02*
X88069875Y-113541068D01*
X88069875Y-113541068D02*
X88069875Y-113636306D01*
X89069875Y-113969640D02*
X88403208Y-113969640D01*
X88069875Y-113969640D02*
X88117494Y-113922021D01*
X88117494Y-113922021D02*
X88165113Y-113969640D01*
X88165113Y-113969640D02*
X88117494Y-114017259D01*
X88117494Y-114017259D02*
X88069875Y-113969640D01*
X88069875Y-113969640D02*
X88165113Y-113969640D01*
X89069875Y-114445830D02*
X88403208Y-114445830D01*
X88593684Y-114445830D02*
X88498446Y-114493449D01*
X88498446Y-114493449D02*
X88450827Y-114541068D01*
X88450827Y-114541068D02*
X88403208Y-114636306D01*
X88403208Y-114636306D02*
X88403208Y-114731544D01*
X89022256Y-115445830D02*
X89069875Y-115350592D01*
X89069875Y-115350592D02*
X89069875Y-115160116D01*
X89069875Y-115160116D02*
X89022256Y-115064878D01*
X89022256Y-115064878D02*
X88927017Y-115017259D01*
X88927017Y-115017259D02*
X88546065Y-115017259D01*
X88546065Y-115017259D02*
X88450827Y-115064878D01*
X88450827Y-115064878D02*
X88403208Y-115160116D01*
X88403208Y-115160116D02*
X88403208Y-115350592D01*
X88403208Y-115350592D02*
X88450827Y-115445830D01*
X88450827Y-115445830D02*
X88546065Y-115493449D01*
X88546065Y-115493449D02*
X88641303Y-115493449D01*
X88641303Y-115493449D02*
X88736541Y-115017259D01*
X90679819Y-86826779D02*
X89679819Y-86826779D01*
X89679819Y-86826779D02*
X89679819Y-87207731D01*
X89679819Y-87207731D02*
X89727438Y-87302969D01*
X89727438Y-87302969D02*
X89775057Y-87350588D01*
X89775057Y-87350588D02*
X89870295Y-87398207D01*
X89870295Y-87398207D02*
X90013152Y-87398207D01*
X90013152Y-87398207D02*
X90108390Y-87350588D01*
X90108390Y-87350588D02*
X90156009Y-87302969D01*
X90156009Y-87302969D02*
X90203628Y-87207731D01*
X90203628Y-87207731D02*
X90203628Y-86826779D01*
X90679819Y-87826779D02*
X90013152Y-87826779D01*
X89679819Y-87826779D02*
X89727438Y-87779160D01*
X89727438Y-87779160D02*
X89775057Y-87826779D01*
X89775057Y-87826779D02*
X89727438Y-87874398D01*
X89727438Y-87874398D02*
X89679819Y-87826779D01*
X89679819Y-87826779D02*
X89775057Y-87826779D01*
X90632200Y-88731540D02*
X90679819Y-88636302D01*
X90679819Y-88636302D02*
X90679819Y-88445826D01*
X90679819Y-88445826D02*
X90632200Y-88350588D01*
X90632200Y-88350588D02*
X90584580Y-88302969D01*
X90584580Y-88302969D02*
X90489342Y-88255350D01*
X90489342Y-88255350D02*
X90203628Y-88255350D01*
X90203628Y-88255350D02*
X90108390Y-88302969D01*
X90108390Y-88302969D02*
X90060771Y-88350588D01*
X90060771Y-88350588D02*
X90013152Y-88445826D01*
X90013152Y-88445826D02*
X90013152Y-88636302D01*
X90013152Y-88636302D02*
X90060771Y-88731540D01*
X90679819Y-89160112D02*
X89679819Y-89160112D01*
X90298866Y-89255350D02*
X90679819Y-89541064D01*
X90013152Y-89541064D02*
X90394104Y-89160112D01*
X90679819Y-90112493D02*
X90632200Y-90017255D01*
X90632200Y-90017255D02*
X90536961Y-89969636D01*
X90536961Y-89969636D02*
X89679819Y-89969636D01*
X90632200Y-90874398D02*
X90679819Y-90779160D01*
X90679819Y-90779160D02*
X90679819Y-90588684D01*
X90679819Y-90588684D02*
X90632200Y-90493446D01*
X90632200Y-90493446D02*
X90536961Y-90445827D01*
X90536961Y-90445827D02*
X90156009Y-90445827D01*
X90156009Y-90445827D02*
X90060771Y-90493446D01*
X90060771Y-90493446D02*
X90013152Y-90588684D01*
X90013152Y-90588684D02*
X90013152Y-90779160D01*
X90013152Y-90779160D02*
X90060771Y-90874398D01*
X90060771Y-90874398D02*
X90156009Y-90922017D01*
X90156009Y-90922017D02*
X90251247Y-90922017D01*
X90251247Y-90922017D02*
X90346485Y-90445827D01*
X90679819Y-91779160D02*
X89679819Y-91779160D01*
X90632200Y-91779160D02*
X90679819Y-91683922D01*
X90679819Y-91683922D02*
X90679819Y-91493446D01*
X90679819Y-91493446D02*
X90632200Y-91398208D01*
X90632200Y-91398208D02*
X90584580Y-91350589D01*
X90584580Y-91350589D02*
X90489342Y-91302970D01*
X90489342Y-91302970D02*
X90203628Y-91302970D01*
X90203628Y-91302970D02*
X90108390Y-91350589D01*
X90108390Y-91350589D02*
X90060771Y-91398208D01*
X90060771Y-91398208D02*
X90013152Y-91493446D01*
X90013152Y-91493446D02*
X90013152Y-91683922D01*
X90013152Y-91683922D02*
X90060771Y-91779160D01*
X90679819Y-92255351D02*
X89679819Y-92255351D01*
X89679819Y-92255351D02*
X89679819Y-92493446D01*
X89679819Y-92493446D02*
X89727438Y-92636303D01*
X89727438Y-92636303D02*
X89822676Y-92731541D01*
X89822676Y-92731541D02*
X89917914Y-92779160D01*
X89917914Y-92779160D02*
X90108390Y-92826779D01*
X90108390Y-92826779D02*
X90251247Y-92826779D01*
X90251247Y-92826779D02*
X90441723Y-92779160D01*
X90441723Y-92779160D02*
X90536961Y-92731541D01*
X90536961Y-92731541D02*
X90632200Y-92636303D01*
X90632200Y-92636303D02*
X90679819Y-92493446D01*
X90679819Y-92493446D02*
X90679819Y-92255351D01*
X90679819Y-93398208D02*
X90632200Y-93302970D01*
X90632200Y-93302970D02*
X90584580Y-93255351D01*
X90584580Y-93255351D02*
X90489342Y-93207732D01*
X90489342Y-93207732D02*
X90203628Y-93207732D01*
X90203628Y-93207732D02*
X90108390Y-93255351D01*
X90108390Y-93255351D02*
X90060771Y-93302970D01*
X90060771Y-93302970D02*
X90013152Y-93398208D01*
X90013152Y-93398208D02*
X90013152Y-93541065D01*
X90013152Y-93541065D02*
X90060771Y-93636303D01*
X90060771Y-93636303D02*
X90108390Y-93683922D01*
X90108390Y-93683922D02*
X90203628Y-93731541D01*
X90203628Y-93731541D02*
X90489342Y-93731541D01*
X90489342Y-93731541D02*
X90584580Y-93683922D01*
X90584580Y-93683922D02*
X90632200Y-93636303D01*
X90632200Y-93636303D02*
X90679819Y-93541065D01*
X90679819Y-93541065D02*
X90679819Y-93398208D01*
X90013152Y-94588684D02*
X90822676Y-94588684D01*
X90822676Y-94588684D02*
X90917914Y-94541065D01*
X90917914Y-94541065D02*
X90965533Y-94493446D01*
X90965533Y-94493446D02*
X91013152Y-94398208D01*
X91013152Y-94398208D02*
X91013152Y-94255351D01*
X91013152Y-94255351D02*
X90965533Y-94160113D01*
X90632200Y-94588684D02*
X90679819Y-94493446D01*
X90679819Y-94493446D02*
X90679819Y-94302970D01*
X90679819Y-94302970D02*
X90632200Y-94207732D01*
X90632200Y-94207732D02*
X90584580Y-94160113D01*
X90584580Y-94160113D02*
X90489342Y-94112494D01*
X90489342Y-94112494D02*
X90203628Y-94112494D01*
X90203628Y-94112494D02*
X90108390Y-94160113D01*
X90108390Y-94160113D02*
X90060771Y-94207732D01*
X90060771Y-94207732D02*
X90013152Y-94302970D01*
X90013152Y-94302970D02*
X90013152Y-94493446D01*
X90013152Y-94493446D02*
X90060771Y-94588684D01*
X90632200Y-95112494D02*
X90679819Y-95112494D01*
X90679819Y-95112494D02*
X90775057Y-95064875D01*
X90775057Y-95064875D02*
X90822676Y-95017256D01*
X90584580Y-96874398D02*
X90632200Y-96826779D01*
X90632200Y-96826779D02*
X90679819Y-96683922D01*
X90679819Y-96683922D02*
X90679819Y-96588684D01*
X90679819Y-96588684D02*
X90632200Y-96445827D01*
X90632200Y-96445827D02*
X90536961Y-96350589D01*
X90536961Y-96350589D02*
X90441723Y-96302970D01*
X90441723Y-96302970D02*
X90251247Y-96255351D01*
X90251247Y-96255351D02*
X90108390Y-96255351D01*
X90108390Y-96255351D02*
X89917914Y-96302970D01*
X89917914Y-96302970D02*
X89822676Y-96350589D01*
X89822676Y-96350589D02*
X89727438Y-96445827D01*
X89727438Y-96445827D02*
X89679819Y-96588684D01*
X89679819Y-96588684D02*
X89679819Y-96683922D01*
X89679819Y-96683922D02*
X89727438Y-96826779D01*
X89727438Y-96826779D02*
X89775057Y-96874398D01*
X90679819Y-97445827D02*
X90632200Y-97350589D01*
X90632200Y-97350589D02*
X90536961Y-97302970D01*
X90536961Y-97302970D02*
X89679819Y-97302970D01*
X90679819Y-97969637D02*
X90632200Y-97874399D01*
X90632200Y-97874399D02*
X90584580Y-97826780D01*
X90584580Y-97826780D02*
X90489342Y-97779161D01*
X90489342Y-97779161D02*
X90203628Y-97779161D01*
X90203628Y-97779161D02*
X90108390Y-97826780D01*
X90108390Y-97826780D02*
X90060771Y-97874399D01*
X90060771Y-97874399D02*
X90013152Y-97969637D01*
X90013152Y-97969637D02*
X90013152Y-98112494D01*
X90013152Y-98112494D02*
X90060771Y-98207732D01*
X90060771Y-98207732D02*
X90108390Y-98255351D01*
X90108390Y-98255351D02*
X90203628Y-98302970D01*
X90203628Y-98302970D02*
X90489342Y-98302970D01*
X90489342Y-98302970D02*
X90584580Y-98255351D01*
X90584580Y-98255351D02*
X90632200Y-98207732D01*
X90632200Y-98207732D02*
X90679819Y-98112494D01*
X90679819Y-98112494D02*
X90679819Y-97969637D01*
X90679819Y-99160113D02*
X90156009Y-99160113D01*
X90156009Y-99160113D02*
X90060771Y-99112494D01*
X90060771Y-99112494D02*
X90013152Y-99017256D01*
X90013152Y-99017256D02*
X90013152Y-98826780D01*
X90013152Y-98826780D02*
X90060771Y-98731542D01*
X90632200Y-99160113D02*
X90679819Y-99064875D01*
X90679819Y-99064875D02*
X90679819Y-98826780D01*
X90679819Y-98826780D02*
X90632200Y-98731542D01*
X90632200Y-98731542D02*
X90536961Y-98683923D01*
X90536961Y-98683923D02*
X90441723Y-98683923D01*
X90441723Y-98683923D02*
X90346485Y-98731542D01*
X90346485Y-98731542D02*
X90298866Y-98826780D01*
X90298866Y-98826780D02*
X90298866Y-99064875D01*
X90298866Y-99064875D02*
X90251247Y-99160113D01*
X90679819Y-99636304D02*
X89679819Y-99636304D01*
X90298866Y-99731542D02*
X90679819Y-100017256D01*
X90013152Y-100017256D02*
X90394104Y-99636304D01*
X90632200Y-100826780D02*
X90679819Y-100731542D01*
X90679819Y-100731542D02*
X90679819Y-100541066D01*
X90679819Y-100541066D02*
X90632200Y-100445828D01*
X90632200Y-100445828D02*
X90536961Y-100398209D01*
X90536961Y-100398209D02*
X90156009Y-100398209D01*
X90156009Y-100398209D02*
X90060771Y-100445828D01*
X90060771Y-100445828D02*
X90013152Y-100541066D01*
X90013152Y-100541066D02*
X90013152Y-100731542D01*
X90013152Y-100731542D02*
X90060771Y-100826780D01*
X90060771Y-100826780D02*
X90156009Y-100874399D01*
X90156009Y-100874399D02*
X90251247Y-100874399D01*
X90251247Y-100874399D02*
X90346485Y-100398209D01*
X90679819Y-101731542D02*
X89679819Y-101731542D01*
X90632200Y-101731542D02*
X90679819Y-101636304D01*
X90679819Y-101636304D02*
X90679819Y-101445828D01*
X90679819Y-101445828D02*
X90632200Y-101350590D01*
X90632200Y-101350590D02*
X90584580Y-101302971D01*
X90584580Y-101302971D02*
X90489342Y-101255352D01*
X90489342Y-101255352D02*
X90203628Y-101255352D01*
X90203628Y-101255352D02*
X90108390Y-101302971D01*
X90108390Y-101302971D02*
X90060771Y-101350590D01*
X90060771Y-101350590D02*
X90013152Y-101445828D01*
X90013152Y-101445828D02*
X90013152Y-101636304D01*
X90013152Y-101636304D02*
X90060771Y-101731542D01*
X90394104Y-102160114D02*
X90394104Y-102636304D01*
X90679819Y-102064876D02*
X89679819Y-102398209D01*
X89679819Y-102398209D02*
X90679819Y-102731542D01*
X90679819Y-103207733D02*
X90632200Y-103112495D01*
X90632200Y-103112495D02*
X90536961Y-103064876D01*
X90536961Y-103064876D02*
X89679819Y-103064876D01*
X90679819Y-103588686D02*
X90013152Y-103588686D01*
X89679819Y-103588686D02*
X89727438Y-103541067D01*
X89727438Y-103541067D02*
X89775057Y-103588686D01*
X89775057Y-103588686D02*
X89727438Y-103636305D01*
X89727438Y-103636305D02*
X89679819Y-103588686D01*
X89679819Y-103588686D02*
X89775057Y-103588686D01*
X90632200Y-104445828D02*
X90679819Y-104350590D01*
X90679819Y-104350590D02*
X90679819Y-104160114D01*
X90679819Y-104160114D02*
X90632200Y-104064876D01*
X90632200Y-104064876D02*
X90536961Y-104017257D01*
X90536961Y-104017257D02*
X90156009Y-104017257D01*
X90156009Y-104017257D02*
X90060771Y-104064876D01*
X90060771Y-104064876D02*
X90013152Y-104160114D01*
X90013152Y-104160114D02*
X90013152Y-104350590D01*
X90013152Y-104350590D02*
X90060771Y-104445828D01*
X90060771Y-104445828D02*
X90156009Y-104493447D01*
X90156009Y-104493447D02*
X90251247Y-104493447D01*
X90251247Y-104493447D02*
X90346485Y-104017257D01*
X90013152Y-104922019D02*
X90679819Y-104922019D01*
X90108390Y-104922019D02*
X90060771Y-104969638D01*
X90060771Y-104969638D02*
X90013152Y-105064876D01*
X90013152Y-105064876D02*
X90013152Y-105207733D01*
X90013152Y-105207733D02*
X90060771Y-105302971D01*
X90060771Y-105302971D02*
X90156009Y-105350590D01*
X90156009Y-105350590D02*
X90679819Y-105350590D01*
X90632200Y-105874400D02*
X90679819Y-105874400D01*
X90679819Y-105874400D02*
X90775057Y-105826781D01*
X90775057Y-105826781D02*
X90822676Y-105779162D01*
X90584580Y-107636304D02*
X90632200Y-107588685D01*
X90632200Y-107588685D02*
X90679819Y-107445828D01*
X90679819Y-107445828D02*
X90679819Y-107350590D01*
X90679819Y-107350590D02*
X90632200Y-107207733D01*
X90632200Y-107207733D02*
X90536961Y-107112495D01*
X90536961Y-107112495D02*
X90441723Y-107064876D01*
X90441723Y-107064876D02*
X90251247Y-107017257D01*
X90251247Y-107017257D02*
X90108390Y-107017257D01*
X90108390Y-107017257D02*
X89917914Y-107064876D01*
X89917914Y-107064876D02*
X89822676Y-107112495D01*
X89822676Y-107112495D02*
X89727438Y-107207733D01*
X89727438Y-107207733D02*
X89679819Y-107350590D01*
X89679819Y-107350590D02*
X89679819Y-107445828D01*
X89679819Y-107445828D02*
X89727438Y-107588685D01*
X89727438Y-107588685D02*
X89775057Y-107636304D01*
X90679819Y-108207733D02*
X90632200Y-108112495D01*
X90632200Y-108112495D02*
X90584580Y-108064876D01*
X90584580Y-108064876D02*
X90489342Y-108017257D01*
X90489342Y-108017257D02*
X90203628Y-108017257D01*
X90203628Y-108017257D02*
X90108390Y-108064876D01*
X90108390Y-108064876D02*
X90060771Y-108112495D01*
X90060771Y-108112495D02*
X90013152Y-108207733D01*
X90013152Y-108207733D02*
X90013152Y-108350590D01*
X90013152Y-108350590D02*
X90060771Y-108445828D01*
X90060771Y-108445828D02*
X90108390Y-108493447D01*
X90108390Y-108493447D02*
X90203628Y-108541066D01*
X90203628Y-108541066D02*
X90489342Y-108541066D01*
X90489342Y-108541066D02*
X90584580Y-108493447D01*
X90584580Y-108493447D02*
X90632200Y-108445828D01*
X90632200Y-108445828D02*
X90679819Y-108350590D01*
X90679819Y-108350590D02*
X90679819Y-108207733D01*
X90679819Y-108969638D02*
X89679819Y-108969638D01*
X90060771Y-108969638D02*
X90013152Y-109064876D01*
X90013152Y-109064876D02*
X90013152Y-109255352D01*
X90013152Y-109255352D02*
X90060771Y-109350590D01*
X90060771Y-109350590D02*
X90108390Y-109398209D01*
X90108390Y-109398209D02*
X90203628Y-109445828D01*
X90203628Y-109445828D02*
X90489342Y-109445828D01*
X90489342Y-109445828D02*
X90584580Y-109398209D01*
X90584580Y-109398209D02*
X90632200Y-109350590D01*
X90632200Y-109350590D02*
X90679819Y-109255352D01*
X90679819Y-109255352D02*
X90679819Y-109064876D01*
X90679819Y-109064876D02*
X90632200Y-108969638D01*
X90013152Y-110302971D02*
X90679819Y-110302971D01*
X90013152Y-109874400D02*
X90536961Y-109874400D01*
X90536961Y-109874400D02*
X90632200Y-109922019D01*
X90632200Y-109922019D02*
X90679819Y-110017257D01*
X90679819Y-110017257D02*
X90679819Y-110160114D01*
X90679819Y-110160114D02*
X90632200Y-110255352D01*
X90632200Y-110255352D02*
X90584580Y-110302971D01*
X90679819Y-110779162D02*
X90013152Y-110779162D01*
X90203628Y-110779162D02*
X90108390Y-110826781D01*
X90108390Y-110826781D02*
X90060771Y-110874400D01*
X90060771Y-110874400D02*
X90013152Y-110969638D01*
X90013152Y-110969638D02*
X90013152Y-111064876D01*
X90013152Y-111398210D02*
X90679819Y-111398210D01*
X90108390Y-111398210D02*
X90060771Y-111445829D01*
X90060771Y-111445829D02*
X90013152Y-111541067D01*
X90013152Y-111541067D02*
X90013152Y-111683924D01*
X90013152Y-111683924D02*
X90060771Y-111779162D01*
X90060771Y-111779162D02*
X90156009Y-111826781D01*
X90156009Y-111826781D02*
X90679819Y-111826781D01*
X89679819Y-112731543D02*
X89679819Y-112541067D01*
X89679819Y-112541067D02*
X89727438Y-112445829D01*
X89727438Y-112445829D02*
X89775057Y-112398210D01*
X89775057Y-112398210D02*
X89917914Y-112302972D01*
X89917914Y-112302972D02*
X90108390Y-112255353D01*
X90108390Y-112255353D02*
X90489342Y-112255353D01*
X90489342Y-112255353D02*
X90584580Y-112302972D01*
X90584580Y-112302972D02*
X90632200Y-112350591D01*
X90632200Y-112350591D02*
X90679819Y-112445829D01*
X90679819Y-112445829D02*
X90679819Y-112636305D01*
X90679819Y-112636305D02*
X90632200Y-112731543D01*
X90632200Y-112731543D02*
X90584580Y-112779162D01*
X90584580Y-112779162D02*
X90489342Y-112826781D01*
X90489342Y-112826781D02*
X90251247Y-112826781D01*
X90251247Y-112826781D02*
X90156009Y-112779162D01*
X90156009Y-112779162D02*
X90108390Y-112731543D01*
X90108390Y-112731543D02*
X90060771Y-112636305D01*
X90060771Y-112636305D02*
X90060771Y-112445829D01*
X90060771Y-112445829D02*
X90108390Y-112350591D01*
X90108390Y-112350591D02*
X90156009Y-112302972D01*
X90156009Y-112302972D02*
X90251247Y-112255353D01*
X90013152Y-113683924D02*
X90679819Y-113683924D01*
X89632200Y-113445829D02*
X90346485Y-113207734D01*
X90346485Y-113207734D02*
X90346485Y-113826781D01*
X91019819Y-132477255D02*
X91019819Y-132572493D01*
X91019819Y-132572493D02*
X91067438Y-132667731D01*
X91067438Y-132667731D02*
X91115057Y-132715350D01*
X91115057Y-132715350D02*
X91210295Y-132762969D01*
X91210295Y-132762969D02*
X91400771Y-132810588D01*
X91400771Y-132810588D02*
X91638866Y-132810588D01*
X91638866Y-132810588D02*
X91829342Y-132762969D01*
X91829342Y-132762969D02*
X91924580Y-132715350D01*
X91924580Y-132715350D02*
X91972200Y-132667731D01*
X91972200Y-132667731D02*
X92019819Y-132572493D01*
X92019819Y-132572493D02*
X92019819Y-132477255D01*
X92019819Y-132477255D02*
X91972200Y-132382017D01*
X91972200Y-132382017D02*
X91924580Y-132334398D01*
X91924580Y-132334398D02*
X91829342Y-132286779D01*
X91829342Y-132286779D02*
X91638866Y-132239160D01*
X91638866Y-132239160D02*
X91400771Y-132239160D01*
X91400771Y-132239160D02*
X91210295Y-132286779D01*
X91210295Y-132286779D02*
X91115057Y-132334398D01*
X91115057Y-132334398D02*
X91067438Y-132382017D01*
X91067438Y-132382017D02*
X91019819Y-132477255D01*
X91019819Y-133096303D02*
X92019819Y-133429636D01*
X92019819Y-133429636D02*
X91019819Y-133762969D01*
X81682200Y-131409887D02*
X81729819Y-131552744D01*
X81729819Y-131552744D02*
X81729819Y-131790839D01*
X81729819Y-131790839D02*
X81682200Y-131886077D01*
X81682200Y-131886077D02*
X81634580Y-131933696D01*
X81634580Y-131933696D02*
X81539342Y-131981315D01*
X81539342Y-131981315D02*
X81444104Y-131981315D01*
X81444104Y-131981315D02*
X81348866Y-131933696D01*
X81348866Y-131933696D02*
X81301247Y-131886077D01*
X81301247Y-131886077D02*
X81253628Y-131790839D01*
X81253628Y-131790839D02*
X81206009Y-131600363D01*
X81206009Y-131600363D02*
X81158390Y-131505125D01*
X81158390Y-131505125D02*
X81110771Y-131457506D01*
X81110771Y-131457506D02*
X81015533Y-131409887D01*
X81015533Y-131409887D02*
X80920295Y-131409887D01*
X80920295Y-131409887D02*
X80825057Y-131457506D01*
X80825057Y-131457506D02*
X80777438Y-131505125D01*
X80777438Y-131505125D02*
X80729819Y-131600363D01*
X80729819Y-131600363D02*
X80729819Y-131838458D01*
X80729819Y-131838458D02*
X80777438Y-131981315D01*
X81634580Y-132981315D02*
X81682200Y-132933696D01*
X81682200Y-132933696D02*
X81729819Y-132790839D01*
X81729819Y-132790839D02*
X81729819Y-132695601D01*
X81729819Y-132695601D02*
X81682200Y-132552744D01*
X81682200Y-132552744D02*
X81586961Y-132457506D01*
X81586961Y-132457506D02*
X81491723Y-132409887D01*
X81491723Y-132409887D02*
X81301247Y-132362268D01*
X81301247Y-132362268D02*
X81158390Y-132362268D01*
X81158390Y-132362268D02*
X80967914Y-132409887D01*
X80967914Y-132409887D02*
X80872676Y-132457506D01*
X80872676Y-132457506D02*
X80777438Y-132552744D01*
X80777438Y-132552744D02*
X80729819Y-132695601D01*
X80729819Y-132695601D02*
X80729819Y-132790839D01*
X80729819Y-132790839D02*
X80777438Y-132933696D01*
X80777438Y-132933696D02*
X80825057Y-132981315D01*
X81729819Y-133886077D02*
X81729819Y-133409887D01*
X81729819Y-133409887D02*
X80729819Y-133409887D01*
G36*
X79892736Y-112881228D02*
G01*
X79755990Y-112881228D01*
X79755990Y-113929121D01*
X79882203Y-113929121D01*
X79882203Y-114097099D01*
X78122097Y-114097099D01*
X78122097Y-113929121D01*
X78279542Y-113929121D01*
X78851071Y-113929121D01*
X79006409Y-113929121D01*
X79598454Y-113929121D01*
X79598454Y-112881228D01*
X79006409Y-112881228D01*
X79006409Y-113929121D01*
X78851071Y-113929121D01*
X78851071Y-112881228D01*
X78279542Y-112881228D01*
X78279542Y-113929121D01*
X78122097Y-113929121D01*
X78122097Y-112719569D01*
X79892736Y-112719569D01*
X79892736Y-112881228D01*
G37*
G36*
X77982055Y-115415919D02*
G01*
X78424806Y-115415919D01*
X78424806Y-114586470D01*
X78584357Y-114586470D01*
X78584357Y-115317275D01*
X78775448Y-115210143D01*
X78962223Y-115078784D01*
X79050470Y-115006041D01*
X79134072Y-114929449D01*
X79210688Y-114851278D01*
X79281485Y-114770415D01*
X79343115Y-114691030D01*
X79398214Y-114610063D01*
X79453007Y-114515029D01*
X79529564Y-114587267D01*
X79583341Y-114628419D01*
X79476329Y-114787316D01*
X79340306Y-114947416D01*
X79176938Y-115103523D01*
X78990214Y-115249485D01*
X78890025Y-115316634D01*
X78786252Y-115379064D01*
X78718996Y-115415919D01*
X79362698Y-115415919D01*
X79362698Y-115004309D01*
X79522250Y-115004309D01*
X79522250Y-115415919D01*
X79915817Y-115415919D01*
X79915817Y-115581882D01*
X79522250Y-115581882D01*
X79522250Y-115982959D01*
X79362698Y-115982959D01*
X79362698Y-115581882D01*
X78721103Y-115581882D01*
X78924975Y-115700821D01*
X79022473Y-115767815D01*
X79115870Y-115839124D01*
X79203672Y-115913540D01*
X79286402Y-115991471D01*
X79361529Y-116070339D01*
X79430872Y-116151881D01*
X79491538Y-116232360D01*
X79545999Y-116314720D01*
X79579128Y-116371397D01*
X79499093Y-116432468D01*
X79440368Y-116491106D01*
X79354356Y-116340837D01*
X79240579Y-116188681D01*
X79099691Y-116038957D01*
X78934730Y-115897483D01*
X78751523Y-115770959D01*
X78584357Y-115678419D01*
X78584357Y-116417650D01*
X78424806Y-116417650D01*
X78424806Y-115581882D01*
X77982055Y-115581882D01*
X77982055Y-115415919D01*
G37*
G36*
X79167583Y-116737599D02*
G01*
X79236627Y-116745897D01*
X79302072Y-116759454D01*
X79362614Y-116777739D01*
X79418642Y-116800577D01*
X79469267Y-116827334D01*
X79514369Y-116857608D01*
X79553653Y-116890893D01*
X79586580Y-116926310D01*
X79613435Y-116963772D01*
X79633591Y-117001843D01*
X79647617Y-117041022D01*
X79656889Y-117108522D01*
X79653960Y-117147127D01*
X79645180Y-117184935D01*
X79609929Y-117258377D01*
X79548051Y-117331477D01*
X79453340Y-117405611D01*
X79317396Y-117480919D01*
X79130330Y-117556528D01*
X79001280Y-117597801D01*
X78753859Y-117660764D01*
X78457518Y-117714280D01*
X78390917Y-117723831D01*
X78399675Y-117789649D01*
X78413724Y-117851719D01*
X78432800Y-117909980D01*
X78456634Y-117964338D01*
X78485137Y-118015005D01*
X78517910Y-118061568D01*
X78596183Y-118142928D01*
X78690223Y-118207430D01*
X78798613Y-118253564D01*
X78919411Y-118279467D01*
X79005493Y-118284551D01*
X79070253Y-118281679D01*
X79131387Y-118273295D01*
X79244118Y-118240921D01*
X79344864Y-118188765D01*
X79434092Y-118117327D01*
X79511246Y-118026764D01*
X79574546Y-117917799D01*
X79621049Y-117793056D01*
X79631701Y-117751125D01*
X79658995Y-117570507D01*
X79813784Y-117669242D01*
X79799091Y-117759455D01*
X79779226Y-117844748D01*
X79755056Y-117922861D01*
X79726206Y-117996104D01*
X79693747Y-118062587D01*
X79657053Y-118124259D01*
X79617242Y-118179723D01*
X79573578Y-118230416D01*
X79527026Y-118275473D01*
X79476926Y-118315751D01*
X79423880Y-118350853D01*
X79367518Y-118381093D01*
X79245143Y-118426655D01*
X79109152Y-118451873D01*
X79011813Y-118456742D01*
X78940761Y-118453835D01*
X78871506Y-118445206D01*
X78804245Y-118430976D01*
X78739345Y-118411292D01*
X78677223Y-118386356D01*
X78618009Y-118356273D01*
X78562287Y-118321392D01*
X78509990Y-118281696D01*
X78461779Y-118237711D01*
X78417471Y-118189261D01*
X78377703Y-118137012D01*
X78342284Y-118080647D01*
X78311748Y-118020895D01*
X78285984Y-117957361D01*
X78265395Y-117890741D01*
X78249994Y-117820650D01*
X78240070Y-117747669D01*
X78235753Y-117671502D01*
X78235579Y-117652481D01*
X78243479Y-117549533D01*
X78396779Y-117549533D01*
X78668268Y-117505903D01*
X78807839Y-117474841D01*
X78941642Y-117439150D01*
X78966109Y-117431930D01*
X79086797Y-117392671D01*
X79189164Y-117353219D01*
X79268343Y-117316656D01*
X79333118Y-117280227D01*
X79380048Y-117247342D01*
X79416073Y-117214795D01*
X79439546Y-117185911D01*
X79454937Y-117157467D01*
X79463632Y-117114842D01*
X79451730Y-117061446D01*
X79436239Y-117033794D01*
X79414194Y-117006856D01*
X79385330Y-116981257D01*
X79349575Y-116957831D01*
X79307241Y-116937492D01*
X79257870Y-116920702D01*
X79202168Y-116908314D01*
X79139354Y-116900740D01*
X79079957Y-116898595D01*
X78969819Y-116910136D01*
X78853714Y-116945899D01*
X78795428Y-116973089D01*
X78738624Y-117006104D01*
X78684126Y-117044630D01*
X78632351Y-117088611D01*
X78585053Y-117136631D01*
X78541523Y-117189539D01*
X78503707Y-117244969D01*
X78470442Y-117304657D01*
X78443303Y-117365756D01*
X78421281Y-117430526D01*
X78396779Y-117549533D01*
X78243479Y-117549533D01*
X78246972Y-117504017D01*
X78280790Y-117360536D01*
X78336315Y-117224477D01*
X78412338Y-117098879D01*
X78506880Y-116987199D01*
X78560216Y-116937691D01*
X78617073Y-116892912D01*
X78676766Y-116853361D01*
X78739322Y-116819019D01*
X78803439Y-116790544D01*
X78869743Y-116767638D01*
X78936455Y-116750861D01*
X79004703Y-116739900D01*
X79094153Y-116734739D01*
X79167583Y-116737599D01*
G37*
G36*
X78324697Y-120605011D02*
G01*
X78225962Y-120502154D01*
X78238510Y-120355150D01*
X78238510Y-119149720D01*
X78228756Y-118983472D01*
X78219642Y-118910393D01*
X78410792Y-118910393D01*
X78401367Y-119030616D01*
X78398154Y-119147733D01*
X78398153Y-119149720D01*
X78398153Y-120346724D01*
X78507266Y-120275728D01*
X78579464Y-120218144D01*
X78653556Y-120151343D01*
X78723614Y-120080031D01*
X78788743Y-120004178D01*
X78869664Y-119886845D01*
X78981222Y-120025423D01*
X78877086Y-120156535D01*
X78740937Y-120293437D01*
X78578254Y-120428091D01*
X78413000Y-120540739D01*
X78400259Y-120548316D01*
X78355596Y-120581486D01*
X78324697Y-120605011D01*
G37*
G36*
X78602309Y-119767136D02*
G01*
X78602309Y-119578183D01*
X78753893Y-119586518D01*
X78903940Y-119582869D01*
X79046597Y-119569051D01*
X79130138Y-119553661D01*
X79210301Y-119531810D01*
X79275253Y-119507567D01*
X79337496Y-119477393D01*
X79391601Y-119444319D01*
X79443254Y-119405395D01*
X79490030Y-119362519D01*
X79534406Y-119313549D01*
X79604316Y-119214842D01*
X79662886Y-119115121D01*
X79699021Y-119025889D01*
X79825325Y-119181228D01*
X79780073Y-119265359D01*
X79732609Y-119341098D01*
X79684864Y-119406363D01*
X79634954Y-119464671D01*
X79583871Y-119515450D01*
X79530594Y-119560278D01*
X79416577Y-119633890D01*
X79288300Y-119689505D01*
X79138579Y-119729488D01*
X78955243Y-119754960D01*
X78713068Y-119766349D01*
X78602309Y-119767136D01*
G37*
G36*
X78156444Y-121310170D02*
G01*
X78311874Y-121249262D01*
X78362064Y-121549848D01*
X78407025Y-121767808D01*
X78457952Y-121986172D01*
X78507874Y-122174637D01*
X78556625Y-122330781D01*
X78561826Y-122345424D01*
X78400076Y-122412652D01*
X78334262Y-122191965D01*
X78247437Y-121823596D01*
X78202912Y-121599841D01*
X78169059Y-121401013D01*
X78156444Y-121310170D01*
G37*
G36*
X78710845Y-121215648D02*
G01*
X78868381Y-121152634D01*
X78928393Y-121482708D01*
X78975886Y-121696394D01*
X79028658Y-121904963D01*
X79075991Y-122067627D01*
X79122698Y-122202116D01*
X79124562Y-122206847D01*
X78962903Y-122274075D01*
X78895963Y-122061595D01*
X78810500Y-121717881D01*
X78722764Y-121284330D01*
X78710845Y-121215648D01*
G37*
G36*
X79321940Y-121100152D02*
G01*
X79481584Y-121035031D01*
X79554663Y-121417343D01*
X79608853Y-121654602D01*
X79669206Y-121888499D01*
X79720928Y-122064173D01*
X79773001Y-122215102D01*
X79798672Y-122278196D01*
X79637014Y-122349637D01*
X79563076Y-122136430D01*
X79466643Y-121789221D01*
X79366890Y-121349339D01*
X79321940Y-121100152D01*
G37*
G36*
X78837607Y-123021641D02*
G01*
X79043504Y-123021641D01*
X79033602Y-123235724D01*
X79032971Y-123313542D01*
X79032971Y-124466399D01*
X79040836Y-124649689D01*
X79043504Y-124691163D01*
X78837607Y-124691163D01*
X78844453Y-124599778D01*
X78848140Y-124464292D01*
X78848140Y-123313542D01*
X78840513Y-123068229D01*
X78837607Y-123021641D01*
G37*
G36*
X78097459Y-126488729D02*
G01*
X78145819Y-126377446D01*
X78293876Y-126470683D01*
X78435888Y-126547531D01*
X78385422Y-126660921D01*
X78170717Y-126536727D01*
X78097459Y-126488729D01*
G37*
G36*
X78013379Y-126719722D02*
G01*
X78061739Y-126608439D01*
X78194898Y-126696681D01*
X78349701Y-126782737D01*
X78299234Y-126894020D01*
X78161013Y-126816048D01*
X78013379Y-126719722D01*
G37*
G36*
X78551385Y-126660921D02*
G01*
X78492583Y-126543318D01*
X78500220Y-126484001D01*
X78503116Y-126408954D01*
X78503116Y-125909141D01*
X78286595Y-125919674D01*
X78116327Y-125932222D01*
X78116327Y-125734843D01*
X78248291Y-125748389D01*
X78290808Y-125749590D01*
X78503116Y-125741163D01*
X78503116Y-125371593D01*
X78492583Y-125132174D01*
X78668988Y-125132174D01*
X78660984Y-125282113D01*
X78660561Y-125373608D01*
X78660561Y-125726417D01*
X78775863Y-125708433D01*
X78882984Y-125685842D01*
X78980351Y-125659435D01*
X79070732Y-125628948D01*
X79153861Y-125594854D01*
X79230949Y-125557072D01*
X79369758Y-125470282D01*
X79492521Y-125367107D01*
X79547346Y-125310685D01*
X79629767Y-125210951D01*
X79702959Y-125094347D01*
X79826974Y-125247670D01*
X79764213Y-125333377D01*
X79697450Y-125413424D01*
X79633806Y-125480117D01*
X79565822Y-125542239D01*
X79497638Y-125596322D01*
X79424716Y-125646338D01*
X79349041Y-125690945D01*
X79268082Y-125731685D01*
X79089591Y-125801200D01*
X78881906Y-125855888D01*
X78660561Y-125892380D01*
X78660561Y-126480303D01*
X78815538Y-126477202D01*
X79007026Y-126467215D01*
X79189308Y-126451440D01*
X79360485Y-126428469D01*
X79459857Y-126408549D01*
X79539445Y-126384786D01*
X79566305Y-126373233D01*
X79591425Y-126358540D01*
X79610015Y-126340361D01*
X79629423Y-126296809D01*
X79633625Y-126251417D01*
X79622519Y-126044499D01*
X79610544Y-125938542D01*
X79784842Y-125959516D01*
X79795375Y-126129383D01*
X79799588Y-126297670D01*
X79796596Y-126349704D01*
X79787378Y-126394822D01*
X79774384Y-126428147D01*
X79756412Y-126457256D01*
X79707670Y-126502270D01*
X79671452Y-126522343D01*
X79575009Y-126555443D01*
X79404821Y-126589499D01*
X79139505Y-126620854D01*
X78789060Y-126644468D01*
X78656866Y-126650374D01*
X78654333Y-126650479D01*
X78551385Y-126660921D01*
G37*
X82660839Y-129672200D02*
X82517982Y-129719819D01*
X82517982Y-129719819D02*
X82279887Y-129719819D01*
X82279887Y-129719819D02*
X82184649Y-129672200D01*
X82184649Y-129672200D02*
X82137030Y-129624580D01*
X82137030Y-129624580D02*
X82089411Y-129529342D01*
X82089411Y-129529342D02*
X82089411Y-129434104D01*
X82089411Y-129434104D02*
X82137030Y-129338866D01*
X82137030Y-129338866D02*
X82184649Y-129291247D01*
X82184649Y-129291247D02*
X82279887Y-129243628D01*
X82279887Y-129243628D02*
X82470363Y-129196009D01*
X82470363Y-129196009D02*
X82565601Y-129148390D01*
X82565601Y-129148390D02*
X82613220Y-129100771D01*
X82613220Y-129100771D02*
X82660839Y-129005533D01*
X82660839Y-129005533D02*
X82660839Y-128910295D01*
X82660839Y-128910295D02*
X82613220Y-128815057D01*
X82613220Y-128815057D02*
X82565601Y-128767438D01*
X82565601Y-128767438D02*
X82470363Y-128719819D01*
X82470363Y-128719819D02*
X82232268Y-128719819D01*
X82232268Y-128719819D02*
X82089411Y-128767438D01*
X81660839Y-129719819D02*
X81660839Y-128719819D01*
X81660839Y-128719819D02*
X81279887Y-128719819D01*
X81279887Y-128719819D02*
X81184649Y-128767438D01*
X81184649Y-128767438D02*
X81137030Y-128815057D01*
X81137030Y-128815057D02*
X81089411Y-128910295D01*
X81089411Y-128910295D02*
X81089411Y-129053152D01*
X81089411Y-129053152D02*
X81137030Y-129148390D01*
X81137030Y-129148390D02*
X81184649Y-129196009D01*
X81184649Y-129196009D02*
X81279887Y-129243628D01*
X81279887Y-129243628D02*
X81660839Y-129243628D01*
X80660839Y-129719819D02*
X80660839Y-128719819D01*
X79994173Y-128719819D02*
X79898935Y-128719819D01*
X79898935Y-128719819D02*
X79803697Y-128767438D01*
X79803697Y-128767438D02*
X79756078Y-128815057D01*
X79756078Y-128815057D02*
X79708459Y-128910295D01*
X79708459Y-128910295D02*
X79660840Y-129100771D01*
X79660840Y-129100771D02*
X79660840Y-129338866D01*
X79660840Y-129338866D02*
X79708459Y-129529342D01*
X79708459Y-129529342D02*
X79756078Y-129624580D01*
X79756078Y-129624580D02*
X79803697Y-129672200D01*
X79803697Y-129672200D02*
X79898935Y-129719819D01*
X79898935Y-129719819D02*
X79994173Y-129719819D01*
X79994173Y-129719819D02*
X80089411Y-129672200D01*
X80089411Y-129672200D02*
X80137030Y-129624580D01*
X80137030Y-129624580D02*
X80184649Y-129529342D01*
X80184649Y-129529342D02*
X80232268Y-129338866D01*
X80232268Y-129338866D02*
X80232268Y-129100771D01*
X80232268Y-129100771D02*
X80184649Y-128910295D01*
X80184649Y-128910295D02*
X80137030Y-128815057D01*
X80137030Y-128815057D02*
X80089411Y-128767438D01*
X80089411Y-128767438D02*
X79994173Y-128719819D01*
D12*
%TO.C,G\u002A\u002A\u002A*%
G36*
X80869692Y-94507733D02*
G01*
X82038430Y-95189080D01*
X83617477Y-96109626D01*
X82038430Y-97662056D01*
X80459384Y-99214486D01*
X80449070Y-97987304D01*
X80447049Y-97685883D01*
X80445428Y-97258772D01*
X80444820Y-96801421D01*
X80445013Y-96581148D01*
X80869692Y-96581148D01*
X80869692Y-96585640D01*
X80870496Y-96910182D01*
X80872744Y-97208573D01*
X80876256Y-97472147D01*
X80880851Y-97692235D01*
X80886349Y-97860172D01*
X80892570Y-97967290D01*
X80899332Y-98004922D01*
X80907643Y-97999845D01*
X80963204Y-97951340D01*
X81063856Y-97856943D01*
X81202658Y-97723366D01*
X81372670Y-97557321D01*
X81566952Y-97365519D01*
X81778563Y-97154673D01*
X81872076Y-97060959D01*
X82075202Y-96856463D01*
X82256410Y-96672760D01*
X82409005Y-96516717D01*
X82526290Y-96395202D01*
X82601572Y-96315083D01*
X82628153Y-96283227D01*
X82597526Y-96258449D01*
X82509041Y-96197780D01*
X82371313Y-96106944D01*
X82192967Y-95991569D01*
X81982628Y-95857279D01*
X81748922Y-95709701D01*
X80869692Y-95157374D01*
X80869692Y-96581148D01*
X80445013Y-96581148D01*
X80445224Y-96340470D01*
X80446641Y-95902558D01*
X80449070Y-95514327D01*
X80459384Y-94268533D01*
X80869692Y-94507733D01*
G37*
G36*
X87200153Y-89129912D02*
G01*
X87200132Y-89231181D01*
X87199572Y-89657324D01*
X87198299Y-90057994D01*
X87196380Y-90426607D01*
X87193882Y-90756577D01*
X87190873Y-91041319D01*
X87187419Y-91274249D01*
X87183587Y-91448780D01*
X87179444Y-91558328D01*
X87175058Y-91596307D01*
X87144984Y-91581407D01*
X87053297Y-91530741D01*
X86906932Y-91447928D01*
X86712677Y-91336863D01*
X86477319Y-91201443D01*
X86207647Y-91045562D01*
X85910447Y-90873116D01*
X85592508Y-90688002D01*
X84035053Y-89779698D01*
X84210764Y-89603439D01*
X85011846Y-89603439D01*
X85013232Y-89605275D01*
X85057010Y-89637112D01*
X85154395Y-89702008D01*
X85294744Y-89793242D01*
X85467410Y-89904097D01*
X85661752Y-90027854D01*
X85867123Y-90157794D01*
X86072880Y-90287198D01*
X86268377Y-90409347D01*
X86442972Y-90517523D01*
X86586019Y-90605007D01*
X86686874Y-90665081D01*
X86734892Y-90691025D01*
X86741754Y-90670773D01*
X86749791Y-90580291D01*
X86756737Y-90423434D01*
X86762427Y-90206841D01*
X86766695Y-89937152D01*
X86769376Y-89621006D01*
X86770307Y-89265043D01*
X86770307Y-87826035D01*
X85891076Y-88704615D01*
X85772370Y-88823418D01*
X85567433Y-89029447D01*
X85384987Y-89214044D01*
X85231618Y-89370476D01*
X85113913Y-89492008D01*
X85038460Y-89571907D01*
X85011846Y-89603439D01*
X84210764Y-89603439D01*
X84963065Y-88848793D01*
X85013334Y-88798408D01*
X85278325Y-88533964D01*
X85558054Y-88256488D01*
X85838585Y-87979702D01*
X86105980Y-87717328D01*
X86346303Y-87483088D01*
X86545615Y-87290703D01*
X86770307Y-87075401D01*
X87200153Y-86663518D01*
X87200153Y-89129912D01*
G37*
G36*
X80485707Y-88366574D02*
G01*
X80559139Y-88408592D01*
X80692890Y-88485856D01*
X80882365Y-88595692D01*
X80902392Y-88607323D01*
X81122969Y-88735425D01*
X81410106Y-88902383D01*
X81739181Y-89093891D01*
X82105600Y-89307276D01*
X82504766Y-89539864D01*
X82932085Y-89788982D01*
X83382961Y-90051956D01*
X83852800Y-90326112D01*
X87200153Y-92279764D01*
X87200153Y-94966497D01*
X87200025Y-95254593D01*
X87199329Y-95690710D01*
X87198071Y-96099149D01*
X87196305Y-96473600D01*
X87194082Y-96807754D01*
X87191456Y-97095300D01*
X87188477Y-97329930D01*
X87185198Y-97505335D01*
X87181671Y-97615205D01*
X87177949Y-97653230D01*
X87164813Y-97646632D01*
X87091473Y-97605626D01*
X86957876Y-97529390D01*
X86768593Y-97420570D01*
X86528191Y-97281814D01*
X86241239Y-97115769D01*
X85912304Y-96925081D01*
X85545956Y-96712398D01*
X85146763Y-96480367D01*
X84719293Y-96231635D01*
X84268114Y-95968849D01*
X83797795Y-95694656D01*
X80439846Y-93736083D01*
X80439846Y-91256183D01*
X80869692Y-91256183D01*
X80869692Y-93267187D01*
X83725198Y-94932670D01*
X84022122Y-95105799D01*
X84442286Y-95350602D01*
X84839506Y-95581821D01*
X85208832Y-95796586D01*
X85545316Y-95992027D01*
X85844006Y-96165274D01*
X86099956Y-96313457D01*
X86308214Y-96433707D01*
X86463832Y-96523153D01*
X86561861Y-96578925D01*
X86597352Y-96598153D01*
X86598417Y-96594059D01*
X86601575Y-96532348D01*
X86604508Y-96402160D01*
X86607155Y-96210797D01*
X86609458Y-95965559D01*
X86611354Y-95673748D01*
X86612783Y-95342665D01*
X86613685Y-94979612D01*
X86613999Y-94591890D01*
X86613999Y-92585628D01*
X83774545Y-90928429D01*
X83493915Y-90764673D01*
X83073593Y-90519518D01*
X82675752Y-90287609D01*
X82305393Y-90071857D01*
X81967515Y-89875168D01*
X81667120Y-89700450D01*
X81409207Y-89550611D01*
X81198777Y-89428559D01*
X81040831Y-89337202D01*
X80940369Y-89279448D01*
X80902392Y-89258204D01*
X80900202Y-89261826D01*
X80894017Y-89322130D01*
X80888274Y-89450892D01*
X80883089Y-89640880D01*
X80878581Y-89884865D01*
X80874870Y-90175618D01*
X80872072Y-90505909D01*
X80870306Y-90868507D01*
X80869692Y-91256183D01*
X80439846Y-91256183D01*
X80439846Y-91041246D01*
X80440045Y-90744111D01*
X80441088Y-90308410D01*
X80442954Y-89900789D01*
X80445567Y-89527506D01*
X80448850Y-89194821D01*
X80452728Y-88908992D01*
X80457122Y-88676280D01*
X80461958Y-88502944D01*
X80467158Y-88395242D01*
X80472646Y-88359435D01*
X80485707Y-88366574D01*
G37*
G36*
X85758652Y-115651240D02*
G01*
X85928282Y-115654503D01*
X86049063Y-115662263D01*
X86134506Y-115675817D01*
X86198122Y-115696460D01*
X86253425Y-115725487D01*
X86389175Y-115833123D01*
X86514743Y-116000184D01*
X86615051Y-116222083D01*
X86691917Y-116504123D01*
X86747158Y-116851609D01*
X86782592Y-117269845D01*
X86791625Y-117478146D01*
X86796592Y-117794671D01*
X86793193Y-118125019D01*
X86782173Y-118453878D01*
X86764275Y-118765934D01*
X86740244Y-119045874D01*
X86710824Y-119278385D01*
X86676758Y-119448152D01*
X86658936Y-119510592D01*
X86535089Y-119822589D01*
X86364699Y-120077370D01*
X86139692Y-120284787D01*
X85851999Y-120454689D01*
X85804759Y-120476861D01*
X85679479Y-120530385D01*
X85541820Y-120580543D01*
X85382544Y-120629691D01*
X85192413Y-120680185D01*
X84962188Y-120734382D01*
X84682634Y-120794639D01*
X84344512Y-120863310D01*
X83938584Y-120942753D01*
X83855961Y-120958658D01*
X83387568Y-121045661D01*
X82986055Y-121113618D01*
X82643861Y-121162981D01*
X82353428Y-121194204D01*
X82107195Y-121207739D01*
X81897602Y-121204040D01*
X81717089Y-121183559D01*
X81558097Y-121146750D01*
X81413065Y-121094065D01*
X81251577Y-121007868D01*
X81102831Y-120884409D01*
X80981053Y-120724625D01*
X80884601Y-120522764D01*
X80811835Y-120273069D01*
X80761113Y-119969788D01*
X80730794Y-119607164D01*
X80719236Y-119179445D01*
X80724799Y-118680874D01*
X80725977Y-118636784D01*
X81613951Y-118636784D01*
X81618500Y-119039278D01*
X81618869Y-119060817D01*
X81624463Y-119345027D01*
X81630853Y-119563244D01*
X81639065Y-119726872D01*
X81650124Y-119847313D01*
X81665056Y-119935969D01*
X81684888Y-120004243D01*
X81710644Y-120063537D01*
X81767712Y-120162206D01*
X81847642Y-120244325D01*
X81954587Y-120290913D01*
X82105052Y-120308520D01*
X82315538Y-120303701D01*
X82331118Y-120302673D01*
X82468393Y-120287724D01*
X82666572Y-120259726D01*
X82912213Y-120221113D01*
X83191872Y-120174322D01*
X83492106Y-120121787D01*
X83799472Y-120065943D01*
X84100527Y-120009227D01*
X84381827Y-119954072D01*
X84629930Y-119902915D01*
X84831391Y-119858191D01*
X84972769Y-119822335D01*
X85111369Y-119779100D01*
X85378431Y-119665746D01*
X85578891Y-119526906D01*
X85719844Y-119354987D01*
X85808385Y-119142394D01*
X85851608Y-118881530D01*
X85866193Y-118663931D01*
X85882582Y-118230444D01*
X85885314Y-117784401D01*
X85873778Y-117367475D01*
X85869765Y-117292359D01*
X85849360Y-117056973D01*
X85816396Y-116880480D01*
X85765631Y-116747871D01*
X85691822Y-116644135D01*
X85589726Y-116554263D01*
X85586845Y-116552138D01*
X85526363Y-116517362D01*
X85450167Y-116493932D01*
X85350670Y-116482487D01*
X85220286Y-116483661D01*
X85051429Y-116498093D01*
X84836512Y-116526418D01*
X84567948Y-116569274D01*
X84238152Y-116627296D01*
X83839538Y-116701122D01*
X83452649Y-116775071D01*
X83037302Y-116860593D01*
X82688793Y-116944755D01*
X82401388Y-117033590D01*
X82169355Y-117133134D01*
X81986960Y-117249424D01*
X81848471Y-117388494D01*
X81748154Y-117556379D01*
X81680277Y-117759115D01*
X81639106Y-118002738D01*
X81618908Y-118293282D01*
X81613951Y-118636784D01*
X80725977Y-118636784D01*
X80726565Y-118614773D01*
X80742104Y-118225791D01*
X80766803Y-117902439D01*
X80803710Y-117634033D01*
X80855875Y-117409892D01*
X80926347Y-117219331D01*
X81018174Y-117051669D01*
X81134406Y-116896221D01*
X81278092Y-116742307D01*
X81280947Y-116739487D01*
X81409296Y-116621160D01*
X81543487Y-116517018D01*
X81691467Y-116424250D01*
X81861183Y-116340047D01*
X82060580Y-116261599D01*
X82297605Y-116186096D01*
X82580206Y-116110728D01*
X82916328Y-116032686D01*
X83313918Y-115949160D01*
X83780922Y-115857340D01*
X83913588Y-115831904D01*
X84207671Y-115776364D01*
X84445024Y-115733720D01*
X84639986Y-115702235D01*
X84806895Y-115680172D01*
X84960089Y-115665792D01*
X85113907Y-115657360D01*
X85282688Y-115653139D01*
X85350670Y-115652538D01*
X85480769Y-115651389D01*
X85526661Y-115651178D01*
X85758652Y-115651240D01*
G37*
G36*
X85773681Y-110139904D02*
G01*
X85838678Y-110146059D01*
X86063608Y-110178745D01*
X86231449Y-110230435D01*
X86358905Y-110310838D01*
X86462681Y-110429663D01*
X86559484Y-110596620D01*
X86608064Y-110701605D01*
X86664794Y-110865407D01*
X86708454Y-111057764D01*
X86742537Y-111295194D01*
X86770539Y-111594217D01*
X86771783Y-111610677D01*
X86783510Y-111845155D01*
X86788806Y-112124625D01*
X86788145Y-112431505D01*
X86782001Y-112748211D01*
X86770850Y-113057159D01*
X86755163Y-113340766D01*
X86735417Y-113581448D01*
X86712085Y-113761622D01*
X86639366Y-114070914D01*
X86518036Y-114364721D01*
X86348289Y-114608631D01*
X86123347Y-114810095D01*
X85836433Y-114976568D01*
X85480769Y-115115500D01*
X85439947Y-115127681D01*
X85298993Y-115163706D01*
X85099229Y-115209943D01*
X84853152Y-115263880D01*
X84573260Y-115323004D01*
X84272051Y-115384803D01*
X83962022Y-115446765D01*
X83655672Y-115506377D01*
X83365498Y-115561127D01*
X83103997Y-115608503D01*
X82883668Y-115645991D01*
X82717008Y-115671081D01*
X82652957Y-115678562D01*
X82439416Y-115694504D01*
X82203075Y-115702351D01*
X81984371Y-115700481D01*
X81862523Y-115695175D01*
X81701873Y-115682396D01*
X81580076Y-115660461D01*
X81472336Y-115624173D01*
X81353856Y-115568336D01*
X81321031Y-115551091D01*
X81167173Y-115451728D01*
X81041378Y-115331144D01*
X80940907Y-115181280D01*
X80863020Y-114994073D01*
X80804979Y-114761462D01*
X80764042Y-114475388D01*
X80737472Y-114127789D01*
X80722529Y-113710604D01*
X80722362Y-113702992D01*
X80719814Y-113381691D01*
X81631692Y-113381691D01*
X81631712Y-113480995D01*
X81632299Y-113770211D01*
X81634258Y-113994967D01*
X81638337Y-114165836D01*
X81645286Y-114293388D01*
X81655855Y-114388193D01*
X81670792Y-114460825D01*
X81690849Y-114521853D01*
X81716773Y-114581849D01*
X81763467Y-114672039D01*
X81819844Y-114740916D01*
X81895883Y-114783258D01*
X82006110Y-114803746D01*
X82165049Y-114807060D01*
X82387226Y-114797880D01*
X82517477Y-114785795D01*
X82716648Y-114759664D01*
X82964769Y-114722285D01*
X83247677Y-114676164D01*
X83551207Y-114623809D01*
X83861194Y-114567727D01*
X84163475Y-114510424D01*
X84443885Y-114454407D01*
X84688260Y-114402183D01*
X84882434Y-114356259D01*
X85032809Y-114311431D01*
X85240406Y-114230553D01*
X85429380Y-114136891D01*
X85580493Y-114040295D01*
X85674508Y-113950617D01*
X85710118Y-113888424D01*
X85764930Y-113756639D01*
X85809239Y-113610447D01*
X85825394Y-113528338D01*
X85849699Y-113331527D01*
X85868204Y-113081925D01*
X85880322Y-112795614D01*
X85885467Y-112488673D01*
X85883050Y-112177185D01*
X85872487Y-111877230D01*
X85859828Y-111697104D01*
X85822044Y-111438564D01*
X85759495Y-111245691D01*
X85666529Y-111111580D01*
X85537494Y-111029327D01*
X85366740Y-110992028D01*
X85148615Y-110992775D01*
X85067327Y-111000432D01*
X84878376Y-111025334D01*
X84640917Y-111062708D01*
X84367512Y-111110036D01*
X84070724Y-111164800D01*
X83763114Y-111224483D01*
X83457245Y-111286567D01*
X83165679Y-111348534D01*
X82900978Y-111407867D01*
X82675706Y-111462049D01*
X82502423Y-111508561D01*
X82393692Y-111544887D01*
X82201498Y-111629778D01*
X82042503Y-111713896D01*
X81916049Y-111804871D01*
X81818442Y-111911607D01*
X81745987Y-112043009D01*
X81694989Y-112207982D01*
X81661755Y-112415432D01*
X81642590Y-112674264D01*
X81633801Y-112993382D01*
X81631692Y-113381691D01*
X80719814Y-113381691D01*
X80718436Y-113208016D01*
X80731282Y-112781949D01*
X80763129Y-112417014D01*
X80816208Y-112105435D01*
X80892749Y-111839436D01*
X80994980Y-111611243D01*
X81125133Y-111413078D01*
X81285437Y-111237167D01*
X81478121Y-111075732D01*
X81491618Y-111065700D01*
X81623421Y-110975024D01*
X81762797Y-110894591D01*
X81918463Y-110821695D01*
X82099138Y-110753626D01*
X82313538Y-110687677D01*
X82570382Y-110621140D01*
X82878387Y-110551307D01*
X83246272Y-110475470D01*
X83682754Y-110390921D01*
X84086462Y-110315728D01*
X84455782Y-110250563D01*
X84766843Y-110200608D01*
X85028942Y-110164746D01*
X85251377Y-110141861D01*
X85366740Y-110135240D01*
X85443447Y-110130837D01*
X85614449Y-110130556D01*
X85773681Y-110139904D01*
G37*
G36*
X85766018Y-121119986D02*
G01*
X85835381Y-121126557D01*
X86039943Y-121154235D01*
X86188686Y-121192709D01*
X86299014Y-121247713D01*
X86388332Y-121324979D01*
X86504469Y-121474971D01*
X86602894Y-121670084D01*
X86677475Y-121910906D01*
X86731371Y-122207808D01*
X86767739Y-122571161D01*
X86779778Y-122747886D01*
X86795039Y-123031767D01*
X86801658Y-123287991D01*
X86799672Y-123542893D01*
X86789120Y-123822812D01*
X86770040Y-124154085D01*
X86741126Y-124493100D01*
X86690126Y-124834591D01*
X86618076Y-125116961D01*
X86521731Y-125349762D01*
X86397846Y-125542545D01*
X86243176Y-125704861D01*
X86196250Y-125744660D01*
X86084156Y-125827928D01*
X85958189Y-125903177D01*
X85810439Y-125972953D01*
X85632992Y-126039803D01*
X85417936Y-126106273D01*
X85157359Y-126174911D01*
X84843347Y-126248262D01*
X84467990Y-126328873D01*
X84023373Y-126419291D01*
X83921254Y-126439656D01*
X83597958Y-126503651D01*
X83335787Y-126554114D01*
X83122643Y-126592675D01*
X82946430Y-126620960D01*
X82795048Y-126640598D01*
X82656401Y-126653217D01*
X82518390Y-126660446D01*
X82368918Y-126663912D01*
X82195886Y-126665244D01*
X82016599Y-126665808D01*
X81833511Y-126664540D01*
X81700795Y-126658955D01*
X81602555Y-126646868D01*
X81522896Y-126626092D01*
X81445920Y-126594443D01*
X81355732Y-126549736D01*
X81168140Y-126429384D01*
X81009942Y-126260739D01*
X80891265Y-126041123D01*
X80803831Y-125758669D01*
X80782537Y-125657486D01*
X80764753Y-125541503D01*
X80751659Y-125406559D01*
X80742627Y-125240818D01*
X80737024Y-125032445D01*
X80734221Y-124769604D01*
X80733586Y-124440461D01*
X80733596Y-124426421D01*
X80733879Y-124362307D01*
X81631692Y-124362307D01*
X81631712Y-124461610D01*
X81632299Y-124750826D01*
X81634258Y-124975583D01*
X81638337Y-125146451D01*
X81645286Y-125274003D01*
X81655855Y-125368809D01*
X81670792Y-125441440D01*
X81690849Y-125502468D01*
X81716773Y-125562464D01*
X81745239Y-125619774D01*
X81820655Y-125725062D01*
X81905691Y-125772684D01*
X81909695Y-125773662D01*
X82058799Y-125789615D01*
X82279306Y-125784335D01*
X82567649Y-125758224D01*
X82920264Y-125711685D01*
X83333587Y-125645117D01*
X83804051Y-125558923D01*
X84070387Y-125506860D01*
X84467413Y-125424621D01*
X84797559Y-125347793D01*
X85067462Y-125272966D01*
X85283754Y-125196728D01*
X85453071Y-125115666D01*
X85582049Y-125026371D01*
X85677321Y-124925429D01*
X85745522Y-124809430D01*
X85793287Y-124674963D01*
X85827250Y-124518615D01*
X85829682Y-124504159D01*
X85852830Y-124310671D01*
X85870290Y-124059754D01*
X85881545Y-123770211D01*
X85886079Y-123460843D01*
X85883373Y-123150454D01*
X85872912Y-122857845D01*
X85871147Y-122825627D01*
X85847640Y-122558876D01*
X85808992Y-122356901D01*
X85750875Y-122208221D01*
X85668961Y-122101353D01*
X85558922Y-122024813D01*
X85551951Y-122021267D01*
X85482952Y-121994001D01*
X85399551Y-121976872D01*
X85293997Y-121970661D01*
X85158539Y-121976155D01*
X84985424Y-121994135D01*
X84766903Y-122025387D01*
X84495223Y-122070695D01*
X84162634Y-122130841D01*
X83761384Y-122206611D01*
X83617768Y-122234303D01*
X83241155Y-122309811D01*
X82930036Y-122377891D01*
X82675554Y-122441378D01*
X82468854Y-122503111D01*
X82301078Y-122565926D01*
X82163370Y-122632662D01*
X82046872Y-122706155D01*
X81942729Y-122789244D01*
X81939844Y-122791788D01*
X81854840Y-122872254D01*
X81786974Y-122953737D01*
X81734341Y-123045878D01*
X81695035Y-123158314D01*
X81667149Y-123300686D01*
X81648777Y-123482632D01*
X81638015Y-123713791D01*
X81632955Y-124003803D01*
X81631692Y-124362307D01*
X80733879Y-124362307D01*
X80735158Y-124073085D01*
X80740022Y-123785463D01*
X80749445Y-123551570D01*
X80764686Y-123359421D01*
X80787001Y-123197032D01*
X80817647Y-123052417D01*
X80857881Y-122913591D01*
X80908961Y-122768571D01*
X80929177Y-122719743D01*
X81045687Y-122517915D01*
X81209427Y-122310537D01*
X81401614Y-122119317D01*
X81603462Y-121965965D01*
X81745005Y-121886400D01*
X81926349Y-121806260D01*
X82147317Y-121728323D01*
X82415516Y-121650389D01*
X82738552Y-121570260D01*
X83124032Y-121485734D01*
X83579563Y-121394614D01*
X83880371Y-121337328D01*
X84296204Y-121261604D01*
X84649512Y-121202493D01*
X84948519Y-121158963D01*
X85201449Y-121129980D01*
X85293997Y-121123324D01*
X85416527Y-121114511D01*
X85601975Y-121111525D01*
X85766018Y-121119986D01*
G37*
G36*
X85760315Y-98953093D02*
G01*
X85887643Y-98970522D01*
X86002913Y-98998134D01*
X86207424Y-99084093D01*
X86416749Y-99246600D01*
X86581310Y-99469581D01*
X86698564Y-99749423D01*
X86765968Y-100082513D01*
X86772408Y-100149738D01*
X86783617Y-100337192D01*
X86792297Y-100580445D01*
X86798431Y-100864621D01*
X86802005Y-101174839D01*
X86803002Y-101496222D01*
X86801407Y-101813890D01*
X86797204Y-102112964D01*
X86790377Y-102378567D01*
X86780910Y-102595818D01*
X86768789Y-102749841D01*
X86751521Y-102886463D01*
X86712080Y-103096947D01*
X86654931Y-103258831D01*
X86569288Y-103391483D01*
X86444365Y-103514269D01*
X86269374Y-103646557D01*
X86121468Y-103747601D01*
X85885832Y-103889632D01*
X85656304Y-103997526D01*
X85404815Y-104083653D01*
X85103298Y-104160379D01*
X85058756Y-104170330D01*
X84650124Y-104246286D01*
X84292126Y-104283753D01*
X83990365Y-104282394D01*
X83750439Y-104241871D01*
X83635607Y-104201807D01*
X83466390Y-104105459D01*
X83333826Y-103968320D01*
X83232130Y-103781343D01*
X83155521Y-103535482D01*
X83098214Y-103221691D01*
X83094619Y-103192508D01*
X83083898Y-103053324D01*
X83075126Y-102858975D01*
X83068312Y-102621579D01*
X83063463Y-102353252D01*
X83060587Y-102066113D01*
X83059947Y-101855635D01*
X83954756Y-101855635D01*
X83956003Y-102121773D01*
X83959661Y-102373023D01*
X83965729Y-102596740D01*
X83974207Y-102780277D01*
X83985093Y-102910989D01*
X83998386Y-102976231D01*
X84059399Y-103072808D01*
X84142829Y-103146023D01*
X84254158Y-103185884D01*
X84404881Y-103194351D01*
X84606489Y-103173385D01*
X84870476Y-103124946D01*
X85025210Y-103090130D01*
X85290216Y-103008999D01*
X85490454Y-102909730D01*
X85634622Y-102785823D01*
X85731419Y-102630776D01*
X85789542Y-102438091D01*
X85808132Y-102305552D01*
X85825039Y-102099628D01*
X85837658Y-101847777D01*
X85845532Y-101566889D01*
X85848202Y-101273853D01*
X85845211Y-100985557D01*
X85836103Y-100718890D01*
X85835852Y-100713818D01*
X85817462Y-100451343D01*
X85786170Y-100258182D01*
X85733083Y-100125738D01*
X85649311Y-100045410D01*
X85525963Y-100008601D01*
X85354148Y-100006711D01*
X85124974Y-100031143D01*
X84871257Y-100071151D01*
X84579304Y-100140848D01*
X84352776Y-100230185D01*
X84184921Y-100342891D01*
X84068987Y-100482695D01*
X83998223Y-100653324D01*
X83997953Y-100654340D01*
X83984716Y-100744240D01*
X83973895Y-100895127D01*
X83965489Y-101094356D01*
X83959498Y-101329281D01*
X83955920Y-101587256D01*
X83954756Y-101855635D01*
X83059947Y-101855635D01*
X83059694Y-101772279D01*
X83060790Y-101483867D01*
X83063885Y-101212994D01*
X83068985Y-100971779D01*
X83076101Y-100772339D01*
X83085239Y-100626791D01*
X83096408Y-100547252D01*
X83101381Y-100529375D01*
X83120562Y-100442284D01*
X83121197Y-100399710D01*
X83110593Y-100396817D01*
X83039734Y-100403643D01*
X82920226Y-100426632D01*
X82770672Y-100461105D01*
X82609675Y-100502384D01*
X82455840Y-100545791D01*
X82327770Y-100586648D01*
X82244069Y-100620276D01*
X82051084Y-100750428D01*
X81919248Y-100917648D01*
X81847158Y-101128212D01*
X81842815Y-101155222D01*
X81830175Y-101291026D01*
X81820437Y-101485246D01*
X81813599Y-101722732D01*
X81809664Y-101988332D01*
X81808632Y-102266894D01*
X81810503Y-102543265D01*
X81815279Y-102802295D01*
X81822961Y-103028832D01*
X81833548Y-103207724D01*
X81847043Y-103323819D01*
X81866732Y-103406535D01*
X81908281Y-103518759D01*
X81952204Y-103583153D01*
X82026350Y-103608805D01*
X82167616Y-103625952D01*
X82362083Y-103631999D01*
X82706307Y-103631999D01*
X82706307Y-104076826D01*
X82706907Y-104186501D01*
X82706287Y-104336072D01*
X82694100Y-104440193D01*
X82659328Y-104507895D01*
X82590957Y-104548211D01*
X82477970Y-104570170D01*
X82309351Y-104582805D01*
X82074084Y-104595146D01*
X81887914Y-104602193D01*
X81606794Y-104592537D01*
X81383098Y-104549266D01*
X81206028Y-104466457D01*
X81064791Y-104338184D01*
X80948588Y-104158522D01*
X80846625Y-103921547D01*
X80732922Y-103612461D01*
X80733357Y-102381538D01*
X80733859Y-102082050D01*
X80735781Y-101777854D01*
X80739573Y-101533484D01*
X80745692Y-101338848D01*
X80754598Y-101183857D01*
X80766747Y-101058420D01*
X80782599Y-100952447D01*
X80802610Y-100855847D01*
X80847585Y-100687309D01*
X80957763Y-100389963D01*
X81093090Y-100139477D01*
X81246056Y-99951168D01*
X81296403Y-99904733D01*
X81381346Y-99835653D01*
X81475021Y-99774111D01*
X81585011Y-99717772D01*
X81718899Y-99664302D01*
X81884268Y-99611364D01*
X82088703Y-99556624D01*
X82339787Y-99497747D01*
X82645104Y-99432399D01*
X83012237Y-99358243D01*
X83448769Y-99272946D01*
X83452171Y-99272288D01*
X83932592Y-99180641D01*
X84343927Y-99105313D01*
X84693303Y-99045537D01*
X84987850Y-99000546D01*
X85234696Y-98969573D01*
X85354148Y-98959311D01*
X85440970Y-98951852D01*
X85613800Y-98946614D01*
X85760315Y-98953093D01*
G37*
G36*
X85723036Y-104388012D02*
G01*
X85883882Y-104421460D01*
X86104311Y-104505702D01*
X86306565Y-104621872D01*
X86460670Y-104755054D01*
X86532328Y-104843291D01*
X86628773Y-105000222D01*
X86696680Y-105179542D01*
X86742232Y-105399626D01*
X86771616Y-105678848D01*
X86776932Y-105765167D01*
X86784805Y-105980043D01*
X86789369Y-106242253D01*
X86790830Y-106537855D01*
X86789396Y-106852907D01*
X86785273Y-107173468D01*
X86778670Y-107485597D01*
X86769794Y-107775351D01*
X86758851Y-108028790D01*
X86746049Y-108231971D01*
X86731596Y-108370954D01*
X86705101Y-108520598D01*
X86631561Y-108799499D01*
X86535899Y-109038086D01*
X86424883Y-109217676D01*
X86420994Y-109222375D01*
X86327053Y-109310886D01*
X86192073Y-109410804D01*
X86043900Y-109501394D01*
X85797496Y-109616482D01*
X85486629Y-109711509D01*
X85139187Y-109765168D01*
X84738307Y-109781069D01*
X84482200Y-109777569D01*
X84260764Y-109766801D01*
X84092726Y-109746485D01*
X83965153Y-109714239D01*
X83865109Y-109667678D01*
X83779662Y-109604420D01*
X83644931Y-109486124D01*
X83403399Y-109687943D01*
X83149662Y-109877927D01*
X82874202Y-110029580D01*
X82579764Y-110131808D01*
X82248841Y-110190570D01*
X81863923Y-110211822D01*
X81778760Y-110212597D01*
X81610771Y-110211517D01*
X81490657Y-110203086D01*
X81396791Y-110183518D01*
X81307545Y-110149027D01*
X81201293Y-110095828D01*
X81087457Y-110029676D01*
X80971245Y-109947588D01*
X80898744Y-109878767D01*
X80858849Y-109812172D01*
X80817171Y-109700222D01*
X80783643Y-109549750D01*
X80757627Y-109354171D01*
X80738488Y-109106899D01*
X80725587Y-108801350D01*
X80718288Y-108430937D01*
X80715954Y-107989076D01*
X80716204Y-107871845D01*
X81592615Y-107871845D01*
X81593071Y-108099845D01*
X81596334Y-108405147D01*
X81604005Y-108646284D01*
X81617557Y-108831837D01*
X81638462Y-108970388D01*
X81668194Y-109070518D01*
X81708225Y-109140809D01*
X81760029Y-109189842D01*
X81825078Y-109226199D01*
X81914695Y-109245687D01*
X82068144Y-109245469D01*
X82254406Y-109224204D01*
X82451867Y-109185396D01*
X82638911Y-109132547D01*
X82793926Y-109069162D01*
X82825699Y-109052424D01*
X82998598Y-108934080D01*
X83110718Y-108793049D01*
X83177167Y-108611282D01*
X83182167Y-108585647D01*
X83196703Y-108459119D01*
X83209293Y-108274037D01*
X83219637Y-108045245D01*
X83227438Y-107787591D01*
X83232397Y-107515920D01*
X83232820Y-107452942D01*
X84061957Y-107452942D01*
X84069646Y-107762216D01*
X84084686Y-108039546D01*
X84106510Y-108273421D01*
X84134551Y-108452330D01*
X84168243Y-108564762D01*
X84254602Y-108677893D01*
X84402908Y-108757316D01*
X84608543Y-108789298D01*
X84873293Y-108774096D01*
X85198942Y-108711963D01*
X85244448Y-108700919D01*
X85454246Y-108643796D01*
X85604297Y-108586847D01*
X85709570Y-108521190D01*
X85785033Y-108437943D01*
X85845655Y-108328225D01*
X85845870Y-108327758D01*
X85872111Y-108266402D01*
X85892382Y-108202885D01*
X85907529Y-108126351D01*
X85918396Y-108025944D01*
X85925830Y-107890807D01*
X85930676Y-107710085D01*
X85933780Y-107472922D01*
X85935987Y-107168461D01*
X85936556Y-106979723D01*
X85935429Y-106705369D01*
X85932165Y-106454120D01*
X85927038Y-106239739D01*
X85920321Y-106075983D01*
X85912287Y-105976615D01*
X85885328Y-105834161D01*
X85820803Y-105639486D01*
X85735414Y-105489723D01*
X85637076Y-105401410D01*
X85599598Y-105386832D01*
X85454471Y-105368852D01*
X85259453Y-105381879D01*
X85029812Y-105424256D01*
X84780817Y-105494327D01*
X84710841Y-105518020D01*
X84516157Y-105596392D01*
X84367262Y-105685225D01*
X84257464Y-105795768D01*
X84180070Y-105939269D01*
X84128390Y-106126975D01*
X84095729Y-106370136D01*
X84075398Y-106679999D01*
X84070902Y-106784608D01*
X84062187Y-107123236D01*
X84061957Y-107452942D01*
X83232820Y-107452942D01*
X83234216Y-107245078D01*
X83232597Y-106989911D01*
X83227242Y-106765265D01*
X83217851Y-106585987D01*
X83217391Y-106579926D01*
X83202313Y-106402338D01*
X83185978Y-106284013D01*
X83163030Y-106206693D01*
X83128111Y-106152119D01*
X83075865Y-106102032D01*
X83030283Y-106065063D01*
X82973179Y-106033418D01*
X82901405Y-106019157D01*
X82793905Y-106018834D01*
X82629625Y-106029004D01*
X82600859Y-106031218D01*
X82413688Y-106051875D01*
X82233894Y-106080693D01*
X82096838Y-106112154D01*
X81981719Y-106151310D01*
X81876679Y-106203462D01*
X81792204Y-106272522D01*
X81726102Y-106366140D01*
X81676183Y-106491963D01*
X81640254Y-106657639D01*
X81616125Y-106870817D01*
X81601603Y-107139145D01*
X81594496Y-107470272D01*
X81592615Y-107871845D01*
X80716204Y-107871845D01*
X80716823Y-107581967D01*
X80720869Y-107215302D01*
X80729810Y-106910331D01*
X80745358Y-106658564D01*
X80769224Y-106451514D01*
X80803120Y-106280690D01*
X80848758Y-106137602D01*
X80907849Y-106013763D01*
X80982105Y-105900683D01*
X81073238Y-105789872D01*
X81182958Y-105672841D01*
X81353805Y-105513340D01*
X81585198Y-105349612D01*
X81842798Y-105227856D01*
X82143072Y-105140684D01*
X82502482Y-105080708D01*
X82603275Y-105069724D01*
X82793905Y-105064393D01*
X82953716Y-105059923D01*
X83281975Y-105100471D01*
X83306576Y-105108022D01*
X83400594Y-105158456D01*
X83501999Y-105234667D01*
X83634817Y-105351282D01*
X83784927Y-105115657D01*
X83838230Y-105038821D01*
X84023460Y-104837484D01*
X84239855Y-104677024D01*
X84464769Y-104575438D01*
X84600007Y-104540106D01*
X84796999Y-104498417D01*
X85016349Y-104459349D01*
X85238342Y-104425838D01*
X85443264Y-104400820D01*
X85454471Y-104399914D01*
X85611400Y-104387233D01*
X85723036Y-104388012D01*
G37*
%TD*%
M02*
